<svg width="17" height="16" viewBox="0 0 17 16" fill="none" xmlns="http://www.w3.org/2000/svg">
<g id="Frame">
<path id="Vector" d="M8.29199 2C7.49635 2.79565 7.04935 3.87478 7.04935 5C7.04935 6.12522 7.49635 7.20435 8.29199 8C9.08764 8.79565 10.1668 9.24264 11.292 9.24264C12.4172 9.24264 13.4963 8.79565 14.292 8C14.292 9.18669 13.9401 10.3467 13.2808 11.3334C12.6215 12.3201 11.6845 13.0892 10.5881 13.5433C9.49174 13.9974 8.28534 14.1162 7.12145 13.8847C5.95757 13.6532 4.88847 13.0818 4.04935 12.2426C3.21024 11.4035 2.63879 10.3344 2.40728 9.17054C2.17577 8.00666 2.29459 6.80026 2.74872 5.7039C3.20284 4.60754 3.97188 3.67047 4.95857 3.01118C5.94527 2.35189 7.10531 2 8.29199 2Z" stroke="#8585A9" stroke-width="1.5" stroke-linecap="round" stroke-linejoin="round"/>
<path id="Vector_2" d="M12.959 2V4.66667" stroke="#8585A9" stroke-width="1.5" stroke-linecap="round" stroke-linejoin="round"/>
<path id="Vector_3" d="M14.2917 3.33203H11.625" stroke="#8585A9" stroke-width="1.5" stroke-linecap="round" stroke-linejoin="round"/>
</g>
</svg>
