<svg
            width="13"
            height="13"
            viewBox="0 0 13 13"
            fill="none"
            xmlns="http://www.w3.org/2000/svg"
          >
            <path
              d="M0.61377 6.3759C0.61377 6.23894 0.65937 6.1191 0.756269 6.02209C0.853169 5.93079 0.972869 5.88514 1.09827 5.88514H2.26107C2.39217 5.88514 2.50047 5.93079 2.59167 6.0278C2.67717 6.12481 2.72277 6.23894 2.72277 6.3759C2.72277 6.51285 2.68287 6.62698 2.59737 6.724C2.51187 6.82101 2.39787 6.86666 2.26677 6.86666H1.10397C0.972869 6.86666 0.85887 6.82101 0.76197 6.724C0.66507 6.62698 0.61377 6.51285 0.61377 6.3759ZM2.24397 10.3305C2.24397 10.1993 2.28957 10.0851 2.37507 9.98243L3.21297 9.1664C3.29847 9.07509 3.41247 9.03515 3.54927 9.03515C3.68607 9.03515 3.80007 9.0808 3.89127 9.1664C3.98247 9.25199 4.02807 9.36042 4.02807 9.49167C4.02807 9.62862 3.98247 9.75417 3.89127 9.85689L3.08187 10.6672C2.84817 10.8498 2.61447 10.8498 2.38077 10.6672C2.28957 10.5759 2.24397 10.4618 2.24397 10.3305ZM2.24397 2.43268C2.24397 2.30143 2.28957 2.1873 2.37507 2.08458C2.48907 1.98757 2.60877 1.94192 2.73987 1.94192C2.86527 1.94192 2.97927 1.98757 3.07617 2.07887L3.89127 2.91773C3.98247 3.00333 4.02807 3.11746 4.02807 3.25442C4.02807 3.39138 3.98247 3.50551 3.89127 3.59681C3.80007 3.68812 3.68607 3.73377 3.54927 3.73377C3.41247 3.73377 3.29847 3.68812 3.21297 3.59681L2.38077 2.78078C2.28957 2.68947 2.24397 2.56964 2.24397 2.43268ZM3.69747 6.3759C3.69747 5.84519 3.82857 5.34872 4.09647 4.8922C4.36437 4.43567 4.72347 4.07045 5.18517 3.80225C5.64687 3.53404 6.13707 3.40279 6.66717 3.40279C7.06617 3.40279 7.44807 3.48268 7.81857 3.64246C8.18337 3.80225 8.50257 4.01339 8.76477 4.2816C9.03267 4.5498 9.24357 4.86366 9.39747 5.22888C9.55137 5.5941 9.63117 5.98215 9.63117 6.3816C9.63117 6.91802 9.50006 7.41449 9.23217 7.87101C8.96427 8.32753 8.60517 8.68705 8.14917 8.95525C7.69317 9.22346 7.19727 9.35471 6.66147 9.35471C6.12567 9.35471 5.62977 9.22346 5.17377 8.95525C4.71777 8.68705 4.35867 8.32753 4.09077 7.87101C3.83427 7.40878 3.69747 6.91231 3.69747 6.3759ZM6.18267 10.8156C6.18267 10.6786 6.22827 10.5645 6.32517 10.4732C6.42207 10.3819 6.53607 10.3362 6.66717 10.3362C6.80397 10.3362 6.92367 10.3819 7.01487 10.4732C7.10607 10.5645 7.15167 10.6786 7.15167 10.8156V11.9512C7.15167 12.0881 7.10607 12.208 7.00917 12.305C6.91227 12.402 6.79827 12.4477 6.66717 12.4477C6.53607 12.4477 6.41637 12.402 6.32517 12.305C6.22827 12.208 6.18267 12.0881 6.18267 11.9512V10.8156ZM6.18267 1.97045V0.806314C6.18267 0.675064 6.22827 0.560933 6.32517 0.463922C6.42207 0.366911 6.53607 0.315552 6.67287 0.315552C6.80967 0.315552 6.91797 0.361204 7.01487 0.458215C7.11177 0.555226 7.15737 0.669357 7.15737 0.800608V1.97045C7.15737 2.1017 7.11177 2.21012 7.01487 2.30143C6.91797 2.39273 6.80397 2.43268 6.67287 2.43268C6.54177 2.43268 6.42207 2.38703 6.33087 2.30143C6.23967 2.21583 6.18267 2.1017 6.18267 1.97045ZM9.32907 9.49167C9.32907 9.36042 9.37467 9.25199 9.46017 9.1721C9.54566 9.0808 9.65397 9.04085 9.77937 9.04085C9.91617 9.04085 10.0302 9.0865 10.1214 9.1721L10.9536 9.98814C11.0448 10.0851 11.0904 10.205 11.0904 10.3362C11.0904 10.4675 11.0448 10.5816 10.9536 10.6729C10.7256 10.8498 10.4976 10.8498 10.2696 10.6729L9.46017 9.86259C9.37467 9.75988 9.32907 9.64004 9.32907 9.49167ZM9.32907 3.26013C9.32907 3.11746 9.37467 3.00333 9.46017 2.92344L10.2696 2.08458C10.3665 1.99327 10.4805 1.94762 10.6059 1.94762C10.7427 1.94762 10.8567 1.99327 10.9479 2.09029C11.0448 2.1873 11.0904 2.30143 11.0904 2.43268C11.0904 2.57534 11.0448 2.69518 10.9536 2.78648L10.1214 3.60252C10.0188 3.69382 9.90477 3.73948 9.77937 3.73948C9.64827 3.73948 9.54566 3.69382 9.46017 3.60252C9.37467 3.51121 9.32907 3.39708 9.32907 3.26013ZM10.6173 6.3759C10.6173 6.23894 10.6629 6.12481 10.7541 6.02209C10.8453 5.93079 10.9536 5.88514 11.079 5.88514H12.2304C12.3615 5.88514 12.4755 5.93649 12.5724 6.0335C12.6693 6.13052 12.7206 6.24465 12.7206 6.3759C12.7206 6.50715 12.6693 6.62128 12.5724 6.71829C12.4755 6.8153 12.3615 6.86095 12.2304 6.86095H11.079C10.9479 6.86095 10.8339 6.8153 10.7484 6.71829C10.6629 6.62128 10.6173 6.51285 10.6173 6.3759Z"
              fill="white"
            />
          </svg>