<svg viewBox="0 0 16 16" fill="none" xmlns="http://www.w3.org/2000/svg">
<g clip-path="url(#clip0_207_24462)">
<path d="M2.56667 5.74657C2.46936 5.30825 2.4843 4.85246 2.6101 4.42146C2.73591 3.99046 2.9685 3.5982 3.28631 3.28105C3.60413 2.9639 3.99687 2.73213 4.42814 2.60723C4.8594 2.48233 5.31522 2.46835 5.75333 2.56657C5.99447 2.18944 6.32667 1.87907 6.7193 1.66409C7.11193 1.44911 7.55236 1.33643 8 1.33643C8.44763 1.33643 8.88807 1.44911 9.2807 1.66409C9.67333 1.87907 10.0055 2.18944 10.2467 2.56657C10.6854 2.46792 11.142 2.48184 11.574 2.60704C12.006 2.73225 12.3992 2.96466 12.7172 3.28267C13.0352 3.60068 13.2677 3.99395 13.3929 4.4259C13.5181 4.85786 13.532 5.31446 13.4333 5.75324C13.8105 5.99437 14.1208 6.32657 14.3358 6.7192C14.5508 7.11183 14.6635 7.55227 14.6635 7.9999C14.6635 8.44754 14.5508 8.88797 14.3358 9.2806C14.1208 9.67323 13.8105 10.0054 13.4333 10.2466C13.5316 10.6847 13.5176 11.1405 13.3927 11.5718C13.2678 12.003 13.036 12.3958 12.7189 12.7136C12.4017 13.0314 12.0094 13.264 11.5784 13.3898C11.1474 13.5156 10.6916 13.5305 10.2533 13.4332C10.0125 13.8118 9.68005 14.1235 9.28675 14.3394C8.89345 14.5554 8.45202 14.6686 8.00333 14.6686C7.55465 14.6686 7.11322 14.5554 6.71991 14.3394C6.32661 14.1235 5.99416 13.8118 5.75333 13.4332C5.31522 13.5315 4.8594 13.5175 4.42814 13.3926C3.99687 13.2677 3.60413 13.0359 3.28631 12.7188C2.9685 12.4016 2.73591 12.0093 2.6101 11.5783C2.4843 11.1473 2.46936 10.6916 2.56667 10.2532C2.18664 10.0127 1.87361 9.68002 1.6567 9.28605C1.43979 8.89207 1.32604 8.44964 1.32604 7.9999C1.32604 7.55016 1.43979 7.10773 1.6567 6.71376C1.87361 6.31979 2.18664 5.98707 2.56667 5.74657Z" stroke="#6160FF" stroke-width="1.5" stroke-linecap="round" stroke-linejoin="round"/>
<path d="M8 5.3335V10.6668" stroke="#6160FF" stroke-width="1.5" stroke-linecap="round" stroke-linejoin="round"/>
<path d="M5.33333 8H10.6667" stroke="#6160FF" stroke-width="1.5" stroke-linecap="round" stroke-linejoin="round"/>
</g>
<defs>
<clipPath id="clip0_207_24462">
<rect width="16" height="16" fill="white"/>
</clipPath>
</defs>
</svg>
