<svg viewBox="0 0 65 40" fill="none" xmlns="http://www.w3.org/2000/svg">
<rect width="65" height="40" rx="12" fill="url(#paint0_linear_207_20415)"/>
<g clip-path="url(#clip0_207_20415)">
<path d="M25.6657 22.8278C25.6657 21.2293 25.4857 20.43 25.1256 20.43C24.8016 20.43 24.3335 20.8947 23.7214 21.8241C23.1453 22.7535 22.5153 23.6829 21.8312 24.6122C21.1471 25.5788 20.517 26.0621 19.9409 26.0621C19.6168 26.0621 19.1128 25.4673 18.4287 24.2777C17.7806 23.088 17.0605 21.917 16.2683 20.7646C15.4762 19.575 14.7741 18.9801 14.162 18.9801C13.982 18.9801 13.892 18.8872 13.892 18.7013C13.892 18.1065 14.5761 17.0284 15.9443 15.4671C17.3125 13.9057 18.2846 13.125 18.8607 13.125C19.4728 13.125 20.3549 14.0916 21.5071 16.0247C22.6953 17.9578 23.4874 18.9244 23.8835 18.9244C24.2795 18.9244 25.0716 18.1623 26.2598 16.6381C27.484 15.1139 28.4381 14.3518 29.1222 14.3518C29.8423 14.3518 30.3644 14.6492 30.6885 15.244C31.0485 15.8016 31.2465 16.415 31.2825 17.0842C31.3545 17.7534 31.4266 18.3853 31.4986 18.9801C31.5706 19.5378 31.7146 19.8166 31.9306 19.8166C32.2907 19.8166 33.2088 18.9058 34.685 17.0842C36.1973 15.2254 37.2954 14.296 37.9795 14.296C38.7356 14.296 39.9958 15.4671 41.7601 17.8091C42.4082 18.7013 43.2183 19.5192 44.1904 20.2627C45.1986 20.969 46.0267 21.3222 46.6748 21.3222C47.3229 21.3222 47.953 21.2107 48.5651 20.9876C49.1772 20.7646 49.6992 20.653 50.1313 20.653C50.5634 20.653 50.7794 20.8018 50.7794 21.0992C50.7794 21.2479 50.7074 21.378 50.5634 21.4895C50.4553 21.601 50.1493 21.8984 49.6452 22.3817C49.1772 22.8278 48.7811 23.181 48.457 23.4412C48.169 23.7014 47.7369 24.0546 47.1609 24.5007C46.6208 24.984 46.1527 25.3558 45.7567 25.616C44.6765 26.2851 43.6503 26.6197 42.6782 26.6197C41.7421 26.6197 40.6799 26.0621 39.4917 24.9468C38.3396 23.8687 37.3314 22.7906 36.4673 21.7126C35.6392 20.5973 35.0271 20.0397 34.631 20.0397C34.235 20.0397 33.5869 20.5973 32.6867 21.7126C31.8226 22.8278 30.9225 23.9431 29.9863 25.0584C29.0862 26.1736 28.2941 26.7313 27.61 26.7313C26.9619 26.7313 26.4578 26.4153 26.0978 25.7833C25.7737 25.1513 25.6117 24.4635 25.6117 23.72L25.6657 22.8278Z" fill="white"/>
</g>
<defs>
<linearGradient id="paint0_linear_207_20415" x1="1.66474e-06" y1="40.3571" x2="35.7082" y2="-17.6686" gradientUnits="userSpaceOnUse">
<stop stop-color="#8763F3"/>
<stop offset="0.5" stop-color="#6160FF"/>
<stop offset="1" stop-color="#6A97FF"/>
</linearGradient>
<clipPath id="clip0_207_20415">
<rect width="41" height="20" fill="white" transform="translate(12 10)"/>
</clipPath>
</defs>
</svg>
