<svg xmlns="http://www.w3.org/2000/svg" width="16" height="16" viewBox="0 0 16 16" fill="none">
<rect width="16" height="16" rx="4" fill="white"/>
<rect width="16" height="16" rx="4" fill="#12AAFF" fill-opacity="0.15"/>
<path d="M10.3984 5.92902C10.4556 5.8169 10.594 5.8169 10.6226 5.92902L12.9729 12.397L11.6295 13.1818L9.72562 7.94504C9.69706 7.89008 9.69706 7.83291 9.72562 7.77795L10.3984 5.92902Z" fill="#12AAFF"/>
<path d="M8.60656 10.913L9.2793 9.06407C9.33426 8.95195 9.47498 8.95195 9.50139 9.06407L11.1261 13.4874L9.78277 14.2723L8.60656 11.0801C8.57801 11.0251 8.57801 10.968 8.60656 10.913Z" fill="#12AAFF"/>
<path d="M8.21523 1.8684C8.24382 1.8684 8.2702 1.8684 8.29878 1.89698L13.4499 4.86495C13.5049 4.89353 13.5335 4.94849 13.5335 5.03203V10.968C13.5335 11.0229 13.5049 11.1087 13.4499 11.135L8.29878 14.103C8.2702 14.1316 8.24382 14.1316 8.21523 14.1316C8.18665 14.1316 8.16027 14.1316 8.13169 14.103L2.98054 11.135C2.92558 11.1065 2.897 11.0515 2.897 10.968V5.03203C2.897 4.97707 2.92558 4.89133 2.98054 4.86495L8.13169 1.89698C8.15807 1.8684 8.18665 1.8684 8.21523 1.8684ZM8.21523 1C8.01957 1 7.85028 1.05496 7.68319 1.1407L2.53204 4.10867C2.19567 4.30433 2 4.6407 2 5.03203V10.968C2 11.3329 2.19567 11.6957 2.53204 11.8913L7.68319 14.8593C7.85028 14.9428 8.01957 15 8.21523 15C8.4109 15 8.58019 14.945 8.74728 14.8593L13.8984 11.8913C14.2348 11.6957 14.4305 11.3593 14.4305 10.968V5.03203C14.4305 4.66709 14.2348 4.30433 13.8984 4.10867L8.77366 1.1407C8.60657 1.05716 8.43729 1 8.24162 1H8.21523Z" fill="#12AAFF"/>
<path d="M4.8273 13.1796L5.06474 12.5355L5.30218 11.8913L6.25414 12.6762L5.35934 13.516L4.8273 13.1796Z" fill="#DBF2FF"/>
<path d="M8.7451 4.61212H10.062L10.0334 4.58574C10.1169 4.58574 10.1741 4.66928 10.1455 4.75283L6.67406 14.2723L5.33077 13.4874L8.52082 4.75283C8.54942 4.66709 8.66153 4.61212 8.7451 4.61212Z" fill="#12AAFF"/>
<path d="M6.47838 4.61212H7.76671C7.85027 4.61212 7.90742 4.69567 7.87882 4.77921L4.7987 13.2082L3.45541 12.4234L6.25415 4.75283C6.2827 4.66708 6.39482 4.61212 6.47838 4.61212Z" fill="#12AAFF"/>
</svg>