<svg xmlns="http://www.w3.org/2000/svg" width="16" height="16" viewBox="0 0 16 16" fill="none">
<rect width="16" height="16" rx="4" fill="white"/>
<rect width="16" height="16" rx="4" fill="#E84142" fill-opacity="0.15"/>
<path fill-rule="evenodd" clip-rule="evenodd" d="M5.67639 12.0002H4.10704C3.77728 12.0002 3.61439 12.0002 3.51507 11.9337C3.40779 11.8609 3.34224 11.7404 3.33429 11.6073C3.32832 11.4848 3.40978 11.3351 3.57267 11.0358L7.44759 3.88997C7.61247 3.58653 7.6959 3.43481 7.80119 3.3787C7.91442 3.31843 8.04951 3.31843 8.16274 3.3787C8.26802 3.43481 8.35146 3.58653 8.51633 3.88997L9.31294 5.34482L9.317 5.35225C9.49508 5.67778 9.58539 5.84286 9.62482 6.01612C9.66852 6.20526 9.66852 6.40478 9.62482 6.59391C9.58509 6.76849 9.4957 6.93477 9.31492 7.26522L7.27952 11.0296L7.27425 11.0392C7.095 11.3674 7.00415 11.5338 6.87825 11.6593C6.74118 11.7965 6.57629 11.8962 6.39552 11.9524C6.23063 12.0002 6.04589 12.0002 5.67639 12.0002ZM9.63952 12.0002H11.8882C12.22 12.0002 12.3869 12.0002 12.4862 11.9317C12.5935 11.8589 12.661 11.7362 12.667 11.6033C12.6727 11.4847 12.5931 11.3408 12.4369 11.0589C12.4315 11.0493 12.4262 11.0395 12.4207 11.0296L11.2943 9.01361L11.2815 8.99091C11.1232 8.71088 11.0433 8.56947 10.9407 8.51481C10.8275 8.45453 10.6943 8.45453 10.5811 8.51481C10.4778 8.57092 10.3944 8.71848 10.2295 9.01569L9.10713 11.0317L9.10328 11.0386C8.93898 11.3354 8.85687 11.4836 8.86279 11.6053C8.87074 11.7384 8.93629 11.8609 9.04356 11.9337C9.14091 12.0002 9.30777 12.0002 9.63952 12.0002Z" fill="#E84142"/>
</svg>