<svg width="16" height="16" viewBox="0 0 16 16" fill="none" xmlns="http://www.w3.org/2000/svg">
<rect width="16" height="16" rx="4" fill="white"/>
<rect width="16" height="16" rx="4" fill="#6B8AFF" fill-opacity="0.15"/>
<path d="M7.71249 3.71701L5.27107 7.73122C5.17441 7.89005 5.22713 8.09594 5.38789 8.19016L7.82932 9.62027C7.93477 9.68227 8.0661 9.68227 8.17154 9.62027L10.613 8.19016C10.7737 8.09594 10.8265 7.89005 10.7298 7.73122L8.28888 3.71701C8.1581 3.50188 7.84327 3.50188 7.71249 3.71701Z" fill="#6B8AFF"/>
<path d="M10.1055 9.67229C10.1055 9.66606 10.1044 9.6604 10.1039 9.65473C10.1029 9.64906 10.1018 9.6434 10.1008 9.63773C10.0993 9.63101 10.0972 9.62484 10.0952 9.61812C10.0936 9.61301 10.0921 9.60834 10.0894 9.60373C10.0863 9.59651 10.0822 9.58929 10.0781 9.58256C10.076 9.57895 10.0739 9.57484 10.0714 9.57123C10.0642 9.56095 10.0564 9.55062 10.0471 9.54184C10.0378 9.53312 10.028 9.52484 10.0177 9.51762C10.014 9.51507 10.0104 9.51351 10.0063 9.51095C9.99956 9.50679 9.99233 9.50268 9.98511 9.49957C9.98044 9.49751 9.97528 9.49595 9.97011 9.4939C9.96389 9.49184 9.95722 9.48979 9.9505 9.48823C9.94478 9.48668 9.93911 9.48568 9.93344 9.48518C9.92772 9.48412 9.92205 9.48362 9.91589 9.48362C9.90917 9.48362 9.90294 9.48312 9.89622 9.48362C9.89156 9.48362 9.88694 9.48462 9.88178 9.48518C9.87456 9.48618 9.86728 9.48668 9.86006 9.48823C9.858 9.48823 9.85594 9.48979 9.85389 9.49029C9.83167 9.49595 9.81044 9.50473 9.79083 9.51762L8.18406 10.4646C8.07039 10.5316 7.92983 10.5316 7.81617 10.4646L6.20941 9.51762C6.18977 9.50473 6.16859 9.49595 6.14637 9.49029C6.14431 9.48979 6.14224 9.48879 6.14017 9.48823C6.13294 9.48668 6.12571 9.48618 6.11847 9.48518C6.11382 9.48462 6.10917 9.48412 6.10401 9.48362C6.09729 9.48362 6.09109 9.48362 6.08437 9.48362C6.07869 9.48362 6.07249 9.48462 6.06681 9.48518C6.06113 9.48618 6.05544 9.48723 6.04976 9.48823C6.04304 9.48979 6.03684 9.49184 6.03013 9.4939C6.02496 9.49545 6.02031 9.49751 6.01514 9.49957C6.00791 9.50268 6.00068 9.50679 5.99396 9.51095C5.99034 9.51301 5.98621 9.51507 5.98259 9.51762C5.97226 9.52484 5.96193 9.53257 5.95314 9.54184C5.94436 9.55112 5.93609 9.56095 5.92886 9.57123C5.92628 9.57484 5.92473 9.57845 5.92214 9.58256C5.91801 9.58979 5.91388 9.59651 5.91078 9.60373C5.90871 9.60834 5.90716 9.61351 5.90509 9.61812C5.90303 9.62484 5.90096 9.63101 5.89941 9.63773C5.89786 9.6434 5.89683 9.64906 5.89631 9.65473C5.89528 9.6604 5.89476 9.66662 5.89476 9.67229C5.89476 9.67845 5.89424 9.68518 5.89476 9.69134C5.89476 9.69651 5.89579 9.70112 5.89631 9.70629C5.89734 9.71351 5.89786 9.72073 5.89941 9.72745C5.89993 9.73051 5.90096 9.73312 5.90199 9.73568C5.90819 9.7594 5.91853 9.78157 5.93351 9.80218L7.70461 12.2925C7.84872 12.495 8.15044 12.495 8.29461 12.2925L10.0657 9.80218C10.0807 9.78157 10.091 9.7594 10.0972 9.73568C10.0977 9.73312 10.0993 9.73001 10.0998 9.72745C10.1013 9.72023 10.1018 9.71351 10.1029 9.70629C10.1034 9.70112 10.1039 9.69651 10.1044 9.69134C10.1044 9.68518 10.1044 9.67845 10.1044 9.67229H10.1055Z" fill="#6B8AFF"/>
</svg>
