<svg xmlns="http://www.w3.org/2000/svg" width="16" height="16" viewBox="0 0 16 16" fill="none">
<rect width="16" height="16" rx="4" fill="white"/>
<rect width="16" height="16" rx="4" fill="#7E3EE2" fill-opacity="0.15"/>
<path d="M10.5857 9.90673L13.1158 8.46342C13.2498 8.38694 13.3327 8.24481 13.3327 8.09186V5.20559C13.3327 5.053 13.2494 4.91051 13.1158 4.83403L10.5857 3.39072C10.4517 3.31424 10.2855 3.3146 10.1515 3.39072L7.62142 4.83403C7.48741 4.91051 7.40453 5.053 7.40453 5.20559V10.3638L5.63028 11.3757L3.85603 10.3638V8.33969L5.63028 7.32781L6.80057 7.99518V6.63736L5.84717 6.09373C5.78145 6.05621 5.70623 6.03637 5.62991 6.03637C5.5536 6.03637 5.47838 6.05621 5.41301 6.09373L2.88291 7.53704C2.7489 7.61352 2.66602 7.75565 2.66602 7.9086V10.7949C2.66602 10.9475 2.74927 11.09 2.88291 11.1664L5.41301 12.6097C5.54666 12.6859 5.71317 12.6859 5.84717 12.6097L8.37728 11.1668C8.51129 11.0903 8.59417 10.9478 8.59417 10.7952V5.63703L8.62631 5.619L10.3684 4.62516L12.1427 5.63703V7.66114L10.3684 8.67301L9.19995 8.00636V9.36418L10.1515 9.90709C10.2855 9.98321 10.4517 9.98321 10.5857 9.90709V9.90673Z" fill="#7E3EE2"/>
</svg>