<svg xmlns="http://www.w3.org/2000/svg" width="16" height="16" viewBox="0 0 16 16" fill="none">
<rect width="16" height="16" rx="4" fill="white"/>
<rect width="16" height="16" rx="4" fill="#A01F1B" fill-opacity="0.1"/>
<path fill-rule="evenodd" clip-rule="evenodd" d="M7.97694 12.6668C9.35974 12.6668 10.6021 12.0654 11.4566 11.1098C11.0591 10.7643 10.4601 10.7433 10.0369 11.0848L9.95602 11.1501C9.18118 11.7753 8.05212 11.683 7.38915 10.9401C7.02756 10.535 6.40829 10.4937 5.99604 10.8471L5.06391 11.6462C5.86227 12.2849 6.87501 12.6668 7.97694 12.6668ZM9.49 10.4071C10.228 9.81156 11.2654 9.83292 11.9752 10.4081C12.3995 9.70509 12.6436 8.88113 12.6436 8.00017C12.6436 7.02125 12.3422 6.11274 11.8271 5.36238C11.4951 5.29167 11.1352 5.37426 10.862 5.61636L10.7842 5.68526C10.039 6.34559 8.90694 6.30547 8.21038 5.59405C7.8305 5.20603 7.20997 5.19329 6.81446 5.56538L5.72973 6.58589L5.133 5.95162L6.21773 4.9311C6.95861 4.23408 8.12101 4.25795 8.83265 4.9848C9.20448 5.36457 9.80884 5.38599 10.2066 5.03349L10.2844 4.96458C10.5259 4.7506 10.8052 4.60635 11.0978 4.53048C10.271 3.78636 9.17683 3.3335 7.97694 3.3335C5.60795 3.3335 3.65125 5.09869 3.35037 7.38553C4.06993 7.04024 4.9575 7.17311 5.54418 7.77391C5.91457 8.1532 6.51095 8.19322 6.9287 7.86686L7.53519 7.39303C8.29744 6.79755 9.37492 6.82637 10.1042 7.46176L11.285 8.49052L10.713 9.14712L9.53216 8.11839C9.11748 7.75707 8.50477 7.74067 8.07135 8.07928L7.46485 8.55313C6.69731 9.15274 5.60161 9.0792 4.92112 8.38234C4.52542 7.97712 3.87825 7.96298 3.46523 8.35054L3.33398 8.4737C3.43221 9.44837 3.83036 10.3346 4.43475 11.0385L5.42922 10.1859C6.20148 9.52385 7.36152 9.60134 8.03887 10.3603C8.39279 10.7568 8.99551 10.8061 9.40913 10.4723L9.49 10.4071Z" fill="#A01F1B"/>
</svg>