<svg  viewBox="0 0 24 24" fill="none" xmlns="http://www.w3.org/2000/svg">
<rect width="24" height="24" fill="white"/>
<rect width="24" height="24" fill="#DD57FF" fill-opacity="0.15"/>
<path d="M12 8C8.13365 8 4.99899 11.1774 5 15.0958H6.78829C6.78829 12.1593 9.10319 9.77848 12 9.77848C14.8968 9.77848 17.2118 12.1593 17.2118 15.0958H19C19.0007 11.1774 15.866 8 12 8Z" fill="#DD57FF"/>
<path d="M10.1417 15.2634C10.9275 15.2634 11.5646 14.6297 11.5646 13.848C11.5646 13.0663 10.9275 12.4326 10.1417 12.4326C9.35582 12.4326 8.71875 13.0663 8.71875 13.848C8.71875 14.6297 9.35582 15.2634 10.1417 15.2634Z" fill="#DD57FF"/>
<path d="M13.8604 15.2634C14.6463 15.2634 15.2833 14.6297 15.2833 13.848C15.2833 13.0663 14.6463 12.4326 13.8604 12.4326C13.0745 12.4326 12.4375 13.0663 12.4375 13.848C12.4375 14.6297 13.0745 15.2634 13.8604 15.2634Z" fill="#DD57FF"/>
</svg>
