<svg viewBox="0 0 24 24" fill="none" xmlns="http://www.w3.org/2000/svg">
<rect width="24" height="24" fill="white"/>
<rect width="24" height="24" fill="#1A1C2E" fill-opacity="0.1"/>
<path d="M11.6426 4.40321C12.6681 4.40321 13.6624 4.60423 14.5978 5.0009C15.0472 5.19119 15.4815 5.42705 15.8872 5.70221C16.2894 5.9747 16.6675 6.28738 17.0117 6.63134C17.3559 6.9762 17.668 7.355 17.9391 7.75792C18.2129 8.1644 18.4492 8.59951 18.6391 9.04979C19.035 9.98696 19.2357 10.9831 19.2357 12.0105C19.2357 13.0379 19.035 14.034 18.6391 14.9712C18.4492 15.4215 18.2137 15.8565 17.9391 16.263C17.6671 16.666 17.355 17.0448 17.0117 17.3896C16.6675 17.7345 16.2894 18.0472 15.8872 18.3187C15.4815 18.5939 15.0472 18.8298 14.5978 19.0201C13.6624 19.4168 12.6681 19.6178 11.6426 19.6178C10.6171 19.6178 9.62281 19.4168 8.68736 19.0201C8.23795 18.8298 7.80366 18.5939 7.39792 18.3187C6.99575 18.0463 6.61766 17.7336 6.27345 17.3896C5.92924 17.0448 5.61713 16.666 5.34605 16.263C5.07229 15.8565 4.83598 15.4215 4.64604 14.9712C4.25011 14.034 4.04947 13.0379 4.04947 12.0105C4.04947 10.9831 4.25011 9.98696 4.64604 9.04979C4.83598 8.59951 5.0714 8.1644 5.34605 7.75792C5.61803 7.355 5.93013 6.9762 6.27345 6.63134C6.61766 6.28649 6.99575 5.97381 7.39792 5.70221C7.80366 5.42705 8.23795 5.19119 8.68736 5.0009C9.62281 4.60423 10.6171 4.40321 11.6426 4.40321ZM11.6426 3.49463C6.9476 3.49463 3.14258 7.30675 3.14258 12.0105C3.14258 16.7142 6.9476 20.5264 11.6426 20.5264C16.3375 20.5264 20.1426 16.7142 20.1426 12.0105C20.1426 7.30675 16.3367 3.49463 11.6426 3.49463Z" fill="black"/>
<path d="M9.06357 8.74703V8.11896C9.06357 7.61152 9.39528 7.19788 9.89466 7.11032C10.2718 7.04332 10.6214 7.1139 10.8987 7.40336C11.0807 7.59276 11.1752 7.82235 11.1788 8.08503C11.1823 8.30302 11.1788 8.52191 11.1788 8.74344H12.3255C12.3255 8.73004 12.3273 8.71578 12.3273 8.70056V8.10466C12.3291 7.54095 12.7741 7.09514 13.3367 7.08978C13.5311 7.08799 13.7193 7.10675 13.8923 7.20056C14.2472 7.39353 14.4327 7.69371 14.4425 8.09752C14.4479 8.31106 14.4434 8.52459 14.4434 8.74526H15.9335C16.2117 8.74526 16.3963 8.93108 16.4213 9.20889C16.4427 9.44655 16.382 9.66367 16.3035 9.88075C16.2224 10.1059 16.1065 10.3167 15.9585 10.5044C15.8416 10.6526 15.7106 10.7911 15.5759 10.9243C15.4011 11.0958 15.2174 11.2584 15.0346 11.4228C14.9347 11.5121 14.8456 11.6095 14.7885 11.7319C14.7724 11.7667 14.7582 11.8078 14.7582 11.8453C14.7564 12.7602 14.7599 13.675 14.7555 14.5899C14.7501 15.6896 13.9387 16.6697 12.8614 16.8787C12.6947 16.91 12.5262 16.927 12.3567 16.9279C11.8832 16.9341 11.4097 16.9306 10.9362 16.9296C9.7805 16.9296 8.81208 16.1399 8.58558 15.0062C8.55619 14.8489 8.54101 14.6899 8.54192 14.53C8.53743 13.6384 8.54011 12.7468 8.53924 11.8561C8.53924 11.8284 8.53297 11.8006 8.52139 11.7757C8.44916 11.6077 8.32164 11.4844 8.18877 11.3638C8.00956 11.2012 7.83207 11.0368 7.65641 10.8707C7.45131 10.6768 7.26851 10.4641 7.13475 10.214C6.98494 9.93344 6.85742 9.64223 6.85742 9.31432C6.85742 9.24019 6.86544 9.16692 6.8815 9.09456C6.93143 8.88639 7.11602 8.74612 7.33093 8.74526H9.06179L9.06357 8.74703ZM10.7106 9.75656H8.8879C8.77106 9.75656 8.6703 9.83519 8.65517 9.95043C8.64536 10.0166 8.64622 10.0844 8.65781 10.1506C8.69797 10.3551 8.78714 10.5401 8.92892 10.692C9.0707 10.8438 9.22588 10.9787 9.36943 11.1262C9.47823 11.2369 9.54778 11.3691 9.54778 11.5326C9.54687 12.5315 9.54687 13.5303 9.54778 14.5291C9.54778 14.5997 9.55136 14.6703 9.56113 14.7399C9.66194 15.4261 10.2362 15.921 10.9282 15.921H12.3541C12.4245 15.921 12.495 15.9174 12.5654 15.9085C13.244 15.8147 13.7496 15.2349 13.7505 14.5487C13.7505 14.3826 13.7487 14.2155 13.7514 14.0493C13.7514 14.0109 13.7407 13.9949 13.7033 13.9832C13.3528 13.876 13.0175 13.7232 12.7063 13.5294C11.9911 13.0845 11.4427 12.4877 11.0878 11.7185C10.9175 11.3495 10.8007 10.9645 10.7596 10.5597C10.7329 10.2944 10.7275 10.0273 10.7115 9.75479L10.7106 9.75656ZM13.6801 12.435C13.6827 12.1848 13.483 11.9802 13.2342 11.9767C12.9845 11.974 12.7803 12.1741 12.7768 12.4243C12.7741 12.6744 12.9738 12.879 13.2226 12.8826H13.2235C13.4723 12.8861 13.6765 12.6869 13.6792 12.4377V12.435H13.6801Z" fill="black"/>
<path d="M10.8877 12.4303C10.8868 12.6805 10.6835 12.8824 10.4347 12.8815C10.185 12.8806 9.98351 12.6769 9.98438 12.4268C9.98529 12.1766 10.1886 11.9747 10.4383 11.9756H10.4401C10.6889 11.9756 10.8895 12.1793 10.8886 12.4276V12.4295L10.8877 12.4303Z" fill="black"/>
</svg>
