<svg  viewBox="0 0 24 24" fill="none" xmlns="http://www.w3.org/2000/svg">
<rect width="24" height="24" fill="white"/>
<rect width="24" height="24" fill="#EDAE50" fill-opacity="0.15"/>
<mask id="mask0_261_59872" style="mask-type:luminance" maskUnits="userSpaceOnUse" x="4" y="5" width="16" height="14">
<path d="M20 5H4V19H20V5Z" fill="white"/>
</mask>
<g mask="url(#mask0_261_59872)">
<path d="M18.708 14.0873C18.7605 14.1293 18.795 14.1657 18.8468 14.2089C18.8781 14.235 18.8783 14.235 18.9091 14.2065C18.9305 14.1866 18.9512 14.1658 18.9732 14.1463C19.0616 14.0668 19.1806 14.0706 19.2629 14.1572C19.2958 14.1919 19.3266 14.2285 19.3555 14.267C19.4267 14.3613 19.4196 14.4845 19.3392 14.5703C19.3167 14.5944 19.2927 14.6172 19.2683 14.6392C19.248 14.6574 19.2473 14.6752 19.2617 14.6981C19.2914 14.7452 19.3202 14.793 19.3481 14.8413C19.3835 14.9026 19.415 14.9663 19.4449 15.0306C19.4733 15.0919 19.4733 15.0915 19.5325 15.0718C19.561 15.0613 19.5901 15.0526 19.6196 15.0457C19.7157 15.026 19.8068 15.0755 19.8478 15.1707C19.8727 15.2294 19.8913 15.2908 19.9032 15.3539C19.9209 15.4439 19.8692 15.5437 19.7866 15.588C19.7545 15.6051 19.7194 15.6125 19.686 15.6252C19.6456 15.6407 19.642 15.6437 19.6487 15.6858C19.67 15.8183 19.685 15.9514 19.686 16.086C19.6863 16.1154 19.6967 16.1322 19.7256 16.1347C19.7504 16.1369 19.7749 16.1418 19.7997 16.1445C19.898 16.1553 19.9649 16.2074 19.9941 16.3101C19.9966 16.319 20.0031 16.5042 19.9945 16.5543C19.9756 16.6652 19.8944 16.7441 19.7877 16.7486C19.7646 16.7497 19.7416 16.7482 19.7188 16.7439C19.6767 16.7358 19.6489 16.7546 19.6387 16.7978C19.6137 16.904 19.58 17.0072 19.5438 17.1095C19.5332 17.1391 19.5393 17.1651 19.5625 17.1858C19.5746 17.1968 19.6212 17.2501 19.6287 17.2679C19.646 17.3087 19.5712 17.2452 19.554 17.2346C19.5144 17.2104 19.0296 16.9258 18.8491 16.8237C18.862 16.7222 18.9086 16.5925 18.9274 16.4924C19.0231 15.9827 18.9241 15.5177 18.6471 15.0932C18.4167 14.7401 18.1013 14.5143 17.7138 14.4023C17.3728 14.3036 17.0348 14.3237 16.7032 14.4524C16.4288 14.559 16.1285 14.7336 15.9637 15.0087C15.9448 15.031 15.9359 15.0285 15.906 15.0143C15.8029 14.9596 15.3987 14.6798 15.2344 14.5781C15.1615 14.5004 15.1134 14.3732 15.1681 14.2793C15.2071 14.2123 15.2596 14.158 15.3158 14.1092C15.3949 14.0407 15.5096 14.0427 15.5935 14.1071C15.6977 14.1869 15.6976 14.1866 15.7988 14.1008C15.8516 14.0559 15.908 14.0161 15.9635 13.9752C16.0151 13.9371 16.0189 13.9217 15.9947 13.862C15.9287 13.6991 15.971 13.5753 16.1199 13.4947C16.1593 13.4725 16.2004 13.454 16.2427 13.4394C16.3563 13.4026 16.461 13.4457 16.5227 13.5533C16.5871 13.6656 16.5868 13.6654 16.708 13.6358C16.7722 13.62 16.8371 13.6089 16.9018 13.5963C16.9664 13.5838 16.9763 13.5729 16.98 13.5049C16.9814 13.4709 16.9863 13.4371 16.9944 13.4042C17.0115 13.3384 17.0425 13.2807 17.1066 13.2548C17.2288 13.2053 17.3522 13.1958 17.4721 13.2609C17.5429 13.2993 17.5759 13.3653 17.5769 13.4508C17.5782 13.579 17.579 13.5801 17.6967 13.6004C17.7742 13.6137 17.85 13.6336 17.926 13.6527C17.9838 13.6672 17.9987 13.6615 18.0213 13.6023C18.0781 13.4526 18.2197 13.3762 18.3867 13.4634C18.4341 13.4881 18.4838 13.5062 18.5251 13.5461C18.6086 13.6265 18.6144 13.7453 18.5802 13.8319C18.5752 13.8441 18.5694 13.8557 18.5647 13.868C18.5418 13.9282 18.5394 13.9634 18.5394 13.9634C18.5394 13.9634 18.6562 14.0457 18.708 14.0873Z" fill="#5F5F5F"/>
<path d="M18.8219 16.7741C18.8705 16.8235 19.519 17.2007 19.5749 17.2363C19.5915 17.2386 19.6044 17.2503 19.6194 17.2567L19.6186 17.2562C19.6301 17.2673 19.6412 17.279 19.6517 17.2913L19.6511 17.2905C19.7025 17.367 19.7021 17.4485 19.6724 17.5328C19.6536 17.5777 19.6309 17.6207 19.6047 17.6611C19.5436 17.7588 19.431 17.7895 19.3319 17.7364C19.3018 17.7203 19.2726 17.7023 19.244 17.683C19.2232 17.6692 19.2089 17.6729 19.1943 17.6935C19.1149 17.8051 19.0267 17.9092 18.9306 18.0048C18.9112 18.024 18.9089 18.0408 18.9253 18.0631C18.944 18.0882 18.9615 18.1146 18.9783 18.1412C19.0467 18.2491 19.0283 18.3736 18.9315 18.4536C18.8978 18.4814 18.8634 18.5083 18.8277 18.5331C18.7316 18.5994 18.6189 18.5807 18.5457 18.4869C18.5254 18.4605 18.5065 18.4331 18.4889 18.4047C18.4733 18.3798 18.4576 18.3742 18.4315 18.39C18.3216 18.4565 18.2056 18.509 18.0871 18.5555C18.044 18.5725 18.0444 18.5731 18.0528 18.621C18.0558 18.6377 18.0581 18.6545 18.0612 18.6712C18.0887 18.8116 18.0573 18.8876 17.9418 18.9597C17.9119 18.9773 17.8777 18.9746 17.8457 18.9836C17.7899 18.9978 17.7335 18.9966 17.6767 18.9936C17.6581 18.9839 17.6396 18.9733 17.6214 18.9627C17.5667 18.9143 17.5423 18.8504 17.5282 18.7773C17.509 18.6783 17.5207 18.6943 17.4348 18.6986C17.3211 18.7042 17.2073 18.7038 17.0936 18.6971C17.0495 18.6944 17.0494 18.6942 17.0392 18.7377C17.0345 18.7579 17.0292 18.778 17.0263 18.7986C17.0079 18.9283 16.9096 19.0258 16.7529 18.9941C16.7146 18.9862 16.6766 18.9757 16.6391 18.9639C16.532 18.9305 16.47 18.8207 16.4915 18.7039C16.4969 18.6742 16.5034 18.6448 16.5088 18.6151C16.5162 18.5747 16.5157 18.5726 16.4776 18.5573C16.4043 18.5281 16.3314 18.4982 16.2609 18.462C16.2192 18.4407 16.178 18.4184 16.137 18.3958C16.0943 18.3725 16.0945 18.3721 16.0647 18.4147C16.0487 18.4374 16.0337 18.4609 16.0171 18.4828C15.944 18.5802 15.8288 18.6007 15.7315 18.5326C15.6943 18.5066 15.6582 18.4788 15.6234 18.4495C15.5345 18.3746 15.5154 18.2514 15.5764 18.1498C15.5946 18.1195 15.6148 18.0906 15.6352 18.0621C15.6493 18.0422 15.6502 18.0264 15.632 18.0081C15.5347 17.9112 15.4453 17.8055 15.365 17.6922C15.3498 17.6706 15.3348 17.6708 15.315 17.6839C15.291 17.7 15.266 17.7147 15.241 17.7293C15.1289 17.7943 15.012 17.7623 14.9462 17.6455C14.9226 17.6037 14.8938 17.5654 14.8776 17.5184C14.8375 17.4023 14.8713 17.2946 14.9716 17.2299C14.993 17.2162 15.0148 17.2034 15.0357 17.1896C15.0727 17.1655 15.0737 17.1648 15.0573 17.1228C15.0234 17.0354 14.9942 16.946 14.97 16.8551C14.9593 16.8153 14.9491 16.7749 14.9403 16.7344C14.9339 16.7049 14.9193 16.6935 14.8908 16.6998C14.868 16.7043 14.8451 16.7075 14.822 16.7095C14.6864 16.7247 14.5858 16.6383 14.5717 16.4945C14.5678 16.4547 14.5636 16.4155 14.561 16.3758C14.5574 16.3185 14.5746 16.262 14.609 16.2178C14.6435 16.1736 14.6926 16.1451 14.7462 16.1383C14.7761 16.1344 14.8063 16.1319 14.8361 16.127C14.875 16.1201 14.8762 16.1193 14.8768 16.0761C14.8786 15.9816 14.8854 15.8873 14.8971 15.7936C14.902 15.7524 14.915 15.7124 14.9122 15.6702C14.9092 15.6413 14.8977 15.6234 14.8759 15.6144C14.861 15.6098 14.8574 15.6078 14.8352 15.6019C14.7913 15.5906 14.7514 15.5703 14.7197 15.5361" fill="#414141"/>
<path d="M14.9145 15.6958C14.9195 15.6669 14.9078 15.6234 14.8799 15.6151C14.8559 15.6079 14.8176 15.5926 14.7938 15.585C14.6991 15.5546 14.6397 15.4752 14.6293 15.3684C14.6173 15.323 14.6549 15.176 14.672 15.1283C14.7102 15.0233 14.804 14.9621 14.9096 14.9791C14.9324 14.9826 14.9548 14.9888 14.9763 14.9975C15.0162 15.014 15.0469 15.001 15.0646 14.9607C15.108 14.8614 15.1731 14.763 15.2149 14.6631C15.2554 14.5665 15.2267 14.5745 15.2408 14.5779C15.2754 14.6096 15.7805 14.8707 15.9396 15.0073C15.8359 15.1266 15.6056 15.6667 15.596 15.8475" fill="#414141"/>
<path d="M15.9462 14.9996C16.2686 14.6289 16.4993 14.4698 16.8176 14.3737C17.0112 14.3147 17.2133 14.2933 17.414 14.3104C17.7519 14.3393 18.057 14.4648 18.3257 14.6866C18.5627 14.8823 18.7351 15.1301 18.8528 15.4224C18.9249 15.6012 18.9629 15.7881 18.9807 15.9819C19.0061 16.2593 18.9503 16.5691 18.8608 16.8277C18.8427 16.8447 18.513 16.6047 18.4777 16.5579C18.4696 16.5327 18.4796 16.5096 18.4857 16.4862C18.5181 16.3599 18.5391 16.2315 18.5353 16.1003C18.5176 15.4694 18.1134 14.9491 17.5546 14.8219C17.1421 14.7281 16.7047 14.8228 16.3044 15.2556C16.2943 15.2616 16.2911 15.2486 16.2232 15.1988C16.109 15.1249 16.0529 15.0786 15.975 15.0284C15.9302 15.0006 15.9325 15.0156 15.9462 14.9996Z" fill="#414141"/>
<path d="M18.8686 16.8094C18.8579 16.8276 18.8482 16.8464 18.8396 16.8658C18.7412 17.1178 18.5838 17.3248 18.392 17.4999C18.141 17.7293 17.8499 17.8724 17.5194 17.9184C17.4385 17.9297 17.3573 17.9421 17.2754 17.9393C17.0388 17.9313 16.8101 17.885 16.5915 17.7838C16.4529 17.7192 16.3232 17.6349 16.2058 17.5333C16.0231 17.3761 15.8748 17.1873 15.7658 16.9635C15.6656 16.7573 15.608 16.5392 15.5836 16.3094C15.5622 16.1116 15.579 15.9175 15.6179 15.7239C15.6625 15.503 15.7455 15.2994 15.8616 15.1108C15.878 15.084 15.926 15.0231 15.9416 15.0078C16.0259 15.0544 16.2559 15.2159 16.2928 15.251C16.3161 15.2833 16.2731 15.3259 16.2598 15.3466C16.1891 15.4565 16.1309 15.5726 16.0934 15.7001C15.9629 16.1443 16.0227 16.5577 16.2857 16.9294C16.5051 17.2396 16.8034 17.4096 17.1682 17.4485C17.6879 17.504 18.2212 17.1902 18.4407 16.6363C18.4528 16.6057 18.4498 16.5575 18.4991 16.5551C18.5308 16.5938 18.8314 16.7876 18.8686 16.8094Z" fill="#5F5F5F"/>
<path d="M18.4984 16.5543C18.457 16.6671 18.4107 16.7771 18.3458 16.8776C18.1404 17.1956 17.8599 17.393 17.5028 17.461C17.1411 17.5298 16.81 17.444 16.5157 17.2125C16.2568 17.0089 16.0915 16.735 16.0278 16.3995C15.9524 16.003 16.0316 15.6381 16.2523 15.3084C16.2606 15.296 16.2683 15.2836 16.2766 15.2712C16.285 15.2606 16.3947 15.1318 16.448 15.0842C16.6847 14.8734 16.9554 14.7653 17.2648 14.759C17.8446 14.7473 18.3675 15.1648 18.5183 15.7713C18.5786 16.014 18.5771 16.2574 18.5114 16.4994C18.5065 16.5174 18.5027 16.5359 18.4984 16.5543Z" fill="#EDAE50"/>
<path d="M17.6244 16.1217C17.6342 16.3293 17.455 16.4899 17.285 16.4878C17.091 16.4853 16.9319 16.3235 16.9336 16.1182C16.9353 15.9175 17.0828 15.7515 17.2874 15.751C17.4579 15.7505 17.6338 15.9127 17.6244 16.1217Z" fill="#414141"/>
<path d="M17.6434 15.4314C17.6828 15.4271 17.7156 15.4419 17.743 15.4731C17.7671 15.5006 17.7931 15.5265 17.8167 15.5546C17.8714 15.6198 17.838 15.739 17.7671 15.7624C17.7361 15.7727 17.7078 15.7733 17.6805 15.7543C17.6222 15.7136 17.5724 15.662 17.5283 15.6054C17.4813 15.5453 17.5052 15.4683 17.5749 15.4423C17.5968 15.4338 17.6201 15.43 17.6434 15.4314Z" fill="#FCD38C"/>
<path d="M8.33751 18.9725C8.24142 18.9187 8.18436 18.8351 8.16722 18.7203C8.16137 18.6812 8.15122 18.6429 8.14366 18.6039C8.13833 18.5766 8.12543 18.5675 8.09867 18.5699C7.92856 18.585 7.75766 18.587 7.58733 18.5755C7.56421 18.5741 7.54112 18.5727 7.51821 18.5699C7.49635 18.5672 7.48499 18.5768 7.48053 18.5992C7.47235 18.6399 7.46147 18.6799 7.45517 18.721C7.43567 18.8474 7.37057 18.9344 7.25961 18.9834C7.18866 19.0039 7.11779 18.9967 7.04683 18.9827C6.98117 18.9698 6.91371 18.9636 6.85416 18.927C6.8313 18.9091 6.80673 18.8936 6.78692 18.8714C6.71619 18.7919 6.68694 18.6991 6.70517 18.5908C6.71208 18.5499 6.72117 18.5095 6.72891 18.4687C6.74202 18.3991 6.74194 18.3987 6.68086 18.3757C6.54188 18.3232 6.4063 18.2609 6.27502 18.1895C6.24341 18.1724 6.21136 18.1554 6.18115 18.1359C6.15807 18.1207 6.14277 18.124 6.12777 18.1472C6.10473 18.1831 6.0792 18.2171 6.05638 18.2532C5.95901 18.4069 5.76796 18.4519 5.61783 18.3287C5.57848 18.2964 5.53691 18.2671 5.49747 18.2351C5.35814 18.1218 5.33274 17.9414 5.43421 17.7884C5.46084 17.7482 5.48803 17.7085 5.51579 17.6691C5.52895 17.6506 5.52877 17.6354 5.51203 17.6202C5.5039 17.6128 5.49668 17.6045 5.4889 17.5967C5.35884 17.4652 5.23865 17.3229 5.12958 17.1713C5.09862 17.1283 5.09832 17.1284 5.05285 17.1562C5.02203 17.1751 4.99138 17.1941 4.96056 17.213C4.79858 17.3115 4.6376 17.2683 4.53749 17.0995C4.52376 17.0779 4.51856 17.07 4.50422 17.0441C4.48651 17.0076 4.46518 16.9734 4.44917 16.9357C4.38089 16.7748 4.42841 16.6101 4.57137 16.5193C4.6049 16.4979 4.63896 16.4775 4.67289 16.4563C4.71792 16.4278 4.71844 16.4275 4.69903 16.3781C4.63673 16.2194 4.58532 16.056 4.54523 15.8894C4.53862 15.8619 4.53132 15.8346 4.52599 15.8069C4.52066 15.7791 4.50548 15.7701 4.48004 15.7736C4.43243 15.78 4.38482 15.7874 4.33699 15.7903C4.21414 15.7978 4.11936 15.7459 4.05522 15.6338C4.02851 15.5876 4.01845 15.536 4.01395 15.4826C4.01067 15.4428 4.00333 15.4071 4.00083 15.3645C3.99043 15.2033 4.07717 15.0009 4.26783 14.9864C4.30857 14.9833 4.34906 14.9768 4.38972 14.972C4.43671 14.9664 4.43838 14.966 4.43943 14.9184C4.44249 14.7785 4.45315 14.6389 4.47147 14.5004C4.47899 14.4443 4.48747 14.3883 4.49678 14.3325C4.5057 14.2793 4.50579 14.2781 4.45582 14.2607C4.41848 14.2477 4.38106 14.2355 4.34425 14.2223C4.18437 14.1649 4.10183 14.003 4.14668 13.8307C4.16321 13.767 4.18358 13.7043 4.20544 13.6424C4.26149 13.4828 4.41481 13.4023 4.56857 13.4506C4.61456 13.465 4.66073 13.4795 4.70546 13.4976C4.73414 13.509 4.74681 13.4995 4.75888 13.4726C4.78721 13.4095 4.81803 13.3477 4.84785 13.2854C4.85856 13.264 4.86844 13.2468 4.87806 13.2272C4.91011 13.1646 4.94412 13.103 4.98487 13.0461C5.02159 13.0121 11.1944 16.8731 11.177 16.9177C11.1651 16.9404 11.1556 16.9624 11.1442 16.9843C11.1224 17.0254 11.1019 17.0672 11.0787 17.1075C10.9906 17.2599 10.8303 17.3062 10.6807 17.2231C10.6414 17.2013 10.6036 17.1762 10.565 17.1528C10.5249 17.1285 10.5244 17.1283 10.4971 17.1657C10.4362 17.2495 10.3725 17.3307 10.3059 17.4094C10.2464 17.4798 10.1834 17.5464 10.1194 17.6118C10.0899 17.642 10.0899 17.6428 10.1126 17.6771C10.1382 17.7158 10.1652 17.7532 10.1905 17.792C10.289 17.9425 10.2626 18.1236 10.1259 18.2344C10.0821 18.2699 10.0376 18.3044 9.99241 18.3378C9.85041 18.4425 9.6817 18.4139 9.57673 18.2675C9.55002 18.2299 9.52466 18.1909 9.49795 18.1531C9.47381 18.119 9.4729 18.1185 9.43757 18.139C9.29255 18.2234 9.14212 18.2967 8.98726 18.3582C8.96558 18.3667 8.94372 18.3747 8.92217 18.3834C8.88312 18.3993 8.88238 18.3999 8.89012 18.446C8.89703 18.4868 8.90275 18.5283 8.91382 18.568C8.95509 18.7165 8.86896 18.8958 8.67786 18.9589C8.59523 18.9862 8.41625 19.006 8.33751 18.9725Z" fill="#414141"/>
<path d="M11.1641 16.9288C11.0345 16.8488 9.88058 16.0926 9.79974 16.0452C9.75598 16.0216 9.77019 16.0188 9.79681 15.9657C9.89116 15.7512 9.95464 15.5229 9.9852 15.2883C10.0072 15.1175 10.006 14.9459 9.99276 14.7738C9.98034 14.6117 9.95171 14.4515 9.90729 14.2958C9.85076 14.0975 9.76896 13.9118 9.66797 13.7345C9.55522 13.5366 9.4116 13.3677 9.25294 13.2119C9.13101 13.0921 8.99312 12.9949 8.84754 12.9104C8.62881 12.7825 8.3908 12.6963 8.14427 12.6555C7.98942 12.6299 7.83312 12.6173 7.67674 12.6282C7.34417 12.6515 7.02926 12.7446 6.73634 12.9158C6.50524 13.0544 6.29845 13.2344 6.12506 13.4479C6.08086 13.5024 6.0179 13.6108 5.97458 13.6658C5.9497 13.6974 5.5356 13.4117 4.97236 13.0572C4.99313 13.0183 5.01315 12.9865 5.03536 12.9526C5.04922 12.9313 5.04804 12.9152 5.03003 12.8984C4.99545 12.8658 4.961 12.833 4.92711 12.7996C4.81926 12.6932 4.79408 12.5521 4.86162 12.4134C4.87701 12.3817 4.9049 12.307 4.9474 12.2528C4.96795 12.2265 4.99059 12.2026 5.0128 12.1781C5.12158 12.0585 5.33291 12.0565 5.44641 12.1668C5.58377 12.3 5.56572 12.269 5.68135 12.1747C5.7802 12.0942 5.88019 12.0156 5.98477 11.9435C6.04108 11.9047 6.0447 11.886 6.0162 11.821C5.9845 11.7485 5.95596 11.6756 5.96208 11.5928C5.96964 11.4906 6.00872 11.4031 6.08724 11.3463C6.19943 11.2653 6.31847 11.1986 6.46157 11.2028C6.5797 11.2063 6.6625 11.2688 6.72253 11.3711C6.74386 11.4079 6.76047 11.4482 6.77774 11.4876C6.79379 11.5245 6.81976 11.5365 6.85609 11.5264C7.00932 11.4837 7.16453 11.4514 7.32069 11.4245C7.37744 11.4148 7.38889 11.397 7.39112 11.3371C7.39213 11.3162 7.39213 11.2954 7.39112 11.2746C7.37897 11.084 7.51782 10.9239 7.6819 10.9129C7.77235 10.9067 7.86303 10.8995 7.95283 10.9186C8.08486 10.947 8.21488 11.0756 8.20176 11.2523C8.19997 11.2767 8.20124 11.3014 8.20176 11.3261C8.20294 11.3987 8.21575 11.4165 8.28321 11.4267C8.42936 11.4485 8.57408 11.4799 8.71656 11.5208C8.79197 11.5427 8.80364 11.5348 8.83508 11.4598C8.85965 11.4011 8.88431 11.3422 8.92781 11.2951C9.01573 11.2001 9.12511 11.1848 9.23904 11.2116C9.32932 11.2328 9.41409 11.2764 9.49183 11.3302C9.61839 11.4181 9.66456 11.5758 9.61306 11.7292C9.60235 11.7612 9.58945 11.7924 9.57594 11.8233C9.54927 11.8839 9.55382 11.9061 9.6069 11.9418C9.71842 12.0161 9.82575 12.0972 9.92845 12.1847C10.041 12.2813 10.0209 12.2959 10.1451 12.1764C10.2538 12.0718 10.4217 12.0593 10.5208 12.131C10.6214 12.2035 10.7087 12.295 10.7668 12.4093C10.8184 12.5112 10.8115 12.6985 10.7087 12.7927C10.6778 12.8211 10.6505 12.8537 10.6217 12.8847C10.597 12.9117 10.5936 12.9412 10.6133 12.972C10.7052 13.116 10.7874 13.2666 10.8594 13.4229C10.8772 13.4613 10.9075 13.471 10.9449 13.4585C10.9889 13.4434 11.0338 13.4314 11.0793 13.4227C11.2009 13.4 11.3349 13.4568 11.3974 13.5704C11.4581 13.6804 11.4953 13.8011 11.4991 13.9303C11.5033 14.0723 11.4368 14.1706 11.3229 14.2359C11.2851 14.2571 11.2453 14.2739 11.204 14.286C11.1605 14.2992 11.1419 14.3274 11.1507 14.3746C11.1814 14.544 11.1915 14.7154 11.2016 14.8872C11.2043 14.9326 11.225 14.9577 11.2679 14.959C11.3 14.96 11.3315 14.9664 11.3632 14.9708C11.5265 14.9935 11.6381 15.1286 11.6387 15.3043C11.639 15.3383 11.6375 15.3723 11.6342 15.4061C11.6288 15.4595 11.6108 15.536 11.5968 15.586C11.5559 15.7314 11.4179 15.8111 11.2756 15.8015C11.2294 15.7984 11.1837 15.7905 11.1376 15.7857C11.0954 15.7812 11.0932 15.7818 11.0827 15.8264C11.0511 15.9604 11.0166 16.0934 10.9714 16.223C10.9503 16.2833 10.9287 16.3433 10.9049 16.4024C10.8942 16.4286 10.8987 16.4447 10.9215 16.4583C10.9664 16.4853 11.0117 16.5118 11.055 16.5416C11.1706 16.6211 11.2183 16.7658 11.1762 16.9039C11.1728 16.9125 11.1688 16.9209 11.1641 16.9288Z" fill="#666059"/>
<path d="M6.45914 13.9436C6.51257 13.8755 6.56324 13.8047 6.62169 13.7409C6.89756 13.4394 7.23079 13.2624 7.6243 13.2153C7.97235 13.1736 8.30252 13.238 8.6075 13.4205C9.077 13.7016 9.35698 14.1298 9.44533 14.6943C9.49666 15.0223 9.45779 15.3424 9.33534 15.6498C9.32843 15.6672 9.32353 15.6854 9.31772 15.7032C9.33101 15.7328 9.31811 15.7582 9.30644 15.7839C9.24707 15.9145 9.16894 16.0317 9.07853 16.1389C8.81853 16.4473 8.5003 16.6518 8.11409 16.7225C7.60144 16.8163 7.13893 16.6901 6.73685 16.3376C6.41075 16.0516 6.21419 15.6813 6.15097 15.2374C6.1017 14.8919 6.14266 14.5551 6.27732 14.2335C6.30989 14.1556 6.34954 14.0819 6.38946 14.008C6.40572 13.9772 6.42697 13.9543 6.45914 13.9436Z" fill="#EDAE50"/>
<path d="M6.75606 14.962C6.74727 14.3251 7.25944 13.8399 7.80274 13.8369C8.33559 13.834 8.86734 14.2853 8.86826 14.9677C8.86918 15.6011 8.38578 16.0826 7.82158 16.0888C7.20698 16.0955 6.74482 15.5561 6.75606 14.962Z" fill="#45423D"/>
<path d="M8.85065 13.9232C8.85944 14.0171 8.74878 14.0908 8.67188 14.0365C8.61972 13.9997 8.57045 13.9622 8.52909 13.9131C8.46955 13.8426 8.48315 13.7694 8.56201 13.7233C8.62038 13.6892 8.6749 13.6868 8.72885 13.7357C8.76679 13.77 8.80361 13.8047 8.83084 13.8495C8.84466 13.8712 8.85152 13.897 8.85065 13.9232Z" fill="#FCD38C"/>
<path d="M6.9691 14.9693C6.95603 14.5092 7.30653 14.0605 7.81529 14.0625C8.29056 14.0645 8.66156 14.4699 8.65679 14.977C8.65216 15.4768 8.26249 15.8687 7.79942 15.8626C7.31921 15.8563 6.95616 15.4265 6.9691 14.9693Z" fill="#EDAE50"/>
<path d="M7.80863 15.3304C7.61933 15.3304 7.4615 15.1629 7.4629 14.9612C7.46417 14.7624 7.60897 14.596 7.81082 14.5938C7.99496 14.5918 8.15572 14.7537 8.15471 14.9643C8.15375 15.1695 8.00213 15.3306 7.80863 15.3304Z" fill="#414141"/>
<path d="M8.21002 14.3535C8.22986 14.3535 8.24932 14.3558 8.26615 14.3677C8.3396 14.4195 8.3789 14.4915 8.37632 14.5862C8.37492 14.6348 8.30926 14.686 8.26453 14.6752C8.18886 14.657 8.12717 14.6171 8.08507 14.5454C8.0486 14.4834 8.05582 14.4315 8.11042 14.3876C8.13998 14.3641 8.17373 14.3545 8.21002 14.3535Z" fill="#FCD38C"/>
<path d="M6.45989 13.9441C6.4048 14.0368 6.35146 14.1304 6.30884 14.2307C6.23727 14.4001 6.19075 14.5802 6.17099 14.7647C6.1448 14.9973 6.1629 15.2331 6.2242 15.4582C6.28549 15.6832 6.3888 15.8928 6.52791 16.0745C6.73934 16.3506 7.00581 16.5408 7.32504 16.6469C7.51011 16.7084 7.70059 16.7366 7.89361 16.7231C8.39844 16.6876 8.81018 16.4589 9.12478 16.0358C9.19084 15.9465 9.24785 15.8501 9.29481 15.7481C9.30185 15.7329 9.31055 15.7186 9.31846 15.7039C9.36235 15.7258 9.70384 15.9604 9.76203 16.0037C9.78516 16.0207 9.77471 16.0435 9.7637 16.0642C9.70376 16.1782 9.64036 16.2898 9.56403 16.3925C9.39724 16.617 9.20274 16.8083 8.97264 16.9583C8.74928 17.104 8.50393 17.2075 8.24743 17.2643C8.04899 17.3088 7.84801 17.3154 7.6476 17.3021C7.381 17.2846 7.12555 17.2128 6.88234 17.0929C6.71573 17.0116 6.55965 16.908 6.41774 16.7846C6.13877 16.54 5.92231 16.2446 5.78228 15.8878C5.69279 15.6587 5.63687 15.4165 5.61641 15.1694C5.58437 14.801 5.63923 14.4463 5.76121 14.1016C5.80589 13.9754 5.86487 13.8569 5.92787 13.7406C5.93403 13.7291 5.94098 13.7178 5.94815 13.7072C5.98645 13.6493 5.99371 13.6475 6.05063 13.682C6.14624 13.74 6.33008 13.8613 6.42369 13.922C6.43619 13.9285 6.4483 13.9359 6.45989 13.9441Z" fill="#666059"/>
<path d="M9.42546 15.3369C9.47377 15.1083 9.47827 14.8717 9.43875 14.6413C9.39927 14.4108 9.31651 14.1912 9.19549 13.9954C8.99321 13.7179 8.73907 13.4842 8.45708 13.3399C8.28102 13.2592 8.09242 13.2143 7.90088 13.2073C7.39518 13.1882 6.96167 13.3664 6.60859 13.7537C6.55302 13.8157 6.50087 13.881 6.45238 13.9494C6.4108 13.9229 6.02826 13.7154 5.97453 13.666C5.95315 13.6463 6.1199 13.4453 6.20563 13.3514C6.39297 13.1461 6.6047 12.9765 6.84804 12.8523C7.07573 12.7274 7.33599 12.656 7.59861 12.6262C7.79998 12.6031 8.00332 12.6088 8.20329 12.6432C8.46678 12.6894 8.70977 12.7985 8.94017 12.9443C9.09822 13.0431 9.24367 13.1631 9.37308 13.3011C9.62726 13.5745 9.81443 13.8919 9.91983 14.2619C9.98703 14.4995 10.0195 14.7466 10.0163 14.9946C10.0129 15.3646 9.92552 15.7046 9.79873 15.9784C9.77355 16.0327 9.79637 16.0313 9.72345 15.9784C9.63391 15.9102 9.41046 15.7679 9.31616 15.7035C9.3103 15.6987 9.38733 15.5192 9.42546 15.3369Z" fill="#45423D"/>
<path d="M7.07906 5.69288C7.04015 5.56137 7.01028 5.4272 6.97758 5.2939C6.96893 5.25879 6.97863 5.24935 7.01383 5.24025C8.96108 4.73657 11.3291 5.12147 12.5453 5.51328C12.738 5.58686 12.9256 5.67233 13.0992 5.78928C13.1745 5.84004 13.2459 5.896 13.3021 5.97106C13.3177 5.99161 13.3318 6.01347 13.3442 6.03634C13.3736 6.09208 13.3802 6.14826 13.3525 6.2092C13.2885 6.35059 13.2188 6.48879 13.1435 6.62383C13.0949 6.7118 13.0448 6.79884 12.9955 6.88641C12.9722 6.92886 12.9462 6.96952 12.9174 7.00799C12.8923 7.03296 12.864 7.02093 12.837 7.01446C12.7178 6.98605 12.5975 6.96384 12.4791 6.93284C12.4704 6.93057 12.4616 6.93446 12.4527 6.93481C12.3287 6.89205 12.1978 6.8872 12.0719 6.85524C12.0554 6.85104 12.041 6.86167 12.0252 6.85887C11.8184 6.81607 11.6087 6.79451 11.4004 6.76404C11.3272 6.75329 11.2516 6.75901 11.1806 6.73116C11.1534 6.70065 11.1485 6.66073 11.1394 6.6223C11.0869 6.39545 11.0187 6.17532 10.8938 5.97981C10.8747 5.95012 10.8541 5.92175 10.8324 5.89416C10.7674 5.81114 10.6898 5.76178 10.5845 5.74709C10.3097 5.70866 10.0344 5.67539 9.75843 5.65056C9.2992 5.60889 8.83936 5.60181 8.37931 5.60876C8.15223 5.61209 7.92537 5.62813 7.69873 5.64894C7.51109 5.66599 7.32388 5.68619 7.1372 5.71251C7.11403 5.71491 7.09409 5.71338 7.07906 5.69288Z" fill="#EDAE50"/>
<path d="M13.5355 9.65357C13.4061 9.65256 13.2767 9.64977 13.1475 9.65164C13.1062 9.65226 13.0971 9.62677 13.0881 9.5952C13.0531 9.58384 13.054 9.54974 13.0487 9.52136C13.0068 9.30277 12.9675 9.08351 12.922 8.86566C12.8102 8.3301 12.6844 7.79835 12.5315 7.27415C12.5051 7.18387 12.4768 7.09421 12.451 7.00366C12.4432 6.97612 12.4282 6.94604 12.4536 6.91846C12.4629 6.90709 12.4754 6.90709 12.4877 6.90945C12.6316 6.93787 12.7754 6.96624 12.9168 7.00725C13.0096 7.28508 13.0876 7.56782 13.1597 7.85238C13.2576 8.23921 13.3416 8.62962 13.4199 9.02135C13.4491 9.16767 13.5351 9.6499 13.5355 9.65357Z" fill="#45423D"/>
<path d="M7.07908 5.69302C7.24915 5.66215 7.42084 5.64423 7.59243 5.62783C7.71612 5.61603 7.8405 5.60847 7.96457 5.59942C8.30921 5.57397 8.65415 5.57454 8.99901 5.58066C9.24952 5.58516 9.49981 5.59933 9.74993 5.62049C9.91646 5.63452 10.0828 5.6507 10.2487 5.67085C10.3881 5.6879 10.5264 5.71252 10.6658 5.7318C10.7109 5.73801 10.7448 5.76157 10.777 5.79283C10.888 5.90077 10.9664 6.03276 11.028 6.17682C11.1012 6.34802 11.1516 6.52701 11.185 6.71159C11.1772 6.73747 11.1573 6.73782 11.1373 6.73651C11.0487 6.73082 10.9599 6.72418 10.8716 6.71544C10.7938 6.70778 10.7156 6.70407 10.6379 6.69943C10.5139 6.69218 10.3898 6.67784 10.2652 6.68518C10.2172 6.68807 10.1698 6.67517 10.1218 6.67438C10.0569 6.67338 10.0367 6.68829 10.0142 6.75233C9.88139 7.12985 9.7721 7.51519 9.67604 7.9049C9.52762 8.507 9.41439 9.11697 9.31917 9.73083C9.29368 9.89487 9.27287 10.0597 9.25013 10.2242C9.24546 10.2577 9.24204 10.292 9.22202 10.3208C9.20637 10.3375 9.18648 10.3386 9.16737 10.3334C9.07805 10.3088 8.98944 10.2814 8.90038 10.2562C8.89338 10.2546 8.88691 10.251 8.88145 10.2461C8.87607 10.2412 8.87187 10.2349 8.86925 10.2278C8.85491 10.1868 8.86392 10.145 8.86973 10.1046C8.96045 9.44058 9.07163 8.78073 9.21778 8.12791C9.32118 7.66628 9.43896 7.20929 9.58987 6.7623C9.6127 6.69471 9.59993 6.67508 9.53317 6.67425C9.26863 6.6711 9.00448 6.6809 8.74006 6.69436C8.60716 6.70118 8.47438 6.70695 8.34182 6.71876C8.33295 6.71876 8.32407 6.71911 8.31511 6.71915C8.17678 6.72016 8.17355 6.72335 8.12992 6.86032C7.876 7.65658 7.6985 8.47277 7.56135 9.2998C7.52039 9.54717 7.4844 9.79536 7.4479 10.0435C7.44462 10.0662 7.44226 10.0886 7.42875 10.1076C7.41598 10.1295 7.39482 10.1325 7.37358 10.136C7.26327 10.153 7.15227 10.1649 7.04245 10.1856C7.01775 10.1903 6.98736 10.196 6.98242 10.1536C7.00083 10.0228 7.01928 9.89207 7.03773 9.7613C7.08555 9.42121 7.13977 9.0823 7.20027 8.74461C7.27962 8.30213 7.37043 7.86311 7.48257 7.42941C7.53595 7.22367 7.59112 7.01841 7.65828 6.81713C7.68175 6.74656 7.68162 6.74656 7.63086 6.69782C7.50836 6.57986 7.38626 6.46143 7.2631 6.34422C7.2405 6.32306 7.22467 6.29499 7.21781 6.26377C7.1761 6.09183 7.13238 5.92049 7.08931 5.74885C7.08188 5.73136 7.0783 5.71226 7.07908 5.69302Z" fill="#45423D"/>
<path d="M7.0783 5.69238C7.08482 5.7104 7.0922 5.72815 7.08844 5.74826C7.07778 5.73129 7.06422 5.71459 7.0783 5.69238Z" fill="#A9A9A9"/>
<path d="M9.90763 10.6298C9.70298 10.5129 9.48845 10.4207 9.26907 10.3409C9.24909 10.3336 9.22806 10.3283 9.21289 10.3108C9.23545 10.1443 9.2563 9.97756 9.28092 9.81147C9.33788 9.42683 9.40438 9.04407 9.48045 8.66327C9.59631 8.08605 9.73498 7.51543 9.91721 6.95757C9.94637 6.86825 9.97662 6.77937 10.0069 6.69058C10.0223 6.64568 10.023 6.64546 10.0682 6.64686C10.3206 6.65447 10.5729 6.66478 10.8249 6.68157C10.9454 6.68957 11.0657 6.70138 11.1861 6.71152C11.3851 6.73181 11.5834 6.75791 11.7813 6.78772C11.8654 6.8004 11.9495 6.81216 12.033 6.82864C12.0811 6.84906 12.1108 6.8881 12.1398 6.933C12.25 7.10381 12.3378 7.28822 12.4109 7.47827C12.4874 7.67706 12.5574 7.87987 12.6046 8.08994C12.6232 8.17266 12.6495 8.25327 12.6687 8.33564C12.7311 8.60692 12.8004 8.87636 12.8509 9.1507C12.8768 9.29143 12.9043 9.43194 12.9384 9.57101C12.9475 9.608 12.9625 9.64984 12.9178 9.67651C12.913 9.68215 12.909 9.68927 12.9031 9.6926C12.8239 9.73719 12.7703 9.80981 12.7183 9.88382C12.6314 10.0074 12.5452 10.1316 12.4589 10.2556C12.4345 10.2669 12.4145 10.2575 12.3945 10.2423C12.2905 10.1631 12.1855 10.0851 12.0795 10.0086C12.0256 9.96956 12.0214 9.95006 12.0576 9.89248C12.1089 9.81068 12.1641 9.73173 12.217 9.65111C12.2373 9.62011 12.2591 9.5899 12.2757 9.55641C12.3057 9.49564 12.2947 9.435 12.2487 9.39876C12.2026 9.36247 12.1453 9.36982 12.1011 9.42246C12.0454 9.48895 12.0015 9.56511 11.9539 9.6383C11.8029 9.86979 11.6516 10.1011 11.5 10.3323C11.4858 10.354 11.4712 10.3757 11.4616 10.4004C11.4394 10.4566 11.4549 10.5146 11.4998 10.5458C11.5462 10.578 11.5996 10.5717 11.639 10.5237C11.6941 10.4567 11.7377 10.3803 11.7856 10.3079C11.8161 10.2614 11.8465 10.2148 11.8781 10.169C11.9 10.1373 11.9242 10.1325 11.9559 10.1541C12.0711 10.2329 12.1811 10.3196 12.2935 10.4026C12.3124 10.4166 12.3309 10.4331 12.3301 10.4616C12.295 10.5225 12.26 10.5835 12.2246 10.6443C12.2068 10.6748 12.1877 10.7045 12.1702 10.7352C12.0971 10.8623 12.0948 10.9936 12.1578 11.124C12.3275 11.4752 12.5038 11.8227 12.7028 12.1564C12.7276 12.198 12.7543 12.2381 12.7791 12.2794C12.8493 12.3956 12.954 12.4423 13.0772 12.4462C13.1961 12.4499 13.3147 12.4361 13.4331 12.425C13.4304 12.9508 13.2889 13.4318 13.0241 13.8745C12.987 13.9364 12.9469 13.9629 12.8746 13.9606C12.6829 13.9545 12.4909 13.9595 12.299 13.9601C12.2602 13.9543 12.2616 13.9179 12.2563 13.8905C12.2335 13.7777 12.2036 13.6671 12.172 13.5568C12.0507 13.1315 11.8748 12.726 11.6492 12.3518C11.5763 12.2308 11.495 12.1165 11.4186 11.9983C11.3477 11.8998 11.2712 11.806 11.1922 11.715C11.0515 11.553 10.9055 11.3964 10.7457 11.2549C10.5146 11.0516 10.267 10.8703 10.0059 10.7133C9.96976 10.6903 9.92643 10.6758 9.90763 10.6298Z" fill="#B9E1E1"/>
<path d="M12.9045 9.6891C12.9193 9.65505 12.918 9.60801 12.9103 9.57592C12.8429 9.2962 12.3666 7.34593 12.0972 6.9167C12.0646 6.86472 12.0569 6.8509 12.0312 6.82812C12.1577 6.83857 12.2818 6.86695 12.4072 6.88562C12.4168 6.88675 12.426 6.89038 12.434 6.89602C12.4421 6.9017 12.4487 6.90931 12.4535 6.91827C12.6217 7.4617 12.766 8.01217 12.8865 8.56972C12.9603 8.90951 13.036 9.2746 13.0962 9.61745L13.0971 9.61968C13.1092 9.64355 13.1123 9.63695 13.0419 9.64635C12.9982 9.65229 12.9395 9.67306 12.9045 9.6891Z" fill="#DCF9FB"/>
<path d="M8.88112 10.2215C8.77165 10.1988 8.66222 10.1739 8.55244 10.154C8.42146 10.1304 8.28939 10.1141 8.15679 10.1052C8.03131 10.0965 7.90689 10.0938 7.78115 10.0935C7.7105 10.0935 7.63893 10.1008 7.56789 10.0953C7.53882 10.0715 7.54397 10.0393 7.54826 10.007C7.60855 9.54452 7.67863 9.08407 7.77 8.62677C7.8341 8.30474 7.90623 7.98493 7.99503 7.6698C8.07984 7.36875 8.17865 7.07304 8.33175 6.80193C8.35479 6.7611 8.35846 6.72739 8.33402 6.68918C8.3509 6.68197 8.36882 6.68201 8.38649 6.68118C8.78949 6.66173 9.1924 6.64066 9.59593 6.64459C9.61333 6.64459 9.63143 6.64022 9.6484 6.64944C9.65513 6.66977 9.64385 6.68643 9.63799 6.70344C9.4601 7.22033 9.32566 7.75103 9.20985 8.28716C9.11166 8.74201 9.03008 9.20028 8.95986 9.66086C8.93153 9.84754 8.90744 10.0347 8.88112 10.2215Z" fill="#B9E1E1"/>
<path d="M8.37177 6.68204C8.44391 6.67312 8.43705 6.67732 8.39381 6.75588C8.27699 6.9681 8.17867 7.18625 8.10351 7.41644C8.05997 7.54991 8.01769 7.68457 7.98508 7.82219C7.94945 7.97237 7.90739 8.12079 7.87434 8.27176C7.84089 8.42455 7.81265 8.57849 7.78165 8.73186C7.74996 8.8889 7.71756 9.0458 7.69347 9.20429C7.65605 9.45047 7.61998 9.69674 7.58518 9.94318C7.5781 9.99337 7.56909 10.0439 7.57058 10.0952C7.55257 10.1038 7.42932 10.1173 7.41992 10.0952C7.42805 9.9744 7.44934 9.85539 7.46692 9.73604C7.51042 9.44116 7.55921 9.14719 7.61347 8.85427C7.73995 8.17719 7.89585 7.50811 8.10474 6.85421C8.1179 6.81311 8.13351 6.77276 8.14522 6.73123C8.15204 6.70679 8.16564 6.69782 8.1875 6.69712C8.23756 6.69446 8.36286 6.68165 8.37177 6.68204Z" fill="#DCF9FB"/>
<path d="M15.0305 15.0103C14.9062 15.0001 14.7677 14.8961 14.6688 15.1647C14.5706 15.431 14.7151 15.5336 14.6932 15.5246C14.6825 15.5232 14.6716 15.5228 14.6608 15.5235C14.5794 15.5246 14.4953 15.5103 14.4141 15.5102C14.3853 15.4961 14.3921 15.471 14.3969 15.4468C14.4378 15.2374 14.5005 15.0336 14.5838 14.839C14.694 14.5839 14.8289 14.3449 14.9981 14.1279C15.233 13.8266 15.5083 13.577 15.8285 13.3831C16.1617 13.1812 16.5193 13.0563 16.8983 13.0019C17.0814 12.9756 17.2659 12.9658 17.451 12.9797C17.5212 12.9849 17.576 12.9544 17.6138 12.8928C17.6292 12.8678 17.6462 12.8487 17.6725 12.8388C17.703 12.8384 17.7308 12.8522 17.7598 12.8591C17.8239 12.8744 17.8306 12.8719 17.8587 12.8102C17.9041 12.7107 17.9511 12.6119 18.0097 12.52C18.0242 12.5101 18.0362 12.4967 18.0449 12.481C18.1209 12.3572 18.2181 12.2548 18.3323 12.1709C18.3355 12.1692 18.3391 12.1687 18.3427 12.1691C18.384 12.1691 18.3948 12.2026 18.4047 12.2354C18.4485 12.3794 18.4977 12.521 18.5585 12.6582C18.6593 12.8854 18.7836 13.0955 18.9433 13.2809C18.9671 13.3086 18.9972 13.3333 18.9832 13.3783C18.9001 13.5337 18.817 13.6889 18.7338 13.8442C18.7216 13.8669 18.7081 13.889 18.6951 13.9114C18.672 13.9505 18.6459 13.9876 18.6171 14.0221C18.6096 14.0164 18.6017 14.0113 18.5934 14.007C18.5886 14.0045 18.5795 13.996 18.5748 13.9932C18.4878 13.9428 18.5001 13.9395 18.5435 13.8456C18.5707 13.7863 18.5849 13.7263 18.5676 13.6595C18.5609 13.6319 18.5488 13.6061 18.5322 13.5837C18.5156 13.5613 18.4948 13.5429 18.4711 13.5294C18.4154 13.4973 18.3576 13.467 18.294 13.4528C18.2048 13.433 18.1115 13.4771 18.0684 13.563C18.0542 13.5913 18.0443 13.6218 18.0311 13.6508C18.0121 13.693 18.0013 13.6989 17.9601 13.6864C17.8506 13.6532 17.7399 13.626 17.6265 13.6125C17.6159 13.6112 17.6058 13.6069 17.5951 13.6058C17.5649 13.602 17.5522 13.5832 17.5524 13.552C17.5524 13.5218 17.5505 13.4914 17.5524 13.4612C17.5595 13.3468 17.4909 13.2694 17.3914 13.2484C17.3196 13.2334 17.2457 13.2344 17.1743 13.2515C17.0831 13.2733 17.0291 13.3326 17.0164 13.4332C17.0113 13.4705 17.0083 13.5082 17.0074 13.546C17.0069 13.5951 17.0038 13.5992 16.9571 13.609C16.8995 13.6209 16.8415 13.63 16.7839 13.6417C16.7246 13.6537 16.6658 13.6687 16.6077 13.6867C16.57 13.6984 16.5611 13.6938 16.5454 13.6563C16.5308 13.6218 16.5172 13.5869 16.4985 13.5546C16.4493 13.4694 16.3601 13.43 16.2689 13.455C16.2034 13.4732 16.141 13.5025 16.0843 13.5418C16.0015 13.5986 15.9713 13.7058 16.0063 13.807C16.0168 13.837 16.0321 13.8651 16.0443 13.8945C16.0596 13.9316 16.0583 13.9403 16.0278 13.9602C15.92 14.0305 15.8201 14.1124 15.7209 14.1952C15.6918 14.2194 15.6839 14.2198 15.6568 14.1931C15.6326 14.168 15.607 14.1446 15.5801 14.123C15.5038 14.0642 15.3996 14.0635 15.3279 14.1279C15.2778 14.1729 15.2305 14.2219 15.1948 14.2819C15.1408 14.3728 15.1533 14.4807 15.2269 14.5546C15.2567 14.5844 15.2598 14.5867 15.3081 14.6218C15.2338 14.7009 15.0886 14.9143 15.0461 14.9983" fill="#414141"/>
<path d="M14.0374 15.4998C13.7387 15.4994 13.4399 15.4991 13.1411 15.4988C12.6662 15.4988 12.1914 15.4988 11.7164 15.4988C11.607 15.4988 11.6051 15.4951 11.6203 15.3808C11.631 15.2976 11.6329 15.2145 11.589 15.1387C11.5416 15.057 11.4747 15.0046 11.3848 14.99C11.341 14.9823 11.2967 14.9776 11.2523 14.9757C11.1989 14.974 11.1893 14.9599 11.1873 14.9026C11.1809 14.7174 11.1666 14.5334 11.1332 14.3509C11.1198 14.2787 11.1235 14.2727 11.1915 14.2527C11.2466 14.2365 11.3002 14.2165 11.3494 14.1851C11.4714 14.1069 11.5072 13.9734 11.478 13.8362C11.4647 13.7737 11.4443 13.7127 11.4246 13.652C11.3734 13.4944 11.2377 13.4124 11.0839 13.4431C11.0311 13.4536 10.9806 13.4715 10.9298 13.4885C10.8881 13.5027 10.8829 13.5013 10.8635 13.4582C10.7827 13.277 10.6874 13.1035 10.5786 12.9396C10.5581 12.9091 10.5593 12.8995 10.5904 12.8746C10.6331 12.8402 10.6677 12.7965 10.7073 12.7587C10.8027 12.6678 10.8009 12.4765 10.7439 12.3852C10.6902 12.2992 10.6221 12.2261 10.548 12.1619C10.4549 12.0808 10.2914 12.0779 10.1878 12.177C10.1522 12.2111 10.1116 12.2395 10.0801 12.2784C10.0612 12.3017 10.0437 12.3022 10.0214 12.2821C9.96855 12.2345 9.91521 12.1874 9.86043 12.1423C9.77457 12.0718 9.6842 12.0082 9.59256 11.9462C9.51317 11.8925 9.51684 11.9046 9.55719 11.8156C9.57407 11.7801 9.58885 11.7436 9.60157 11.7063C9.64778 11.5608 9.60585 11.4014 9.45856 11.3219C9.395 11.2878 9.33117 11.2527 9.26266 11.2329C9.16656 11.205 9.0727 11.2101 8.98828 11.2769C8.95396 11.3043 8.92646 11.3402 8.90818 11.3815C8.88541 11.4306 8.86543 11.4812 8.84361 11.5309C8.82713 11.5683 8.8235 11.5707 8.78625 11.5582C8.64346 11.5105 8.49744 11.4779 8.3498 11.453C8.31478 11.4473 8.27955 11.4416 8.2444 11.4363C8.19351 11.4284 8.18957 11.4242 8.18865 11.3674C8.18795 11.3201 8.18813 11.2728 8.18865 11.2254C8.18988 11.094 8.12461 11.0095 8.01898 10.9547C7.9886 10.9384 7.95537 10.9291 7.9214 10.9273C7.84161 10.9244 7.76165 10.919 7.68199 10.933C7.53007 10.96 7.43572 11.0728 7.431 11.2362C7.42987 11.2777 7.431 11.3194 7.43056 11.3611C7.42982 11.4249 7.42733 11.4268 7.36962 11.4366C7.19221 11.4665 7.01536 11.4991 6.84298 11.5546C6.80188 11.5678 6.79694 11.5649 6.77814 11.5217C6.76026 11.4806 6.74282 11.4392 6.72476 11.398C6.65372 11.2343 6.48903 11.1815 6.33728 11.2403C6.2804 11.2622 6.22492 11.2879 6.1711 11.3173C6.08288 11.3658 6.02465 11.4408 6.00563 11.5476C5.99575 11.6036 6.00073 11.6615 6.01992 11.7148C6.03645 11.7628 6.0584 11.8082 6.07912 11.8543C6.09669 11.8933 6.09473 11.9022 6.06111 11.9239C5.91946 12.0153 5.78712 12.1205 5.65797 12.2306C5.64136 12.2447 5.62593 12.2608 5.60993 12.2753C5.58225 12.3 5.57381 12.2999 5.54583 12.2742C5.51492 12.2458 5.48301 12.2185 5.45407 12.1878C5.34499 12.0725 5.14073 12.0732 5.0348 12.1957C5.00358 12.2318 4.97381 12.2696 4.94181 12.3048C4.90303 12.3474 4.90045 12.3459 4.86071 12.3069C4.82696 12.2738 4.74743 12.1994 4.74175 12.1949C4.68872 12.1321 4.69091 12.1316 4.74455 12.0671C5.20085 11.5193 5.77934 11.1023 6.42673 10.8544C6.75305 10.7294 7.08886 10.648 7.43397 10.6164C7.6447 10.5977 7.85652 10.5956 8.06755 10.61C8.35334 10.6282 8.63664 10.6781 8.91273 10.7589C9.13928 10.8248 9.35958 10.9127 9.57092 11.0216C9.71533 11.0941 9.85536 11.1759 9.99032 11.2667C10.1793 11.394 10.3583 11.5375 10.5253 11.6958C10.6851 11.8485 10.8352 12.0123 10.9745 12.1863C10.9934 12.2113 11.0111 12.2373 11.0275 12.2642C11.1579 12.4207 11.2625 12.5966 11.3602 12.7765C11.5566 13.1367 11.7035 13.525 11.7965 13.9295C11.829 14.071 11.8506 14.2146 11.8746 14.3578C11.8955 14.4827 11.9817 14.5255 12.0874 14.465C12.22 14.3892 12.3042 14.2089 12.285 14.0492C12.2808 14.0146 12.2583 13.9754 12.2933 13.9428C12.3209 13.9262 12.3515 13.9276 12.3817 13.9275C12.5419 13.927 12.7018 13.9253 12.8617 13.9283C12.9278 13.9295 12.9721 13.9033 13.0075 13.8451C13.1398 13.627 13.2406 13.3891 13.3065 13.1392C13.3584 12.9442 13.3958 12.7462 13.4085 12.5435C13.41 12.5226 13.4097 12.5017 13.4075 12.481C13.4047 12.4563 13.4106 12.4361 13.432 12.4232C13.4667 12.4225 13.5426 12.4178 13.546 12.4175C13.6789 12.4091 13.6789 12.4092 13.6792 12.5512C13.6792 12.6592 13.6786 12.7671 13.6795 12.8747C13.6803 12.9733 13.705 13.0037 13.7957 13.028C14.0127 13.0868 14.2324 13.1058 14.4563 13.0934C14.5597 13.0877 14.6609 13.0679 14.7634 13.0593C14.7847 13.0568 14.8055 13.051 14.8252 13.0423C14.8875 13.0169 14.9058 12.9912 14.9068 12.9191C14.9084 12.7849 14.9063 12.6506 14.9079 12.5163C14.9083 12.487 14.9026 12.4549 14.927 12.4311C14.9673 12.3982 15.0059 12.4233 15.0419 12.4393C15.1309 12.4791 15.1979 12.5498 15.2594 12.6262C15.3732 12.7676 15.4578 12.9292 15.538 13.0936C15.545 13.1069 15.548 13.1221 15.5465 13.1372C15.5437 13.174 15.5186 13.1923 15.4931 13.2099C15.2833 13.3542 15.095 13.5254 14.9217 13.7164C14.723 13.9354 14.5582 14.1801 14.4187 14.4448C14.2566 14.7521 14.1463 15.0796 14.0812 15.4249C14.0756 15.4538 14.0812 15.4949 14.0374 15.4998Z" fill="#45423D"/>
<path d="M14.0383 15.4993C14.0518 15.4348 14.0646 15.3702 14.0788 15.3062C14.1949 14.7799 14.418 14.3103 14.74 13.8932C14.9539 13.6144 15.2075 13.3731 15.4917 13.1779C15.508 13.1665 15.526 13.1574 15.5361 13.1382C15.5489 13.1154 16.5181 12.452 17.6019 12.6652C17.6664 12.7151 17.674 12.8108 17.639 12.8977C17.6047 12.9824 17.5409 13.0091 17.4387 13.0066C17.3443 13.0041 17.2501 12.9987 17.1562 13.0042C16.9983 13.0126 16.8411 13.0339 16.6863 13.0677C16.262 13.1623 15.8755 13.3457 15.5287 13.6224C15.1236 13.9457 14.8179 14.3546 14.6079 14.8444C14.5228 15.0444 14.4588 15.2539 14.4168 15.4688C14.4143 15.4817 14.3794 15.6896 14.3687 15.7812C14.359 15.8665 14.3206 15.9259 14.2434 15.954C14.1298 15.9953 14.0084 15.9071 14.006 15.7795C14.0046 15.7152 14.0176 15.652 14.0267 15.5886C14.0304 15.5635 14.0343 15.5034 14.0383 15.4993Z" fill="#A19D98"/>
<path d="M13.1116 15.0569C12.9178 15.0569 12.724 15.0575 12.5303 15.0567C12.4395 15.0562 12.3737 15.0091 12.3363 14.9226C12.2988 14.8361 12.3104 14.7522 12.3648 14.6771C12.4079 14.6178 12.4696 14.595 12.5382 14.5927C12.5844 14.5911 12.6307 14.5921 12.6771 14.5921C13.0042 14.5924 13.3313 14.5925 13.6584 14.5928C13.7204 14.5928 13.7781 14.6041 13.8272 14.6489C13.8951 14.7108 13.9226 14.8112 13.8944 14.9006C13.8806 14.9459 13.8537 14.9854 13.8176 15.0136C13.7814 15.0417 13.7379 15.057 13.6931 15.0572C13.4993 15.0583 13.3055 15.0576 13.1118 15.0576L13.1116 15.0569Z" fill="#FCBE4F"/>
<path d="M6.98197 10.1526C6.99404 10.1628 7.00794 10.1631 7.02219 10.1601C7.14338 10.1349 7.26606 10.1204 7.38873 10.1068C7.3994 10.1056 7.39411 10.1058 7.42436 10.1027C7.8553 10.0686 8.42973 10.0937 8.88143 10.2206C8.98103 10.2499 9.08141 10.2718 9.18109 10.3008C9.19132 10.3014 9.67926 10.4913 9.86883 10.5996C9.88579 10.6125 9.8941 10.6194 9.90621 10.6293C9.91399 10.7223 9.88684 10.7921 9.83578 10.8556C9.76469 10.944 9.67078 11.0074 9.56568 11.0476C9.43055 10.9851 9.29593 10.9211 9.15634 10.8698C8.90933 10.7791 8.65484 10.7133 8.39624 10.6732C8.17095 10.6391 7.94335 10.6245 7.71579 10.6295C7.44736 10.6343 7.18006 10.6685 6.9181 10.7315C6.10518 10.9257 5.36816 11.3811 4.80681 12.0359C4.78884 12.0569 4.77057 12.0776 4.75256 12.0984C4.71522 12.142 4.69887 12.1703 4.67128 12.205C4.62551 12.2627 4.581 12.3216 4.53641 12.3804C4.43227 12.5176 4.24926 12.525 4.13524 12.3812C4.05812 12.2837 4.07115 12.1369 4.13393 12.0444C4.20244 11.9454 4.27567 11.8502 4.35331 11.7591C4.43266 11.6647 4.50996 11.5682 4.59696 11.4815C4.71885 11.3601 4.84026 11.2377 4.97286 11.1293C5.42561 10.7595 5.92191 10.4774 6.46879 10.2993C6.61333 10.2521 6.76014 10.2131 6.90856 10.1825C6.93475 10.1773 6.96221 10.1753 6.98197 10.1526Z" fill="#EDAE50"/>
<path d="M11.4315 11.9814C11.564 12.1482 11.6718 12.3328 11.776 12.5199C11.8984 12.74 12.0002 12.9708 12.0865 13.2095C12.1656 13.4287 12.234 13.6512 12.2795 13.8812C12.2848 13.9071 12.2913 13.9324 12.2972 13.9584C12.3091 14.0289 12.3228 14.0988 12.3083 14.1715C12.2785 14.3207 12.2086 14.4375 12.0752 14.5025C11.9634 14.557 11.8664 14.5 11.8482 14.3706C11.8 14.0298 11.7216 13.697 11.6019 13.376C11.4603 12.9962 11.2748 12.6433 11.0389 12.3201C11.0282 12.3053 11.0181 12.2896 11.0078 12.2744C11.0333 12.1842 11.0862 12.1113 11.1372 12.0364C11.1657 11.9943 11.2099 12.0012 11.2468 11.9888C11.3064 11.9689 11.3689 11.9526 11.4315 11.9814Z" fill="#EDAE50"/>
<path d="M11.4026 11.974C11.1104 11.9489 11.0186 12.2555 11.0093 12.2747C10.8831 12.1112 10.75 11.9547 10.605 11.8095C10.3106 11.5135 9.97649 11.2657 9.61362 11.0741C9.59762 11.0657 9.58215 11.0571 9.56641 11.0481C9.58005 11.031 9.70027 11.006 9.80048 10.8607C9.88525 10.7377 9.90527 10.6543 9.90698 10.6299C10.0026 10.6681 10.0861 10.7302 10.1729 10.7853C10.3228 10.8798 10.467 10.9844 10.6044 11.0983C10.7286 11.2022 10.8492 11.3103 10.9639 11.4265C11.0425 11.5061 11.1162 11.5903 11.1906 11.6737C11.2771 11.7707 11.3643 11.8683 11.4328 11.9818" fill="#FCD38C"/>
<path d="M18.981 13.3768C18.9496 13.3211 18.9019 13.2803 18.8635 13.2304C18.657 12.9626 18.5091 12.6611 18.4049 12.3341C18.3929 12.2966 18.382 12.2586 18.37 12.221C18.365 12.2051 18.3612 12.187 18.3398 12.1875C18.0767 11.9478 17.7591 11.8142 17.448 11.6678C16.9781 11.447 16.4875 11.2952 15.9911 11.1614C15.6018 11.0565 15.2074 10.9787 14.8118 10.9067C14.7758 10.9002 14.7373 10.897 14.7125 10.8614C14.706 10.8354 14.706 10.8089 14.7059 10.7825C14.7054 10.4696 14.7055 10.1566 14.7064 9.84366C14.7064 9.80956 14.6965 9.77039 14.7312 9.74512C14.8092 9.76553 14.8897 9.76553 14.9688 9.77725C15.1183 9.79929 15.2689 9.81568 15.4181 9.83973C15.6114 9.8705 15.8054 9.89787 15.9971 9.93879C16.1296 9.96717 16.2627 9.99108 16.3949 10.0211C16.5497 10.0562 16.7046 10.0918 16.8575 10.1332C17.1125 10.2021 17.3674 10.272 17.6158 10.365C17.7147 10.402 17.8128 10.4419 17.9129 10.4747C18.015 10.5081 18.095 10.5748 18.1711 10.6499C18.3366 10.8132 18.5017 10.977 18.6616 11.1467C18.7683 11.2603 18.8757 11.3731 18.9775 11.4919C19.0216 11.5434 19.0705 11.5905 19.1163 11.6405C19.1957 11.7272 19.2696 11.8192 19.3508 11.9041C19.4161 11.9723 19.4547 12.0581 19.4595 12.1564C19.4662 12.2944 19.4621 12.4314 19.4291 12.5671C19.3684 12.817 19.2565 13.0375 19.1048 13.2368C19.0668 13.2864 19.0275 13.3352 18.981 13.3768Z" fill="#EDAE50"/>
<path d="M12.3284 10.4604L11.9608 10.1891C11.9547 10.1852 11.9489 10.1808 11.9435 10.176C11.9212 10.1532 11.9079 10.1636 11.8938 10.1873C11.873 10.2224 11.8496 10.2558 11.8272 10.2898C11.774 10.3702 11.722 10.4514 11.6673 10.5306C11.6268 10.5895 11.5753 10.6076 11.5185 10.5886C11.4334 10.5602 11.395 10.4628 11.4371 10.3785C11.4504 10.3519 11.4679 10.3277 11.4842 10.3029C11.6712 10.0178 11.8583 9.73269 12.0456 9.44768C12.0573 9.4288 12.0703 9.41074 12.0843 9.39373C12.1332 9.33782 12.2072 9.32907 12.2632 9.371C12.2904 9.39128 12.3097 9.42154 12.3173 9.45594C12.3248 9.4904 12.3202 9.5266 12.3043 9.55759C12.2876 9.59082 12.2663 9.62142 12.246 9.65237C12.1879 9.74064 12.1293 9.82848 12.0709 9.91644C12.0476 9.95154 12.0471 9.95229 12.0804 9.97699C12.2057 10.0699 12.3313 10.1626 12.4569 10.255L12.3284 10.4604Z" fill="#45423E"/>
<path d="M13.8438 9.67566C13.861 9.68855 13.8598 9.70818 13.8598 9.72676C13.8603 10.0585 13.8603 10.39 13.8598 10.7216C13.8603 10.733 13.8585 10.7442 13.8545 10.7548C13.8325 10.7832 13.8011 10.7821 13.7714 10.7821C13.6614 10.7827 13.5514 10.7765 13.4416 10.7742C13.1345 10.7671 12.8275 10.7714 12.5201 10.772C12.4987 10.772 12.4773 10.7733 12.4575 10.7834C12.4458 10.7891 12.4352 10.7972 12.4368 10.8129C12.4385 10.8285 12.4508 10.8333 12.4632 10.8368C12.4718 10.8392 12.4807 10.8402 12.4896 10.84C12.6403 10.8365 12.791 10.8432 12.942 10.8332C13.087 10.8235 13.2327 10.8264 13.3783 10.8357C13.5039 10.8437 13.6299 10.8471 13.7558 10.8519C13.7879 10.8531 13.8199 10.8507 13.8484 10.871C13.8627 10.9471 13.885 11.0222 13.8698 11.1013C13.8694 11.1086 13.8675 11.1156 13.8641 11.1219C13.8406 11.1517 13.8041 11.1523 13.7736 11.1658C13.7158 11.1914 13.6871 11.2331 13.6889 11.3009C13.6972 11.6106 13.6742 11.92 13.6782 12.2297C13.6787 12.2656 13.6794 12.3014 13.6831 12.3371C13.6912 12.4145 13.6711 12.44 13.5977 12.4479C13.5783 12.4499 13.5587 12.4506 13.539 12.4511C13.5048 12.4516 13.4707 12.4518 13.4367 12.4489C13.3368 12.4655 13.2357 12.4667 13.1351 12.474C12.9486 12.4873 12.8116 12.4066 12.7144 12.2355C12.5795 11.9979 12.4434 11.7613 12.32 11.5167C12.2646 11.4069 12.2132 11.2951 12.1549 11.1869C12.0611 11.013 12.0601 10.843 12.1696 10.6766C12.2174 10.604 12.2522 10.5223 12.3093 10.4566C12.341 10.3774 12.3922 10.3116 12.4383 10.2421C12.5439 10.0763 12.6554 9.91515 12.7755 9.76091C12.8122 9.71378 12.8632 9.68479 12.9102 9.651C12.9725 9.63303 13.1986 9.62826 13.2559 9.6263C13.321 9.62394 13.3863 9.62534 13.4515 9.6263C13.4825 9.62652 13.784 9.64392 13.8438 9.67566Z" fill="#EDAE50"/>
<path d="M17.6753 12.864C17.6552 12.8522 17.6427 12.8356 17.6441 12.8095C17.6482 12.7301 17.5998 12.6908 17.5406 12.6616C17.4618 12.6309 16.8613 12.571 16.2643 12.7915C16.0544 12.8638 15.8519 12.954 15.6615 13.0734C15.6264 13.0955 15.5875 13.1104 15.5546 13.1369C15.55 13.1405 15.5412 13.1381 15.5343 13.1386C15.4875 13.0674 15.4565 12.9867 15.4144 12.9128C15.349 12.7983 15.2799 12.6871 15.1916 12.5906C15.1222 12.5148 15.0437 12.4567 14.9443 12.4354C14.917 12.4376 14.9129 12.4164 14.9095 12.3957C14.9066 12.3713 14.9055 12.3467 14.9064 12.3222C14.9064 12.1503 14.9035 11.9784 14.9071 11.8067C14.9104 11.6442 14.893 11.4824 14.8951 11.32C14.8959 11.2583 14.8684 11.2163 14.815 11.1923C14.7938 11.1827 14.773 11.1717 14.7531 11.1594C14.7379 11.1498 14.7214 11.14 14.7281 11.1157L14.7301 10.9928C14.7478 10.9668 14.7718 10.9705 14.7974 10.9746C15.0929 11.0219 15.3864 11.0802 15.6778 11.1498C16.0282 11.2341 16.3765 11.3266 16.7177 11.4472C16.991 11.5437 17.2616 11.6488 17.5236 11.7772C17.6478 11.8381 17.7746 11.8941 17.888 11.9767C17.9308 12.0078 17.9651 12.0491 17.9976 12.0921C18.0749 12.1943 18.0553 12.3131 18.0481 12.4294C18.0459 12.4657 18.0297 12.4995 18.0268 12.536C17.9599 12.6442 17.9028 12.7589 17.8563 12.8785C17.8468 12.9034 17.834 12.9126 17.8075 12.9031C17.7644 12.8875 17.7196 12.8769 17.6753 12.864Z" fill="#EDAE50"/>
<path d="M18.0291 12.5362C18.0142 12.5058 18.0166 12.473 18.0222 12.4418C18.0338 12.3761 18.0296 12.31 18.0296 12.244C18.0296 12.1793 17.9961 12.1291 17.9592 12.0829C17.9129 12.0254 17.8562 11.9783 17.7925 11.9444C17.4942 11.7832 17.1855 11.6491 16.8696 11.5326C16.6412 11.4483 16.4109 11.3714 16.1769 11.3076C15.8811 11.2271 15.5842 11.1528 15.2836 11.0918C15.1109 11.0568 14.9369 11.0306 14.7641 10.9964C14.7537 10.9944 14.7427 10.994 14.7324 10.9928C14.7324 10.9511 14.7324 10.9096 14.7324 10.8682C14.8386 10.8789 14.943 10.9013 15.0478 10.9214C15.184 10.9475 15.32 10.9751 15.4558 11.0045C15.5984 11.0355 15.741 11.0656 15.8819 11.1055C15.9899 11.1359 16.0992 11.1618 16.2074 11.1918C16.4723 11.2652 16.7339 11.3495 16.9924 11.4448C17.2023 11.5221 17.4053 11.618 17.6094 11.7107C17.8037 11.7993 17.9921 11.9018 18.1733 12.0174C18.2265 12.0512 18.2753 12.0927 18.3255 12.1316C18.3433 12.1454 18.3592 12.162 18.34 12.1878C18.2722 12.2516 18.2024 12.3127 18.1424 12.3855C18.1024 12.434 18.0671 12.4859 18.0291 12.5362Z" fill="#FCD38C"/>
<path d="M13.8446 10.7546L13.8449 10.8791C13.4894 10.8481 12.8266 10.8481 12.492 10.8681C12.4666 10.8668 12.4412 10.864 12.4161 10.8598C12.3974 10.8553 12.3686 10.8297 12.3691 10.8136C12.37 10.7842 12.3859 10.77 12.4065 10.7591C12.4323 10.7454 12.4667 10.7428 12.4957 10.7428C12.8158 10.7428 13.136 10.7377 13.4559 10.7459C13.5854 10.7491 13.715 10.7512 13.8446 10.7546Z" fill="#FCD38C"/>
<path d="M19.3312 12.2655C19.3329 12.3876 19.3098 12.5001 19.2769 12.6105C19.219 12.8059 19.1243 12.9802 19.004 13.1393C18.9796 13.1717 18.9782 13.1718 18.9527 13.1398C18.8356 12.9935 18.742 12.8312 18.6618 12.6596C18.6014 12.5306 18.552 12.397 18.5078 12.2612C18.4941 12.2191 18.4957 12.2115 18.5353 12.1899C18.6739 12.1143 18.8192 12.0605 18.9741 12.037C19.0447 12.0263 19.1158 12.0265 19.1864 12.0173C19.1935 12.0166 19.2006 12.0164 19.2077 12.0168C19.2749 12.0181 19.2854 12.0272 19.3106 12.0922C19.333 12.1502 19.3325 12.2103 19.3312 12.2655Z" fill="#FEFEFE"/>
<path d="M14.7241 9.77319C14.7241 10.1342 14.7281 10.9262 14.7363 11.1483C14.7165 11.1752 14.6908 11.1654 14.6676 11.1583C14.4172 11.0806 14.1651 11.0922 13.9124 11.1413C13.891 11.1454 13.8703 11.151 13.8523 11.1324L13.851 11.1343C13.8393 11.1172 13.851 9.35279 13.8494 9.23986C13.8487 9.19133 13.8564 9.14735 13.8791 9.10473C13.9069 9.05239 13.9312 8.99792 13.9572 8.94428C13.9607 8.94039 13.9656 8.93798 13.9707 8.9375C14.2621 9.06988 14.5029 9.22355 14.7223 9.46226C14.7191 9.54856 14.7223 9.66398 14.7241 9.77319Z" fill="#414141"/>
<path d="M13.9715 8.9168H13.9671L13.9629 8.91593C13.9839 8.8625 13.9851 8.80645 13.9849 8.74957C13.9843 8.57959 13.9869 8.40961 13.9853 8.23972C13.9848 8.17777 14.0024 8.12758 14.0387 8.0791C14.2182 7.84 14.4132 7.61458 14.6222 7.40447C14.7551 7.27086 14.8961 7.14674 15.0511 7.04199C15.0805 7.04951 15.0679 7.06984 15.0613 7.08558C14.9662 7.30846 14.9797 7.54214 15.0095 7.77416C15.0227 7.87637 15.0494 7.98178 15.1292 8.05684C15.135 8.06157 15.1387 8.06843 15.1399 8.07595C15.1411 8.08356 15.1396 8.09138 15.1357 8.09781C14.9552 8.187 14.8135 8.32563 14.6939 8.49198C14.6762 8.51651 14.6631 8.54248 14.6675 8.57487C14.6596 8.77738 14.6613 8.97967 14.6679 9.31285C14.6676 9.31639 14.6672 9.32002 14.6665 9.32352C14.6398 9.34276 14.6224 9.32103 14.606 9.30616C14.5347 9.24159 14.4654 9.17465 14.3886 9.11712C14.3046 9.05412 14.2184 8.99536 14.1253 8.94854C14.0763 8.92401 14.0264 8.9074 13.9715 8.9168Z" fill="#A19D98"/>
<path d="M15.1662 7.01758C15.2022 7.03673 15.2206 7.06869 15.2297 7.10974C15.253 7.21418 15.2683 7.32038 15.2756 7.4274C15.2881 7.61041 15.2632 7.78752 15.2202 7.96322C15.2112 7.99977 15.2009 8.03588 15.1781 8.06605C15.1554 8.07016 15.1484 8.05267 15.1392 8.03593C15.0332 7.84212 15.0139 7.63065 15.0271 7.4128C15.0288 7.38298 15.0333 7.35308 15.0352 7.32296C15.0412 7.20728 15.088 7.09824 15.1662 7.01758Z" fill="#A19D98"/>
<path d="M14.8401 11.1707C14.8954 11.1965 14.9226 11.2344 14.9249 11.3049C14.936 11.6599 14.933 12.0149 14.9338 12.3698C14.9338 12.3926 14.9361 12.4872 14.936 12.5135C14.9351 12.6607 14.9328 12.8081 14.9346 12.9553C14.9353 13.0071 14.9151 13.0367 14.873 13.0554C14.5215 13.1576 14.0648 13.1526 13.7446 13.044C13.6725 13.0207 13.6532 12.992 13.6527 12.9128C13.6519 12.809 13.6527 12.7051 13.6527 12.6012C13.6527 12.5578 13.6534 12.5144 13.6527 12.4709C13.6519 12.4275 13.6633 11.7543 13.6633 11.7335C13.6633 11.5749 13.6645 11.4162 13.6629 11.2576C13.6625 11.2077 13.6798 11.1777 13.7235 11.1569C14.232 10.986 14.4989 11.0357 14.8401 11.1707Z" fill="#A19D98"/>
<path d="M13.758 12.105V11.3393C13.758 11.3261 13.7576 11.3128 13.758 11.2995C13.7591 11.247 13.7633 11.2399 13.8109 11.2214C13.9896 11.1485 14.5125 11.0794 14.7915 11.2753C14.8356 11.2999 14.8426 11.3251 14.8446 11.3847C14.8517 11.5188 14.8392 12.515 14.8397 12.8987C14.8397 12.9064 14.8397 12.9139 14.8397 12.9215C14.8384 12.9762 14.8349 12.9788 14.7827 12.9903C14.4572 13.0623 14.1335 13.0528 13.8113 12.9675C13.7635 12.955 13.761 12.9538 13.7609 12.8988C13.7605 12.723 13.7605 12.5471 13.7609 12.3713C13.7609 12.2824 13.7609 12.1936 13.7609 12.1047L13.758 12.105Z" fill="#45423D"/>
<path d="M13.9595 8.92747C13.9657 8.87894 13.9936 8.87383 14.0473 8.88729C14.1119 8.90766 14.1736 8.93704 14.231 8.9746C14.3588 9.0557 14.4811 9.14497 14.5885 9.25571C14.6125 9.2805 14.6403 9.30118 14.6664 9.32348C14.67 9.33978 14.6783 9.35452 14.6901 9.36567C14.724 9.39815 14.7286 9.43562 14.7217 9.48292C14.6654 9.4744 14.6337 9.43863 14.5979 9.39666C14.501 9.28308 14.3877 9.19114 14.2675 9.10742C14.1935 9.05583 14.0802 8.99947 13.9979 8.96463C13.9697 8.9527 13.9562 8.95344 13.9595 8.92747Z" fill="#DCF9FB"/>
<path d="M15.168 7.01733C15.1869 7.02835 15.1991 7.03338 15.1502 7.07937C15.0884 7.13835 15.0475 7.28699 15.0516 7.53077C15.0556 7.6924 15.0576 7.83624 15.1798 8.06585C15.1695 8.0829 15.156 8.09545 15.1361 8.09798C14.9292 7.88162 14.9492 7.21591 15.0514 7.04221C15.0938 6.99561 15.1186 6.99027 15.168 7.01733Z" fill="#DCF9FB"/>
</g>
</svg>
