<svg viewBox="0 0 24 24" fill="none" xmlns="http://www.w3.org/2000/svg">
<rect width="24" height="24" fill="white"/>
<rect width="24" height="24" fill="#999999" fill-opacity="0.15"/>
<mask id="mask0_261_59867" style="mask-type:luminance" maskUnits="userSpaceOnUse" x="5" y="5" width="14" height="14">
<path d="M19.0001 5H5V19H19.0001V5Z" fill="white"/>
</mask>
<g mask="url(#mask0_261_59867)">
<mask id="mask1_261_59867" style="mask-type:luminance" maskUnits="userSpaceOnUse" x="5" y="5" width="14" height="14">
<path d="M19.0001 5H5V19H19.0001V5Z" fill="white"/>
</mask>
<g mask="url(#mask1_261_59867)">
<path d="M13.3897 5.55693L13.7623 6.4296C14.4936 8.14304 15.8584 9.50783 17.5718 10.2391L18.4445 10.6117C18.6729 10.7091 18.8583 10.8487 19.0014 11.0151C18.5668 7.89906 16.1023 5.43425 12.9863 5C13.1524 5.14278 13.2924 5.32853 13.3897 5.55693Z" fill="#999999"/>
<path d="M5.55693 10.6117L6.42961 10.2391C8.14305 9.50783 9.50783 8.14304 10.2394 6.4296L10.6117 5.55693C10.7094 5.32853 10.8491 5.14278 11.0151 5C7.89906 5.43425 5.43459 7.89906 5 11.0151C5.14313 10.8487 5.32855 10.7091 5.55693 10.6117Z" fill="#999999"/>
<path d="M18.4445 13.3888L17.5718 13.7613C15.8584 14.4926 14.4936 15.8577 13.7623 17.5712L13.3897 18.4435C13.2924 18.6719 13.1524 18.8576 12.9863 19.0008C16.1023 18.5662 18.5668 16.1014 19.0014 12.9854C18.8583 13.1517 18.6729 13.2913 18.4445 13.3888Z" fill="#999999"/>
<path d="M10.6117 18.4435L10.2394 17.5712C9.50783 15.8577 8.14305 14.4926 6.42961 13.7613L5.55693 13.3888C5.32855 13.2913 5.14313 13.1517 5 12.9854C5.43459 16.1014 7.89906 18.5662 11.0151 19.0008C10.8491 18.8576 10.7094 18.6719 10.6117 18.4435Z" fill="#999999"/>
</g>
<path d="M8.8248 11.3156L9.25488 11.132C10.0991 10.7715 10.7718 10.0992 11.1323 9.25491L11.3156 8.8248C11.5728 8.22246 12.4267 8.22246 12.6839 8.8248L12.8672 9.25491C13.2276 10.0992 13.9003 10.7715 14.7446 11.132L15.1747 11.3156C15.777 11.5728 15.777 12.4264 15.1747 12.6835L14.7446 12.8672C13.9003 13.2277 13.2276 13.9 12.8672 14.7446L12.6839 15.1743C12.4267 15.7767 11.5728 15.7767 11.3156 15.1743L11.1323 14.7446C10.7718 13.9 10.0991 13.2277 9.25488 12.8672L8.8248 12.6835C8.22246 12.4264 8.22246 11.5728 8.8248 11.3156Z" fill="black"/>
</g>
</svg>
