<svg viewBox="0 0 24 24" fill="none" xmlns="http://www.w3.org/2000/svg">
<rect width="24" height="24" fill="white"/>
<rect width="24" height="24" fill="#B2FE99" fill-opacity="0.15"/>
<g clip-path="url(#clip0_261_59870)">
<path d="M6.58455 15.5195L5 13.9364L6.94513 11.9932C7.58805 11.3509 8.41698 11.0056 9.26036 10.9559C9.03164 10.7719 8.74155 10.6611 8.42572 10.6611H5.67481V8.42233H8.42572C9.33496 8.42233 10.1655 8.76378 10.797 9.3244C10.7655 9.03272 10.6388 8.74933 10.4155 8.52618L8.4704 6.58294L10.0549 5L12 6.94324C12.6429 7.58554 12.9885 8.41374 13.0383 9.25623C13.2225 9.02773 13.3334 8.73792 13.3334 8.42233V5.67416H15.5744V8.4224C15.5744 9.33076 15.2325 10.1605 14.6713 10.7914C14.9633 10.7599 15.2469 10.6334 15.4703 10.4102L17.4154 8.46696L19 10.05L17.0549 11.9932C16.412 12.6355 15.5829 12.9807 14.7396 13.0304C14.9683 13.2145 15.2585 13.3253 15.5744 13.3253H18.3252V15.564H15.5744C14.6651 15.564 13.8345 15.2225 13.203 14.6619C13.2345 14.9537 13.3612 15.237 13.5845 15.4601L15.5297 17.4033L13.9451 18.9863L11.9998 17.0431C11.357 16.4008 11.0114 15.5726 10.9617 14.7301C10.7775 14.9586 10.6666 15.2484 10.6666 15.564V18.3123H8.42565V15.564C8.42565 14.6557 8.76743 13.8259 9.32853 13.1952C9.03656 13.2266 8.75297 13.3531 8.5296 13.5762L6.58455 15.5195Z" fill="#B2FE99"/>
</g>
<defs>
<clipPath id="clip0_261_59870">
<rect width="14" height="14" fill="white" transform="translate(5 5)"/>
</clipPath>
</defs>
</svg>
