<svg viewBox="0 0 24 24" fill="none" xmlns="http://www.w3.org/2000/svg">
<rect width="24" height="24" fill="white"/>
<rect width="24" height="24" fill="#EE498B" fill-opacity="0.15"/>
<path fill-rule="evenodd" clip-rule="evenodd" d="M7.48069 5.81625L6.67955 6.63251L8.63442 8.6239L10.5893 10.6153V12.469V14.3227H11.7284H12.8676V12.469V10.6153L14.8176 8.62873L16.7678 6.64217L15.9616 5.82168L15.1556 5.00118L13.4525 6.73139C12.5159 7.68301 11.7402 8.46156 11.7289 8.46156C11.7175 8.46156 10.9407 7.68274 10.0028 6.73079C9.06479 5.77886 8.29383 5 8.28957 5C8.28531 5 7.92131 5.36732 7.48069 5.81625ZM6.57753 10.6005C6.32257 11.1489 6.17491 11.6214 6.07982 12.1932C5.80794 13.828 6.23767 15.5116 7.26095 16.8206C7.42979 17.0366 7.92659 17.5424 8.13716 17.7128C9.08503 18.4796 10.1641 18.9045 11.3745 18.9874C12.0986 19.037 12.8226 18.9402 13.5337 18.699C15.5891 18.0017 17.0731 16.2017 17.3941 14.0168C17.5175 13.176 17.4509 12.2766 17.2036 11.4472C17.1053 11.1174 16.9061 10.6233 16.802 10.451L16.7622 10.3851L15.8954 11.2672C15.1963 11.9787 15.0308 12.157 15.0397 12.1887C15.1112 12.4437 15.1491 12.7089 15.1593 13.0246C15.179 13.6363 15.084 14.1308 14.8475 14.6472C14.3879 15.6511 13.4911 16.3677 12.3946 16.607C12.2042 16.6486 12.1342 16.6533 11.7187 16.6527C11.3111 16.6521 11.231 16.6467 11.0527 16.6074C9.9655 16.3681 9.11048 15.6906 8.62812 14.6865C8.4101 14.2327 8.3114 13.8127 8.29651 13.2755C8.28575 12.8869 8.30682 12.652 8.37974 12.3461L8.42671 12.1494L7.56281 11.2693C7.08766 10.7851 6.69371 10.389 6.68737 10.389C6.68102 10.389 6.63159 10.4842 6.57753 10.6005Z" fill="#EE498B"/>
</svg>
