<svg xmlns="http://www.w3.org/2000/svg" viewBox="0 0 24 24" fill="none">
<rect width="24" height="24" fill="white"/>
<rect width="24" height="24" fill="#E84142" fill-opacity="0.15"/>
<path fill-rule="evenodd" clip-rule="evenodd" d="M8.51361 18H6.15959C5.66494 18 5.4206 18 5.27162 17.9003C5.11071 17.7911 5.01238 17.6103 5.00046 17.4108C4.99151 17.2269 5.1137 17.0024 5.35803 16.5534L11.1704 5.83472C11.4177 5.37955 11.5429 5.15197 11.7008 5.0678C11.8706 4.9774 12.0733 4.9774 12.2431 5.0678C12.4011 5.15197 12.5262 5.37955 12.7735 5.83472L13.9684 8.01699L13.9745 8.02813C14.2416 8.51643 14.3771 8.76405 14.4363 9.02394C14.5018 9.30764 14.5018 9.60692 14.4363 9.89062C14.3767 10.1525 14.2426 10.4019 13.9714 10.8976L10.9183 16.5441L10.9104 16.5586C10.6415 17.0509 10.5052 17.3004 10.3164 17.4887C10.1108 17.6945 9.86346 17.844 9.5923 17.9284C9.34497 18 9.06786 18 8.51361 18ZM14.4583 18H17.8313C18.329 18 18.5793 18 18.7284 17.8973C18.8893 17.7881 18.9905 17.6041 18.9996 17.4047C19.0081 17.2267 18.8886 17.011 18.6544 16.5881C18.6463 16.5737 18.6383 16.5591 18.63 16.5442L16.9404 13.5202L16.9212 13.4861C16.6838 13.0661 16.564 12.854 16.41 12.772C16.2403 12.6815 16.0405 12.6815 15.8707 12.772C15.7158 12.8561 15.5906 13.0775 15.3433 13.5233L13.6597 16.5473L13.6539 16.5577C13.4075 17.0028 13.2843 17.2252 13.2932 17.4077C13.3051 17.6073 13.4035 17.7911 13.5644 17.9003C13.7104 18 13.9607 18 14.4583 18Z" fill="#E84142"/>
</svg>