<svg xmlns="http://www.w3.org/2000/svg" viewBox="0 0 24 24" fill="none">
<rect width="24" height="24" fill="white"/>
<rect width="24" height="24" fill="#F0B90B" fill-opacity="0.15"/>
<path d="M16.2943 11.3586L16.2856 9.54683H16.2924L14.7089 8.64095L11.9955 10.1958L9.29845 8.64095L7.71595 9.54683V11.3586L10.4294 12.9059V16.008L12.0051 16.9054L13.5809 16.008V12.9059L16.2943 11.3586Z" fill="#F0B90B"/>
<path d="M11.9964 4L7.71498 6.45317L9.29073 7.35904L11.9964 5.80424L14.7099 7.35904L16.2856 6.45317L11.9964 4Z" fill="#F0B90B"/>
<path d="M6.58444 15.0945L6.57575 11.9999L5.00097 11.095V16.0088L9.29014 18.4536V16.6418L6.58444 15.0945Z" fill="#F0B90B"/>
<path d="M6.57575 10.7087V8.90535L8.15923 7.99947L6.57575 7.0936L5 7.99947V9.80278L6.57575 10.7087Z" fill="#F0B90B"/>
<path d="M11.9958 7.0936L10.4201 7.99947L11.9958 8.90535L13.5793 7.99947L11.9958 7.0936Z" fill="#F0B90B"/>
<path d="M9.29073 13.5473L7.71498 12.6414V14.4532L9.29073 15.3506V13.5473Z" fill="#F0B90B"/>
<path d="M11.9964 18.1967L10.4207 17.2908V19.0941L11.9964 20L13.5799 19.0941V17.2908L11.9964 18.1967Z" fill="#F0B90B"/>
<path d="M17.4156 7.09366L15.8398 7.99954L17.4156 8.90541V10.7087L18.999 9.80284V7.99954L17.4156 7.09366Z" fill="#F0B90B"/>
<path d="M19 11.0941L17.4242 12L17.4156 15.0946L14.7108 16.641V18.4527L19 16.008V11.0941Z" fill="#F0B90B"/>
<path d="M16.2861 14.4531L14.7104 15.3505V13.5472L16.2861 12.6413V14.4531Z" fill="#F0B90B"/>
</svg>