<svg viewBox="0 0 24 24" fill="none" xmlns="http://www.w3.org/2000/svg">
<rect width="24" height="24" fill="white"/>
<rect width="24" height="24" fill="#6B8AFF" fill-opacity="0.15"/>
<path d="M11.5668 5.57503L7.90465 11.5963C7.75965 11.8346 7.83875 12.1434 8.07989 12.2848L11.742 14.4299C11.9002 14.5229 12.0972 14.5229 12.2554 14.4299L15.9175 12.2848C16.1586 12.1434 16.2378 11.8346 16.0928 11.5963L12.4314 5.57503C12.2352 5.25233 11.7629 5.25233 11.5668 5.57503Z" fill="#6B8AFF"/>
<path d="M15.1563 14.5089C15.1563 14.4996 15.1547 14.4911 15.154 14.4826C15.1524 14.4741 15.1508 14.4656 15.1493 14.4571C15.147 14.447 15.1439 14.4378 15.1408 14.4277C15.1385 14.42 15.1361 14.413 15.1322 14.4061C15.1275 14.3953 15.1214 14.3844 15.1152 14.3743C15.112 14.3689 15.109 14.3628 15.1051 14.3573C15.0943 14.3419 15.0826 14.3264 15.0687 14.3133C15.0547 14.3002 15.04 14.2878 15.0245 14.2769C15.019 14.2731 15.0136 14.2708 15.0075 14.2669C14.9974 14.2607 14.9865 14.2545 14.9757 14.2498C14.9687 14.2468 14.961 14.2444 14.9532 14.2413C14.9439 14.2383 14.9339 14.2352 14.9238 14.2328C14.9152 14.2305 14.9067 14.229 14.8982 14.2283C14.8896 14.2267 14.8811 14.2259 14.8719 14.2259C14.8618 14.2259 14.8525 14.2252 14.8424 14.2259C14.8354 14.2259 14.8285 14.2274 14.8207 14.2283C14.8099 14.2298 14.799 14.2305 14.7881 14.2328C14.785 14.2328 14.782 14.2352 14.7789 14.2359C14.7455 14.2444 14.7137 14.2576 14.6843 14.2769L12.2741 15.6973C12.1036 15.7978 11.8928 15.7978 11.7223 15.6973L9.31215 14.2769C9.2827 14.2576 9.25093 14.2444 9.2176 14.2359C9.2145 14.2352 9.2114 14.2337 9.2083 14.2328C9.19745 14.2305 9.18661 14.2298 9.17576 14.2283C9.16878 14.2274 9.16181 14.2267 9.15406 14.2259C9.14398 14.2259 9.13468 14.2259 9.1246 14.2259C9.11608 14.2259 9.10679 14.2274 9.09826 14.2283C9.08974 14.2298 9.08121 14.2313 9.07269 14.2328C9.06261 14.2352 9.05331 14.2383 9.04324 14.2413C9.03549 14.2437 9.02851 14.2468 9.02076 14.2498C9.00991 14.2545 8.99906 14.2607 8.98899 14.2669C8.98356 14.27 8.97736 14.2731 8.97194 14.2769C8.95644 14.2878 8.94094 14.2993 8.92776 14.3133C8.91459 14.3272 8.90219 14.3419 8.89134 14.3573C8.88746 14.3628 8.88514 14.3682 8.88126 14.3743C8.87506 14.3852 8.86886 14.3953 8.86421 14.4061C8.86111 14.413 8.85879 14.4208 8.85569 14.4277C8.85259 14.4378 8.84949 14.447 8.84716 14.4571C8.84484 14.4656 8.84329 14.4741 8.84251 14.4826C8.84096 14.4911 8.84019 14.5004 8.84019 14.5089C8.84019 14.5182 8.83941 14.5283 8.84019 14.5375C8.84019 14.5453 8.84174 14.5522 8.84251 14.5599C8.84406 14.5708 8.84484 14.5816 8.84716 14.5917C8.84794 14.5963 8.84949 14.6002 8.85104 14.604C8.86034 14.6396 8.87584 14.6728 8.89831 14.7038L11.555 18.4392C11.7711 18.743 12.2237 18.743 12.44 18.4392L15.0965 14.7038C15.119 14.6728 15.1345 14.6396 15.1439 14.604C15.1446 14.6002 15.147 14.5955 15.1477 14.5917C15.15 14.5808 15.1508 14.5708 15.1524 14.5599C15.1531 14.5522 15.154 14.5453 15.1547 14.5375C15.1547 14.5283 15.1547 14.5182 15.1547 14.5089H15.1563Z" fill="#6B8AFF"/>
</svg>
