<?xml version="1.0" standalone="no"?>
<!DOCTYPE svg PUBLIC "-//W3C//DTD SVG 20010904//EN"
 "http://www.w3.org/TR/2001/REC-SVG-20010904/DTD/svg10.dtd">
<svg version="1.0" xmlns="http://www.w3.org/2000/svg"
 width="1000.000000pt" height="1000.000000pt" viewBox="0 0 1000.000000 1000.000000"
 preserveAspectRatio="xMidYMid meet">

<g transform="translate(0.000000,1000.000000) scale(0.100000,-0.100000)"
fill="#000000" stroke="none">
<path d="M0 5745 c0 -4417 -1 -4282 37 -4244 8 8 13 8 17 0 4 -6 2 -11 -3 -11
-6 0 -11 -5 -11 -11 0 -5 6 -7 12 -3 8 4 8 2 -1 -7 -10 -11 -15 -11 -18 -1 -3
6 -12 12 -20 12 -11 0 -8 -6 8 -19 15 -12 28 -16 34 -10 14 14 28 11 21 -7 -3
-8 -2 -12 4 -9 6 3 10 -1 10 -9 0 -10 6 -13 17 -9 11 5 14 3 8 -6 -6 -10 -3
-11 13 -2 13 7 23 7 27 2 3 -6 14 -8 25 -6 12 2 18 0 15 -6 -4 -5 -10 -7 -15
-4 -4 3 -10 -1 -13 -9 -7 -17 36 -41 55 -31 7 5 10 5 6 0 -13 -14 13 -35 44
-35 27 0 29 -2 17 -17 -11 -13 -11 -15 -1 -9 8 5 22 1 35 -11 21 -18 21 -18 7
2 -14 18 -14 19 2 7 9 -8 23 -10 30 -6 7 4 4 -3 -7 -15 l-19 -22 28 11 c26 9
27 9 16 -5 -10 -12 -10 -15 4 -15 9 0 16 5 16 10 0 15 49 -22 50 -36 0 -13 23
-34 42 -38 32 -7 46 -18 41 -33 -4 -10 -2 -14 5 -9 6 3 13 2 17 -4 10 -16 25
-2 18 17 -5 12 -2 12 15 -3 26 -22 28 -28 7 -20 -13 4 -14 2 -5 -14 6 -11 13
-20 16 -20 3 0 2 5 -2 11 -4 7 3 6 17 -2 13 -7 28 -12 32 -11 4 1 10 -5 13
-13 4 -8 13 -15 21 -15 9 0 13 -6 10 -14 -6 -15 13 -27 46 -31 11 -1 16 3 13
11 -3 8 0 11 9 8 17 -7 15 -24 -5 -43 -8 -7 -2 -5 14 4 16 9 25 12 22 6 -5 -7
2 -11 17 -11 29 0 74 -35 55 -43 -8 -4 -7 -6 5 -6 9 -1 17 -9 18 -18 0 -13 3
-11 10 7 8 20 12 22 19 10 13 -20 12 -33 -1 -24 -8 4 -8 0 0 -15 7 -11 20 -21
31 -21 10 0 22 -4 25 -10 4 -6 -1 -7 -12 -3 -10 3 -16 4 -13 2 3 -2 15 -13 28
-24 19 -15 22 -16 17 -2 -5 12 -1 15 13 14 12 0 18 -5 16 -9 -3 -4 0 -8 6 -8
6 0 8 -6 4 -13 -6 -9 -4 -9 7 0 7 7 20 13 28 13 11 0 10 -4 -5 -16 -10 -8 -14
-13 -7 -10 6 4 14 2 18 -4 3 -5 1 -10 -6 -10 -7 0 -10 -3 -6 -6 3 -4 19 -2 36
4 27 10 29 9 27 -12 -2 -14 5 -28 17 -35 10 -7 16 -8 13 -3 -10 16 21 22 34 7
6 -8 17 -12 25 -9 17 7 29 -12 14 -22 -8 -4 -9 -3 -5 4 4 7 2 12 -3 12 -6 0
-11 -6 -11 -12 -1 -8 -6 -6 -14 5 -8 11 -17 14 -20 8 -9 -15 24 -29 59 -25 17
2 24 1 18 -2 -19 -8 -15 -24 4 -17 12 5 14 3 8 -8 -8 -12 -6 -12 9 0 15 12 17
12 14 0 -2 -8 -7 -17 -11 -20 -5 -3 -1 -9 8 -12 9 -4 14 -3 10 3 -7 12 30 8
42 -4 5 -4 2 -6 -6 -4 -7 2 -15 -2 -18 -8 -2 -7 8 -10 29 -9 44 4 46 5 23 16
l-20 9 20 -3 c11 -2 19 -9 17 -15 -1 -7 4 -12 12 -12 8 0 23 -11 34 -24 14
-19 22 -22 31 -13 8 8 14 8 24 -2 10 -10 9 -11 -4 -6 -22 8 -32 -20 -13 -36
12 -10 13 -9 8 5 -3 9 -1 16 5 16 6 0 11 -5 11 -11 0 -6 9 -9 19 -6 15 3 18 1
14 -11 -4 -9 -2 -13 4 -9 12 8 54 -38 45 -48 -4 -4 4 -2 18 5 22 12 24 12 12
-3 -11 -13 -10 -15 7 -10 16 4 19 1 16 -16 -2 -11 0 -23 6 -26 5 -4 9 -2 9 4
0 5 20 0 45 -12 25 -12 45 -26 45 -30 0 -5 -4 -5 -10 -2 -6 3 -7 -1 -4 -10 6
-14 8 -14 19 2 8 10 17 15 21 10 4 -4 2 -7 -4 -7 -7 0 -12 -7 -12 -15 0 -18
43 -39 86 -44 6 0 16 -11 23 -24 11 -22 11 -22 7 3 -5 23 -4 24 9 7 7 -11 11
-25 9 -32 -3 -7 0 -16 6 -20 6 -3 9 -1 8 5 -2 7 5 14 15 15 11 2 19 -5 23 -21
3 -13 10 -22 14 -19 4 3 10 -1 13 -9 4 -9 14 -13 29 -9 18 4 20 3 8 -6 -9 -7
-10 -11 -3 -11 6 0 15 5 18 10 8 13 25 13 25 -1 0 -5 -6 -7 -12 -4 -7 4 -3 -2
9 -13 12 -11 19 -23 15 -28 -4 -5 0 -3 10 4 11 9 18 10 23 2 3 -5 3 -10 -1
-10 -3 0 -1 -7 6 -15 7 -9 19 -14 26 -11 15 6 37 -18 26 -29 -4 -4 4 -2 17 5
22 11 27 10 43 -10 10 -12 16 -26 13 -30 -2 -4 4 -15 15 -25 20 -18 20 -18 5
26 -11 33 -12 40 -1 27 7 -10 16 -15 20 -11 4 4 4 -1 0 -10 -5 -15 -2 -17 18
-13 17 3 25 -1 25 -10 0 -11 -3 -11 -15 -1 -13 10 -15 8 -9 -13 4 -14 7 -29 7
-33 0 -5 5 -5 10 -2 6 4 8 11 5 16 -7 10 18 13 28 2 4 -3 2 -12 -4 -20 -9 -10
-7 -13 10 -13 12 0 31 5 42 10 13 7 19 7 19 0 0 -7 1203 -10 3810 -10 l3810 0
0 5000 0 5000 -5000 0 -5000 0 0 -4255z m5359 1836 c512 -87 946 -297 1326
-640 50 -44 95 -79 102 -76 7 2 155 102 329 221 272 187 321 217 353 217 20 0
47 -6 60 -12 29 -16 61 -69 61 -102 0 -59 -34 -85 -335 -258 -478 -275 -707
-406 -965 -556 -135 -78 -384 -222 -555 -320 -307 -176 -637 -368 -705 -408
-79 -47 -1 9 441 311 254 175 464 323 466 328 5 15 -186 138 -291 189 -118 56
-243 100 -364 126 -125 26 -392 37 -526 20 -705 -89 -1273 -654 -1367 -1358
-19 -141 -6 -424 24 -553 26 -110 82 -271 123 -353 l24 -47 38 24 c21 13 177
108 348 211 170 104 1200 729 2289 1390 1089 661 1991 1208 2004 1215 14 7 47
11 82 8 47 -3 66 -10 96 -35 52 -41 78 -106 68 -168 -12 -86 -42 -106 -540
-378 -579 -315 -522 -284 -875 -477 -168 -92 -503 -275 -746 -408 -242 -132
-458 -250 -480 -263 -21 -12 -525 -287 -1119 -612 -594 -324 -1086 -595 -1092
-601 -18 -16 97 -168 217 -286 525 -518 1339 -603 1958 -206 223 143 442 380
547 591 133 268 64 419 -206 450 -203 23 -711 -96 -1131 -265 -67 -27 -124
-48 -125 -46 -5 5 3011 1740 3034 1744 43 8 80 -47 55 -84 -4 -7 -48 -39 -99
-73 -145 -97 -252 -227 -307 -373 -47 -124 -56 -199 -56 -460 0 -350 -19 -534
-80 -778 -136 -543 -443 -1020 -885 -1376 -288 -231 -677 -418 -1035 -498
-357 -79 -730 -81 -1096 -6 -642 132 -1222 524 -1596 1080 -39 58 -75 104 -80
102 -10 -3 -1173 -637 -1245 -679 -24 -14 -43 -22 -43 -19 0 3 21 18 48 33 26
15 306 184 622 376 316 192 578 351 582 354 4 2 -19 57 -51 121 -369 738 -352
1631 44 2358 229 420 594 785 1020 1021 277 153 640 267 960 302 153 16 530 6
674 -18z m-5250 -6125 c7 -8 8 -17 3 -20 -6 -3 -12 3 -15 14 -6 24 -4 25 12 6z
m95 -81 c-4 -8 -11 -12 -16 -9 -6 4 -5 10 3 15 19 12 19 11 13 -6z m300 -186
c-6 -11 -24 -2 -24 11 0 5 7 7 15 4 8 -4 12 -10 9 -15z m1309 -827 c-3 -8 -12
-10 -22 -6 -9 3 -22 7 -28 7 -30 1 -10 13 21 13 24 0 32 -4 29 -14z m160 -117
c-3 -9 -8 -14 -10 -11 -3 3 -2 9 2 15 9 16 15 13 8 -4z m135 -86 c-6 -4 -17
-5 -22 -2 -6 4 -5 8 2 11 7 2 9 9 5 15 -4 7 1 6 11 -2 13 -11 14 -16 4 -22z
m252 -133 c0 -3 -4 -8 -10 -11 -5 -3 -10 -1 -10 4 0 6 5 11 10 11 6 0 10 -2
10 -4z"/>
<path d="M403 1223 c9 -2 15 -9 12 -14 -3 -5 1 -6 9 -3 22 8 10 24 -17 23 -17
-1 -18 -2 -4 -6z"/>
<path d="M823 966 c9 -7 17 -19 17 -27 0 -12 2 -11 9 1 12 18 7 26 -21 33 -21
5 -21 5 -5 -7z"/>
<path d="M1394 601 c1 -7 11 -20 23 -28 21 -14 22 -14 10 10 -7 15 -15 21 -18
15 -5 -7 -9 -6 -11 3 -4 12 -5 12 -4 0z"/>
<path d="M1525 519 c-10 -15 3 -25 16 -12 7 7 7 13 1 17 -6 3 -14 1 -17 -5z"/>
<path d="M2178 93 c5 -21 7 -23 10 -9 2 10 0 22 -6 28 -6 6 -7 0 -4 -19z"/>
</g>
</svg>
