<svg viewBox="0 0 24 24" fill="none" xmlns="http://www.w3.org/2000/svg">
<rect width="24" height="24" fill="white"/>
<rect width="24" height="24" fill="black" fill-opacity="0.1"/>
<path d="M12.0261 19V16.6162C11.7861 16.6162 11.541 16.5954 11.301 16.5589L10.9255 18.9113C11.2906 18.9739 11.661 19 12.0261 19ZM13.1215 18.9165C13.4866 18.8592 13.8465 18.7757 14.196 18.661L13.4605 16.392C13.231 16.465 12.9911 16.5224 12.7511 16.5589L13.1215 18.9165ZM9.85618 18.661L10.5917 16.3972C10.3621 16.3241 10.1379 16.2303 9.91878 16.1207L8.83383 18.2437C9.16244 18.4054 9.50671 18.5462 9.85618 18.661ZM15.2131 18.2437C15.5417 18.0768 15.8547 17.8838 16.152 17.6699L14.7437 15.7452C14.5507 15.886 14.342 16.0164 14.123 16.1207L15.2131 18.2437ZM7.89493 17.6647L9.30328 15.7399C9.11028 15.5991 8.9225 15.4426 8.75037 15.2705L7.06036 16.9553C7.32116 17.2109 7.60283 17.4508 7.89493 17.6647ZM16.9814 16.9657L16.997 16.9501C17.2578 16.6945 17.4978 16.4128 17.7116 16.1207L15.7817 14.7176C15.6408 14.9106 15.4791 15.0984 15.3122 15.2653L15.2861 15.2914L16.0999 16.0581L16.9814 16.9657ZM6.34575 16.1155L8.27571 14.7124C8.13487 14.5194 8.00447 14.3107 7.89493 14.0969L5.76677 15.1766C5.93368 15.5052 6.12668 15.8182 6.34575 16.1155ZM18.2854 15.1818C18.4523 14.8584 18.5931 14.5142 18.7079 14.1647L16.4337 13.4344C16.3607 13.6639 16.2668 13.8882 16.1572 14.1021L18.2854 15.1818ZM5.34426 14.1647L7.61848 13.4292C7.54545 13.1997 7.48808 12.965 7.45157 12.725L5.08867 13.0954C5.14605 13.4553 5.23472 13.8152 5.34426 14.1647ZM18.9635 13.1006C19.0209 12.7407 19.0522 12.3703 19.0522 12.0052H16.6632C16.6632 12.2452 16.6423 12.4903 16.6058 12.7303L18.9635 13.1006ZM7.39419 12C7.39419 11.7601 7.41505 11.5149 7.45157 11.275L5.08867 10.9046C5.0313 11.2645 5.00522 11.6349 5 12H7.39419ZM16.6058 11.2802L18.9687 10.9098C18.9113 10.5499 18.8279 10.19 18.7131 9.84054L16.4389 10.5708C16.5119 10.8055 16.5693 11.0402 16.6058 11.2802ZM7.61848 10.5708C7.69151 10.3413 7.7854 10.117 7.89493 9.90313L5.76677 8.8234C5.59985 9.1468 5.45902 9.49106 5.34426 9.84054L7.61848 10.5708ZM16.1624 9.90835L18.2958 8.82861C18.1289 8.5 17.9359 8.18703 17.7168 7.88972L15.7817 9.29285C15.9225 9.48584 16.0529 9.69449 16.1624 9.90835ZM8.27571 9.28763C8.41654 9.09464 8.57824 8.90686 8.75037 8.73472L8.75559 8.72951L7.06557 7.04471L7.06036 7.04993C6.79955 7.31073 6.55961 7.58718 6.34575 7.8845L8.27571 9.28763ZM15.3122 8.74516L15.8234 8.22876L16.997 7.06036L16.9918 7.05514C16.731 6.79955 16.4545 6.55961 16.1624 6.34575L14.7541 8.27049C14.9471 8.41133 15.1349 8.56781 15.3018 8.73994L15.3122 8.74516ZM9.3085 8.26006C9.50149 8.11923 9.71013 7.99404 9.92921 7.8845L8.84426 5.76155C8.51565 5.92846 8.20268 6.12146 7.90536 6.33532L9.3085 8.26006ZM14.1386 7.88972L15.2288 5.76677C14.9001 5.59985 14.5611 5.45902 14.2116 5.34426L13.4709 7.60805C13.6952 7.68629 13.9195 7.78018 14.1386 7.88972ZM10.6021 7.60805C10.8316 7.53502 11.0715 7.47765 11.3115 7.44113L10.9411 5.08867C10.5812 5.14605 10.2161 5.22951 9.86662 5.34426L10.6021 7.60805ZM12.7563 7.44113L13.1319 5.08867C12.772 5.0313 12.4016 5 12.0365 5V7.38376C12.2765 7.38376 12.5216 7.40462 12.7563 7.44113Z" fill="black"/>
<path d="M12.0305 16.7262V14.332C11.827 14.332 11.6288 14.3059 11.4306 14.2537L10.8047 16.5645C11.2063 16.6688 11.6184 16.7262 12.0305 16.7262ZM13.2563 16.5645C13.6579 16.4602 14.0387 16.3037 14.3986 16.095L13.1884 14.0242C13.0163 14.1233 12.8285 14.2016 12.6355 14.2537L13.2563 16.5645ZM9.66758 16.095L10.8777 14.0242C10.7056 13.9251 10.5439 13.7999 10.3978 13.6591L10.377 13.6382L9.61542 14.4363L8.67652 15.3387L8.69217 15.3543C8.98427 15.6412 9.31288 15.8916 9.66758 16.095ZM15.374 15.3543C15.6661 15.0622 15.9217 14.7388 16.1251 14.3841L14.0335 13.1844C13.9343 13.3566 13.8092 13.5131 13.6631 13.6591L15.374 15.3543ZM7.93584 14.3789L10.0275 13.1844C9.92838 13.0123 9.85014 12.8297 9.79798 12.6368L7.46639 13.2523C7.57071 13.6435 7.73241 14.0242 7.93584 14.3789ZM16.5998 13.2575C16.7041 12.861 16.7615 12.4542 16.7615 12.0473H14.3464C14.3464 12.2455 14.3203 12.449 14.2682 12.642L16.5998 13.2575ZM9.72496 12.0421C9.72496 11.8439 9.75104 11.6405 9.8032 11.4475L7.46639 10.832C7.36206 11.2284 7.30469 11.6353 7.30469 12.0421H9.72496ZM14.263 11.4527L16.5998 10.8372C16.4954 10.4408 16.3337 10.06 16.1303 9.70531L14.0387 10.8998C14.1326 11.0771 14.2108 11.2597 14.263 11.4527ZM10.0327 10.8998C10.1318 10.7329 10.2518 10.5712 10.3978 10.4303L10.403 10.4251L9.53718 9.56969L8.70782 8.71947L8.69217 8.73511C8.40007 9.022 8.14969 9.35061 7.94105 9.70009L10.0327 10.8998ZM13.6631 10.4303L14.5185 9.58012L15.3949 8.75598L15.374 8.73511C15.0819 8.44301 14.7533 8.19786 14.3986 7.98921L13.1884 10.06C13.3606 10.1591 13.5171 10.2791 13.6631 10.4199V10.4303ZM10.8777 10.06C11.0498 9.9609 11.2376 9.88266 11.4306 9.83049L10.8151 7.51976C10.4135 7.62409 10.0327 7.78057 9.6728 7.98921L10.8777 10.06ZM12.6303 9.83571L13.2563 7.52498C12.8598 7.42066 12.4478 7.36328 12.0357 7.36328V9.75747C12.2339 9.75747 12.4373 9.78355 12.6303 9.83571Z" fill="black"/>
</svg>
