<svg xmlns="http://www.w3.org/2000/svg" viewBox="0 0 24 24" fill="none">
<rect width="24" height="24" fill="white"/>
<rect width="24" height="24" fill="#FF0420" fill-opacity="0.15"/>
<path fill-rule="evenodd" clip-rule="evenodd" d="M4.87972 15.3748C5.54893 15.8113 6.34889 16.0296 7.15984 15.9968C8.28268 15.9968 9.17846 15.7487 9.84867 15.2527C10.5194 14.7492 10.991 13.9903 11.2635 12.9761C11.4271 12.3541 11.5674 11.7137 11.6841 11.0547C11.7191 10.8602 11.7385 10.6635 11.7425 10.4662C11.7565 9.99223 11.6138 9.52606 11.3338 9.13338C11.0564 8.75226 10.6656 8.4584 10.2115 8.28931C9.69996 8.09018 9.15101 7.99193 8.59807 8.00052C6.39181 8.00052 5.02394 9.01859 4.49396 11.0547C4.30682 11.8017 4.16259 12.4421 4.06129 12.9761C4.02586 13.1743 4.00639 13.3747 4.0029 13.5757C3.98444 13.9207 4.0543 14.2648 4.20701 14.5782C4.35972 14.8917 4.59077 15.1651 4.87972 15.3748ZM8.43489 14.031C8.12398 14.2778 7.72874 14.4081 7.32352 14.3975C6.57546 14.3975 6.20118 14.0569 6.20118 13.3758C6.20068 13.2882 6.20567 13.2007 6.21515 13.1138C6.22264 13.0452 6.23362 12.977 6.24759 12.9093C6.38782 12.1911 6.52805 11.584 6.66878 11.088C6.75711 10.6579 6.98617 10.2653 7.32352 9.96628C7.63942 9.72053 8.03765 9.59052 8.44587 9.59982C9.18644 9.59966 9.55673 9.93651 9.55673 10.6104C9.55673 10.7706 9.54126 10.9305 9.50982 11.088C9.4165 11.6065 9.28026 12.2136 9.10111 12.9093C9.01178 13.3416 8.77823 13.7351 8.43489 14.031Z" fill="#FF0420"/>
<path fill-rule="evenodd" clip-rule="evenodd" d="M12.1727 15.8686C12.2071 15.882 12.2441 15.8879 12.2815 15.8859L13.8719 15.8861C13.9109 15.8855 13.9493 15.8789 13.9852 15.8668C14.0246 15.8536 14.0616 15.834 14.094 15.8084C14.1619 15.7596 14.2078 15.6881 14.2218 15.6085L14.7597 13.1763H16.3382C17.3592 13.1763 18.1622 12.9727 18.7466 12.5654C19.3769 12.1 19.7986 11.4256 19.9278 10.6773C19.9732 10.4878 19.9967 10.2941 19.9982 10.0998C20.0121 9.80913 19.9458 9.52007 19.8065 9.26103C19.6673 9.002 19.4592 8.78194 19.2027 8.62253C18.5794 8.25572 17.8538 8.07756 17.1212 8.11169H14.0112C13.9513 8.11253 13.8934 8.12749 13.842 8.15477C13.8235 8.16468 13.8056 8.17624 13.7886 8.18933C13.7212 8.23815 13.6753 8.30965 13.6608 8.38931L12.0474 15.6082C12.031 15.6767 12.0435 15.7485 12.0824 15.8082C12.1028 15.8297 12.1273 15.8474 12.1542 15.8605L12.1727 15.8686ZM17.2744 11.3879C17.0269 11.5599 16.727 11.6497 16.4205 11.6432H15.0761L15.5203 9.6554H16.9236C17.1646 9.63288 17.4067 9.69618 17.6018 9.83304C17.6701 9.89568 17.724 9.97194 17.7585 10.0564C17.7924 10.1409 17.8069 10.2315 17.8004 10.3218C17.7989 10.4336 17.7869 10.5451 17.7655 10.655C17.7036 10.949 17.5284 11.2105 17.2744 11.3879Z" fill="#FF0420"/>
</svg>