<svg xmlns="http://www.w3.org/2000/svg" width="16" height="16" viewBox="0 0 16 16" fill="none">
  <path d="M8.00001 3.99999C8.3682 3.99999 8.66668 3.70151 8.66668 3.33332C8.66668 2.96513 8.3682 2.66666 8.00001 2.66666C7.63182 2.66666 7.33334 2.96513 7.33334 3.33332C7.33334 3.70151 7.63182 3.99999 8.00001 3.99999Z" stroke="#8585A9" stroke-width="1.5" stroke-linecap="round" stroke-linejoin="round"/>
  <path d="M12.6667 3.99999C13.0349 3.99999 13.3333 3.70151 13.3333 3.33332C13.3333 2.96513 13.0349 2.66666 12.6667 2.66666C12.2985 2.66666 12 2.96513 12 3.33332C12 3.70151 12.2985 3.99999 12.6667 3.99999Z" stroke="#8585A9" stroke-width="1.5" stroke-linecap="round" stroke-linejoin="round"/>
  <path d="M3.33332 3.99999C3.70151 3.99999 3.99999 3.70151 3.99999 3.33332C3.99999 2.96513 3.70151 2.66666 3.33332 2.66666C2.96513 2.66666 2.66666 2.96513 2.66666 3.33332C2.66666 3.70151 2.96513 3.99999 3.33332 3.99999Z" stroke="#8585A9" stroke-width="1.5" stroke-linecap="round" stroke-linejoin="round"/>
  <path d="M8.00001 8.66668C8.3682 8.66668 8.66668 8.3682 8.66668 8.00001C8.66668 7.63182 8.3682 7.33334 8.00001 7.33334C7.63182 7.33334 7.33334 7.63182 7.33334 8.00001C7.33334 8.3682 7.63182 8.66668 8.00001 8.66668Z" stroke="#8585A9" stroke-width="1.5" stroke-linecap="round" stroke-linejoin="round"/>
  <path d="M12.6667 8.66668C13.0349 8.66668 13.3333 8.3682 13.3333 8.00001C13.3333 7.63182 13.0349 7.33334 12.6667 7.33334C12.2985 7.33334 12 7.63182 12 8.00001C12 8.3682 12.2985 8.66668 12.6667 8.66668Z" stroke="#8585A9" stroke-width="1.5" stroke-linecap="round" stroke-linejoin="round"/>
  <path d="M3.33332 8.66668C3.70151 8.66668 3.99999 8.3682 3.99999 8.00001C3.99999 7.63182 3.70151 7.33334 3.33332 7.33334C2.96513 7.33334 2.66666 7.63182 2.66666 8.00001C2.66666 8.3682 2.96513 8.66668 3.33332 8.66668Z" stroke="#8585A9" stroke-width="1.5" stroke-linecap="round" stroke-linejoin="round"/>
  <path d="M8.00001 13.3333C8.3682 13.3333 8.66668 13.0349 8.66668 12.6667C8.66668 12.2985 8.3682 12 8.00001 12C7.63182 12 7.33334 12.2985 7.33334 12.6667C7.33334 13.0349 7.63182 13.3333 8.00001 13.3333Z" stroke="#8585A9" stroke-width="1.5" stroke-linecap="round" stroke-linejoin="round"/>
  <path d="M12.6667 13.3333C13.0349 13.3333 13.3333 13.0349 13.3333 12.6667C13.3333 12.2985 13.0349 12 12.6667 12C12.2985 12 12 12.2985 12 12.6667C12 13.0349 12.2985 13.3333 12.6667 13.3333Z" stroke="#8585A9" stroke-width="1.5" stroke-linecap="round" stroke-linejoin="round"/>
  <path d="M3.33332 13.3333C3.70151 13.3333 3.99999 13.0349 3.99999 12.6667C3.99999 12.2985 3.70151 12 3.33332 12C2.96513 12 2.66666 12.2985 2.66666 12.6667C2.66666 13.0349 2.96513 13.3333 3.33332 13.3333Z" stroke="#8585A9" stroke-width="1.5" stroke-linecap="round" stroke-linejoin="round"/>
</svg>