<svg width="32" height="33" viewBox="0 0 32 33" fill="none" xmlns="http://www.w3.org/2000/svg">
<path d="M21.588 3.1665H10.4146C5.5613 3.1665 2.66797 6.05984 2.66797 10.9132V22.0732C2.66797 26.9398 5.5613 29.8332 10.4146 29.8332H21.5746C26.428 29.8332 29.3213 26.9398 29.3213 22.0865V10.9132C29.3346 6.05984 26.4413 3.1665 21.588 3.1665ZM14.5746 23.3665C14.5746 23.4998 14.548 23.6198 14.4946 23.7532C14.388 23.9932 14.2013 24.1932 13.948 24.2998C13.828 24.3532 13.6946 24.3798 13.5613 24.3798C13.428 24.3798 13.308 24.3532 13.1746 24.2998C13.0546 24.2465 12.948 24.1798 12.8546 24.0865L8.8013 20.0332C8.41464 19.6465 8.41464 19.0065 8.8013 18.6198C9.18797 18.2332 9.82797 18.2332 10.2146 18.6198L12.5613 20.9665V9.63317C12.5613 9.0865 13.0146 8.63317 13.5613 8.63317C14.108 8.63317 14.5613 9.0865 14.5613 9.63317V23.3665H14.5746ZM23.188 14.3932C22.988 14.5932 22.7346 14.6865 22.4813 14.6865C22.228 14.6865 21.9746 14.5932 21.7746 14.3932L19.428 12.0465V23.3798C19.428 23.9265 18.9746 24.3798 18.428 24.3798C17.8813 24.3798 17.428 23.9265 17.428 23.3798V9.63317C17.428 9.49984 17.4546 9.37984 17.508 9.2465C17.6146 9.0065 17.8013 8.8065 18.0546 8.69984C18.2946 8.59317 18.5746 8.59317 18.8146 8.69984C18.9346 8.75317 19.0413 8.81984 19.1346 8.91317L23.188 12.9665C23.5746 13.3665 23.5746 13.9932 23.188 14.3932Z" fill="#6160FF"/>
</svg>
