<svg width="66" height="66" viewBox="0 0 66 66" fill="none" xmlns="http://www.w3.org/2000/svg">
<rect width="66" height="66" rx="33" fill="white" fill-opacity="0.04"/>
<path fill-rule="evenodd" clip-rule="evenodd" d="M41.5012 25.5005C41.9569 25.0449 42.4485 24.4642 41.9929 24.0086C41.5373 23.553 40.9569 24.0448 40.5012 24.5004L33.0012 32.0005L25.5013 24.5005C25.0456 24.0449 24.4653 23.5531 24.0096 24.0087C23.554 24.4643 24.0457 25.0449 24.5013 25.5005L32.0012 33.0005L24.5012 40.5005C24.0456 40.9561 23.554 41.5363 24.0096 41.9919C24.4653 42.4475 25.0456 41.9561 25.5013 41.5005L33.0012 34.0005L40.5013 41.5005C40.9569 41.9562 41.5373 42.4475 41.9929 41.9919C42.4485 41.5363 41.9569 40.9562 41.5013 40.5005L34.0012 33.0005L41.5012 25.5005Z" fill="white"/>
</svg>
