<svg xmlns="http://www.w3.org/2000/svg" width="16" height="16" viewBox="0 0 16 16" fill="none">
  <rect width="16" height="16" rx="4" fill="white"/>
  <rect width="16" height="16" rx="4" fill="#F0B90B" fill-opacity="0.15"/>
  <path d="M10.8635 7.57222L10.8577 6.36439H10.8622L9.80658 5.76047L7.99763 6.79701L6.19962 5.76047L5.14462 6.36439V7.57222L6.95356 8.60375V10.6718L8.00407 11.2701L9.05457 10.6718V8.60375L10.8635 7.57222Z" fill="#F0B90B"/>
  <path d="M7.99828 2.6665L5.14397 4.30195L6.19447 4.90586L7.99828 3.86933L9.80722 4.90586L10.8577 4.30195L7.99828 2.6665Z" fill="#F0B90B"/>
  <path d="M4.39028 10.0629L4.38449 7.9998L3.33463 7.39651V10.6724L6.19408 12.3022V11.0944L4.39028 10.0629Z" fill="#F0B90B"/>
  <path d="M4.38449 7.13894V5.93674L5.44014 5.33282L4.38449 4.72891L3.33398 5.33282V6.53502L4.38449 7.13894Z" fill="#F0B90B"/>
  <path d="M7.99788 4.72891L6.94738 5.33282L7.99788 5.93674L9.05353 5.33282L7.99788 4.72891Z" fill="#F0B90B"/>
  <path d="M6.19447 9.03137L5.14397 8.42746V9.63529L6.19447 10.2336V9.03137Z" fill="#F0B90B"/>
  <path d="M7.99828 12.131L6.94777 11.5271V12.7293L7.99828 13.3332L9.05392 12.7293V11.5271L7.99828 12.131Z" fill="#F0B90B"/>
  <path d="M11.611 4.72895L10.5605 5.33286L11.611 5.93678V7.13898L12.6667 6.53507V5.33286L11.611 4.72895Z" fill="#F0B90B"/>
  <path d="M12.6673 7.39593L11.6168 7.99984L11.611 10.0629L9.80787 11.0938V12.3016L12.6673 10.6718V7.39593Z" fill="#F0B90B"/>
  <path d="M10.8581 9.6352L9.80757 10.2335V9.03129L10.8581 8.42738V9.6352Z" fill="#F0B90B"/>
</svg>