<svg width="24" height="24" viewBox="0 0 24 24" fill="none" xmlns="http://www.w3.org/2000/svg">
<path d="M22 8.49747C22 11.7575 19.6 14.4475 16.48 14.9175V14.8575C16.17 10.9775 13.02 7.82747 9.11002 7.51747H9.08002C9.55002 4.39747 12.24 1.99747 15.5 1.99747C19.09 1.99747 22 4.90747 22 8.49747Z" fill="#6160FF" fill-opacity="0.5"/>
<path d="M14.98 14.9775C14.73 11.8075 12.19 9.26747 9.02 9.01747C8.85 9.00747 8.67 8.99747 8.5 8.99747C4.91 8.99747 2 11.9075 2 15.4975C2 19.0875 4.91 21.9975 8.5 21.9975C12.09 21.9975 15 19.0875 15 15.4975C15 15.3275 14.99 15.1475 14.98 14.9775ZM9.38 16.3775L8.5 17.9975L7.62 16.3775L6 15.4975L7.62 14.6175L8.5 12.9975L9.38 14.6175L11 15.4975L9.38 16.3775Z" fill="#6160FF" fill-opacity="0.5"/>
</svg>
