<svg viewBox="0 0 16 16" fill="none" xmlns="http://www.w3.org/2000/svg">
<g clip-path="url(#clip0_779_19801)">
<path d="M7.99999 4.66683C8.92047 4.66683 9.66666 3.92064 9.66666 3.00016C9.66666 2.07969 8.92047 1.3335 7.99999 1.3335C7.07952 1.3335 6.33333 2.07969 6.33333 3.00016C6.33333 3.92064 7.07952 4.66683 7.99999 4.66683Z" stroke="#8585A9" stroke-width="1.5" stroke-linecap="round" stroke-linejoin="round"/>
<path d="M6.8 4.2002L4.2 6.80019" stroke="#8585A9" stroke-width="1.5" stroke-linecap="round" stroke-linejoin="round"/>
<path d="M2.99999 9.66683C3.92047 9.66683 4.66666 8.92064 4.66666 8.00016C4.66666 7.07969 3.92047 6.3335 2.99999 6.3335C2.07952 6.3335 1.33333 7.07969 1.33333 8.00016C1.33333 8.92064 2.07952 9.66683 2.99999 9.66683Z" stroke="#8585A9" stroke-width="1.5" stroke-linecap="round" stroke-linejoin="round"/>
<path d="M4.66667 8H11.3333" stroke="#8585A9" stroke-width="1.5" stroke-linecap="round" stroke-linejoin="round"/>
<path d="M13 9.66683C13.9205 9.66683 14.6667 8.92064 14.6667 8.00016C14.6667 7.07969 13.9205 6.3335 13 6.3335C12.0795 6.3335 11.3333 7.07969 11.3333 8.00016C11.3333 8.92064 12.0795 9.66683 13 9.66683Z" stroke="#8585A9" stroke-width="1.5" stroke-linecap="round" stroke-linejoin="round"/>
<path d="M9.2 11.8002L11.8 9.2002" stroke="#8585A9" stroke-width="1.5" stroke-linecap="round" stroke-linejoin="round"/>
<path d="M7.99999 14.6668C8.92047 14.6668 9.66666 13.9206 9.66666 13.0002C9.66666 12.0797 8.92047 11.3335 7.99999 11.3335C7.07952 11.3335 6.33333 12.0797 6.33333 13.0002C6.33333 13.9206 7.07952 14.6668 7.99999 14.6668Z" stroke="#8585A9" stroke-width="1.5" stroke-linecap="round" stroke-linejoin="round"/>
</g>
<defs>
<clipPath id="clip0_779_19801">
<rect width="16" height="16" fill="white"/>
</clipPath>
</defs>
</svg>
