<svg xmlns="http://www.w3.org/2000/svg" width="300" height="56" viewBox="0 0 300 56" fill="none">
<path opacity="0.7" d="M-13.8751 -8L-86 64.1249M8.24979 -8L-63.8751 64.1249M30.3747 -8L-41.7502 64.1249M52.4996 -8L-19.6253 64.1249M74.6245 -8L2.49957 64.1249M96.7494 -8L24.6245 64.1249M118.874 -8L46.7494 64.1249M140.999 -8L68.8743 64.1249M163.124 -8L90.9991 64.1249M185.249 -8L113.124 64.1249M207.374 -8L135.249 64.1249M229.499 -8L157.374 64.1249M251.624 -8L179.499 64.1249M273.748 -8L201.624 64.1249M295.873 -8L223.748 64.1249M317.998 -8L245.873 64.1249M340.123 -8L267.998 64.1249M362.248 -8L290.123 64.1249M384.373 -8L312.248 64.1249" stroke="#E6E8F0"/>
</svg>