<svg xmlns="http://www.w3.org/2000/svg" width="17" height="16" viewBox="0 0 17 16" fill="none">
  <g clip-path="url(#clip0_21_2901)">
    <path d="M3.06667 5.74657C2.96936 5.30825 2.9843 4.85246 3.1101 4.42146C3.23591 3.99046 3.4685 3.5982 3.78631 3.28105C4.10413 2.9639 4.49687 2.73213 4.92814 2.60723C5.3594 2.48233 5.81522 2.46835 6.25333 2.56657C6.49447 2.18944 6.82667 1.87907 7.2193 1.66409C7.61193 1.44911 8.05236 1.33643 8.5 1.33643C8.94763 1.33643 9.38807 1.44911 9.7807 1.66409C10.1733 1.87907 10.5055 2.18944 10.7467 2.56657C11.1854 2.46792 11.642 2.48184 12.074 2.60704C12.5059 2.73225 12.8992 2.96466 13.2172 3.28267C13.5352 3.60068 13.7677 3.99395 13.8929 4.4259C14.0181 4.85786 14.032 5.31446 13.9333 5.75324C14.3105 5.99437 14.6208 6.32657 14.8358 6.7192C15.0508 7.11183 15.1635 7.55227 15.1635 7.9999C15.1635 8.44754 15.0508 8.88797 14.8358 9.2806C14.6208 9.67323 14.3105 10.0054 13.9333 10.2466C14.0316 10.6847 14.0176 11.1405 13.8927 11.5718C13.7678 12.003 13.536 12.3958 13.2189 12.7136C12.9017 13.0314 12.5094 13.264 12.0784 13.3898C11.6474 13.5156 11.1916 13.5305 10.7533 13.4332C10.5125 13.8118 10.1801 14.1235 9.78675 14.3394C9.39345 14.5554 8.95202 14.6686 8.50333 14.6686C8.05465 14.6686 7.61322 14.5554 7.21991 14.3394C6.82661 14.1235 6.49416 13.8118 6.25333 13.4332C5.81522 13.5315 5.3594 13.5175 4.92814 13.3926C4.49687 13.2677 4.10413 13.0359 3.78631 12.7188C3.4685 12.4016 3.23591 12.0093 3.1101 11.5783C2.9843 11.1473 2.96936 10.6916 3.06667 10.2532C2.68664 10.0127 2.37361 9.68002 2.1567 9.28605C1.93979 8.89207 1.82604 8.44964 1.82604 7.9999C1.82604 7.55016 1.93979 7.10773 2.1567 6.71376C2.37361 6.31979 2.68664 5.98707 3.06667 5.74657Z" fill="white" stroke="white" stroke-width="2" stroke-linecap="round" stroke-linejoin="round"/>
    <path d="M8.5 5.3335V10.6668" stroke="#6160FF" stroke-width="2" stroke-linecap="round" stroke-linejoin="round"/>
    <path d="M5.83333 8H11.1667" stroke="#6160FF" stroke-width="2" stroke-linecap="round" stroke-linejoin="round"/>
  </g>
  <defs>
    <clipPath id="clip0_21_2901">
      <rect width="16" height="16" fill="white" transform="translate(0.5)"/>
    </clipPath>
  </defs>
</svg> 