<svg viewBox="0 0 24 24" fill="none" xmlns="http://www.w3.org/2000/svg">
<path opacity="0.4" d="M10.7528 2.44982C11.4428 1.85982 12.5728 1.85982 13.2728 2.44982L14.8528 3.80982C15.1528 4.06982 15.7128 4.27982 16.1128 4.27982H17.8128C18.8728 4.27982 19.7428 5.14982 19.7428 6.20982V7.90982C19.7428 8.29982 19.9528 8.86982 20.2128 9.16982L21.5728 10.7498C22.1628 11.4398 22.1628 12.5698 21.5728 13.2698L20.2128 14.8498C19.9528 15.1498 19.7428 15.7098 19.7428 16.1098V17.8098C19.7428 18.8698 18.8728 19.7398 17.8128 19.7398H16.1128C15.7228 19.7398 15.1528 19.9498 14.8528 20.2098L13.2728 21.5698C12.5828 22.1598 11.4528 22.1598 10.7528 21.5698L9.17281 20.2098C8.87281 19.9498 8.31281 19.7398 7.91281 19.7398H6.18281C5.12281 19.7398 4.25281 18.8698 4.25281 17.8098V16.0998C4.25281 15.7098 4.04281 15.1498 3.79281 14.8498L2.44281 13.2598C1.86281 12.5698 1.86281 11.4498 2.44281 10.7598L3.79281 9.16982C4.04281 8.86982 4.25281 8.30982 4.25281 7.91982V6.19982C4.25281 5.13982 5.12281 4.26982 6.18281 4.26982H7.91281C8.30281 4.26982 8.87281 4.05982 9.17281 3.79982L10.7528 2.44982Z" fill="#79DEC2"/>
<path d="M10.7925 15.1698C10.5925 15.1698 10.4025 15.0898 10.2625 14.9498L7.8425 12.5298C7.5525 12.2398 7.5525 11.7598 7.8425 11.4698C8.1325 11.1798 8.6125 11.1798 8.9025 11.4698L10.7925 13.3598L15.0925 9.05979C15.3825 8.76979 15.8625 8.76979 16.1525 9.05979C16.4425 9.34979 16.4425 9.82978 16.1525 10.1198L11.3225 14.9498C11.1825 15.0898 10.9925 15.1698 10.7925 15.1698Z" fill="#79DEC2"/>
</svg>
