<svg width="32" height="32" viewBox="0 0 32 32" fill="none" xmlns="http://www.w3.org/2000/svg">
<path d="M19.7987 5.26673V10.3334H17.7987V5.26673C17.7987 4.90673 17.4787 4.7334 17.2654 4.7334C17.1987 4.7334 17.132 4.74673 17.0654 4.7734L6.49203 8.76007C5.78536 9.02673 5.33203 9.6934 5.33203 10.4534V11.3467C4.1187 12.2534 3.33203 13.7067 3.33203 15.3467V10.4534C3.33203 8.86673 4.30536 7.4534 5.78536 6.8934L16.372 2.8934C16.6654 2.78673 16.972 2.7334 17.2654 2.7334C18.5987 2.7334 19.7987 3.8134 19.7987 5.26673Z" fill="#6160FF" />
<path d="M28.6663 19.3332V20.6665C28.6663 21.0265 28.3863 21.3198 28.0129 21.3332H26.0663C25.3596 21.3332 24.7196 20.8132 24.6663 20.1198C24.6263 19.7065 24.7863 19.3198 25.0529 19.0532C25.2929 18.7998 25.6263 18.6665 25.9863 18.6665H27.9996C28.3863 18.6798 28.6663 18.9732 28.6663 19.3332Z" fill="#6160FF" />
<path d="M25.972 17.2668H27.332C28.0654 17.2668 28.6654 16.6668 28.6654 15.9335V15.3468C28.6654 12.5868 26.412 10.3335 23.652 10.3335H8.34537C7.21203 10.3335 6.17203 10.7068 5.33203 11.3468C4.1187 12.2535 3.33203 13.7068 3.33203 15.3468V17.7202C3.33203 18.2268 3.86536 18.5468 4.34536 18.3868C5.09203 18.1335 5.8787 18.0002 6.66536 18.0002C10.7054 18.0002 13.9987 21.2935 13.9987 25.3335C13.9987 26.2935 13.7454 27.3468 13.3454 28.2802C13.132 28.7602 13.4654 29.3335 13.9854 29.3335H23.652C26.412 29.3335 28.6654 27.0802 28.6654 24.3202V24.0668C28.6654 23.3335 28.0654 22.7335 27.332 22.7335H26.172C24.892 22.7335 23.6654 21.9468 23.332 20.7068C23.0654 19.6935 23.3854 18.7068 24.052 18.0668C24.5454 17.5602 25.2254 17.2668 25.972 17.2668ZM18.6654 17.0002H11.9987C11.452 17.0002 10.9987 16.5468 10.9987 16.0002C10.9987 15.4535 11.452 15.0002 11.9987 15.0002H18.6654C19.212 15.0002 19.6654 15.4535 19.6654 16.0002C19.6654 16.5468 19.212 17.0002 18.6654 17.0002Z" fill="#6160FF" />
<path d="M6.875 20C4.18273 20 2 22.1827 2 24.875C2 27.5673 4.18273 29.75 6.875 29.75C9.56727 29.75 11.75 27.5673 11.75 24.875C11.75 22.1827 9.56727 20 6.875 20ZM9.125 25.625H6.875C6.77554 25.625 6.68016 25.5855 6.60984 25.5152C6.53951 25.4448 6.5 25.3495 6.5 25.25V21.875C6.5 21.7755 6.53951 21.6802 6.60984 21.6098C6.68016 21.5395 6.77554 21.5 6.875 21.5C6.97446 21.5 7.06984 21.5395 7.14017 21.6098C7.21049 21.6802 7.25 21.7755 7.25 21.875V24.875H9.125C9.22446 24.875 9.31984 24.9145 9.39017 24.9848C9.46049 25.0552 9.5 25.1505 9.5 25.25C9.5 25.3495 9.46049 25.4448 9.39017 25.5152C9.31984 25.5855 9.22446 25.625 9.125 25.625Z" fill="#6160FF" />
</svg>
