<svg xmlns="http://www.w3.org/2000/svg" viewBox="0 0 17 16" fill="none">
  <path d="M3.16667 9.33377C3.04051 9.3342 2.91682 9.29882 2.80997 9.23175C2.70312 9.16468 2.61749 9.06867 2.56303 8.95487C2.50858 8.84107 2.48753 8.71416 2.50233 8.58887C2.51714 8.46359 2.56719 8.34507 2.64667 8.2471L9.24667 1.4471C9.29618 1.38996 9.36364 1.35134 9.43799 1.33759C9.51234 1.32384 9.58915 1.33578 9.65582 1.37144C9.72249 1.4071 9.77506 1.46437 9.80489 1.53384C9.83472 1.60331 9.84005 1.68087 9.82 1.75377L8.54 5.7671C8.50226 5.86812 8.48958 5.97678 8.50306 6.08377C8.51654 6.19076 8.55577 6.29289 8.61739 6.38139C8.67901 6.46988 8.76118 6.54211 8.85685 6.59187C8.95252 6.64164 9.05883 6.66745 9.16667 6.6671H13.8333C13.9595 6.66667 14.0832 6.70205 14.19 6.76912C14.2969 6.83619 14.3825 6.9322 14.437 7.046C14.4914 7.1598 14.5125 7.28671 14.4977 7.412C14.4829 7.53728 14.4328 7.6558 14.3533 7.75377L7.75333 14.5538C7.70383 14.6109 7.63636 14.6495 7.56201 14.6633C7.48766 14.677 7.41085 14.6651 7.34418 14.6294C7.27751 14.5938 7.22494 14.5365 7.19511 14.467C7.16528 14.3976 7.15995 14.32 7.18 14.2471L8.46 10.2338C8.49774 10.1328 8.51042 10.0241 8.49694 9.9171C8.48346 9.81011 8.44423 9.70798 8.38261 9.61948C8.32099 9.53099 8.23882 9.45876 8.14315 9.40899C8.04748 9.35923 7.94117 9.33342 7.83333 9.33377H3.16667Z" fill="#79DEC2" stroke="#79DEC2" stroke-width="2" stroke-linecap="round" stroke-linejoin="round"/>
</svg>