<svg width="67" height="25" viewBox="0 0 67 25" fill="none" xmlns="http://www.w3.org/2000/svg">
<path d="M21.3851 17.8279C21.3851 14.8907 21.0581 13.4221 20.4041 13.4221C19.8155 13.4221 18.9653 14.276 17.8536 15.9836C16.8072 17.6913 15.6628 19.3989 14.4202 21.1066C13.1776 22.8825 12.0332 23.7705 10.9868 23.7705C10.3982 23.7705 9.48267 22.6776 8.24012 20.4918C7.06296 18.306 5.755 16.1544 4.31625 14.0369C2.8775 11.8511 1.60225 10.7582 0.490483 10.7582C0.163494 10.7582 0 10.5874 0 10.2459C0 9.15301 1.24256 7.17213 3.72767 4.30328C6.21279 1.43443 7.97853 0 9.02489 0C10.1367 0 11.7389 1.77596 13.8316 5.32787C15.9898 8.87978 17.4285 10.6557 18.1479 10.6557C18.8673 10.6557 20.306 9.25547 22.4641 6.45492C24.6877 3.65437 26.4207 2.2541 27.6632 2.2541C28.9712 2.2541 29.9195 2.80055 30.5081 3.89344C31.162 4.91803 31.5217 6.04508 31.5871 7.27459C31.7179 8.5041 31.8487 9.6653 31.9795 10.7582C32.1103 11.7828 32.3719 12.2951 32.7643 12.2951C33.4183 12.2951 35.0859 10.6216 37.7672 7.27459C40.5139 3.85929 42.5085 2.15164 43.7511 2.15164C45.1245 2.15164 47.4134 4.30328 50.6179 8.60656C51.795 10.2459 53.2665 11.7486 55.0322 13.1148C56.8633 14.4126 58.3675 15.0615 59.5447 15.0615C60.7218 15.0615 61.8663 14.8566 62.978 14.4467C64.0898 14.0369 65.0381 13.832 65.8228 13.832C66.6076 13.832 67 14.1052 67 14.6516C67 14.9249 66.8692 15.1639 66.6076 15.3689C66.4114 15.5738 65.8555 16.1202 64.94 17.0082C64.0898 17.8279 63.3704 18.4768 62.7818 18.9549C62.2587 19.4331 61.4739 20.082 60.4275 20.9016C59.4466 21.7896 58.5964 22.4727 57.877 22.9508C55.9151 24.1803 54.0512 24.7951 52.2855 24.7951C50.5852 24.7951 48.6559 23.7705 46.4978 21.7213C44.4051 19.7404 42.5739 17.7596 41.0044 15.7787C39.5002 13.7295 38.3885 12.7049 37.6691 12.7049C36.9497 12.7049 35.7726 13.7295 34.1376 15.7787C32.5681 17.8279 30.9331 19.8771 29.2328 21.9262C27.5979 23.9754 26.1591 25 24.9165 25C23.7394 25 22.8238 24.4194 22.1698 23.2582C21.5813 22.097 21.287 20.8333 21.287 19.4672L21.3851 17.8279Z" fill="#323949"/>
</svg>
