<svg width="32" height="32" viewBox="0 0 32 32" fill="none" xmlns="http://www.w3.org/2000/svg">
<rect width="32" height="32" rx="8" fill="#79DEC2" fill-opacity="0.15"/>
<path d="M9.33203 15.9998C9.33203 16.8839 9.68322 17.7317 10.3083 18.3569C10.9335 18.982 11.7813 19.3332 12.6654 19.3332C13.8972 19.3791 15.0751 19.8502 15.9987 20.6665C16.9223 19.8502 18.1002 19.3791 19.332 19.3332C20.2161 19.3332 21.0639 18.982 21.6891 18.3569C22.3142 17.7317 22.6654 16.8839 22.6654 15.9998V12.6665H19.332C18.1002 12.7124 16.9223 13.1835 15.9987 13.9998C15.0751 13.1835 13.8972 12.7124 12.6654 12.6665H9.33203V15.9998Z" stroke="#1BC697" stroke-width="1.5" stroke-linecap="round" stroke-linejoin="round"/>
<path d="M12 15.3335C13 15.3335 14 15.6668 14 16.6668C12.6667 16.6668 12 16.6668 12 15.3335Z" stroke="#1BC697" stroke-width="1.5" stroke-linecap="round" stroke-linejoin="round"/>
<path d="M20 15.3335C19 15.3335 18 15.6668 18 16.6668C19.3333 16.6668 20 16.6668 20 15.3335Z" stroke="#1BC697" stroke-width="1.5" stroke-linecap="round" stroke-linejoin="round"/>
</svg>
