<svg width="24" height="24" viewBox="0 0 24 24" fill="none" xmlns="http://www.w3.org/2000/svg">
<path d="M5.88875 20.2001L20.2345 4.84427C20.5612 4.4945 20.54 3.93144 20.1876 3.60222C19.8352 3.27301 19.272 3.29005 18.9452 3.63982L4.5995 18.9956C4.27274 19.3454 4.29399 19.9084 4.64638 20.2377C4.99878 20.5669 5.56198 20.5498 5.88875 20.2001Z" fill="white"/>
<path d="M18.9433 20.2001L4.59755 4.84427C4.27079 4.4945 4.29204 3.93144 4.64444 3.60222C4.99683 3.27301 5.56004 3.29005 5.8868 3.63982L20.2325 18.9956C20.5593 19.3454 20.538 19.9084 20.1856 20.2377C19.8333 20.5669 19.27 20.5498 18.9433 20.2001Z" fill="white"/>
</svg>
