<svg viewBox="0 0 48 48" fill="none" xmlns="http://www.w3.org/2000/svg">
<path d="M34.5902 31.3271H27.5902C27.1119 31.3271 26.7152 30.9305 26.7152 30.4521C26.7152 29.9738 27.1119 29.5771 27.5902 29.5771H34.5902C35.0685 29.5771 35.4652 29.9738 35.4652 30.4521C35.4652 30.9305 35.0685 31.3271 34.5902 31.3271Z" fill="#6160FF"/>
<path d="M29.2499 26.9165L25.7499 30.4165L29.2499 33.9165" stroke="#6160FF" stroke-width="1.4" stroke-linecap="round"/>
<path d="M35.6666 19.9397V14.643C35.6666 12.998 34.9199 12.333 33.0649 12.333H28.3516C26.4966 12.333 25.7499 12.998 25.7499 14.643V19.928C25.7499 21.5847 26.4966 22.238 28.3516 22.238H33.0649C34.9199 22.2497 35.6666 21.5847 35.6666 19.9397Z" fill="#6160FF"/>
<path d="M22.2502 19.9397V14.643C22.2502 12.998 21.5035 12.333 19.6485 12.333H14.9352C13.0802 12.333 12.3335 12.998 12.3335 14.643V19.928C12.3335 21.5847 13.0802 22.238 14.9352 22.238H19.6485C21.5035 22.2497 22.2502 21.5847 22.2502 19.9397Z" fill="#6160FF"/>
<path d="M22.2502 33.065V28.3517C22.2502 26.4967 21.5035 25.75 19.6485 25.75H14.9352C13.0802 25.75 12.3335 26.4967 12.3335 28.3517V33.065C12.3335 34.92 13.0802 35.6667 14.9352 35.6667H19.6485C21.5035 35.6667 22.2502 34.92 22.2502 33.065Z" fill="#6160FF"/>
</svg>
