<svg width="48" height="48" viewBox="0 0 48 48" fill="none" xmlns="http://www.w3.org/2000/svg">
<path d="M32.7964 33.631L28.0895 28.4499C27.7678 28.0958 27.7947 27.5355 28.1487 27.2139C28.5028 26.8922 29.0631 26.9191 29.3848 27.2731L34.0917 32.4543C34.4134 32.8083 34.3865 33.3687 34.0325 33.6903C33.6784 34.012 33.1181 33.9851 32.7964 33.631Z" fill="#6160FF"/>
<path d="M32.7964 27.273L28.0895 32.4542C27.7678 32.8082 27.7947 33.3685 28.1487 33.6902C28.5028 34.0118 29.0631 33.985 29.3848 33.6309L34.0917 28.4498C34.4134 28.0957 34.3865 27.5354 34.0325 27.2137C33.6784 26.8921 33.1181 26.919 32.7964 27.273Z" fill="#6160FF"/>
<path d="M35.6667 19.9399V14.6433C35.6667 12.9983 34.92 12.3333 33.065 12.3333H28.3517C26.4967 12.3333 25.75 12.9983 25.75 14.6433V19.9283C25.75 21.5849 26.4967 22.2383 28.3517 22.2383H33.065C34.92 22.2499 35.6667 21.5849 35.6667 19.9399Z" fill="#6160FF"/>
<path d="M22.2502 19.9399V14.6433C22.2502 12.9983 21.5035 12.3333 19.6485 12.3333H14.9352C13.0802 12.3333 12.3335 12.9983 12.3335 14.6433V19.9283C12.3335 21.5849 13.0802 22.2383 14.9352 22.2383H19.6485C21.5035 22.2499 22.2502 21.5849 22.2502 19.9399Z" fill="#6160FF"/>
<path d="M22.2502 33.065V28.3517C22.2502 26.4967 21.5035 25.75 19.6485 25.75H14.9352C13.0802 25.75 12.3335 26.4967 12.3335 28.3517V33.065C12.3335 34.92 13.0802 35.6667 14.9352 35.6667H19.6485C21.5035 35.6667 22.2502 34.92 22.2502 33.065Z" fill="#6160FF"/>
</svg>
