<svg viewBox="0 0 48 48" fill="none" xmlns="http://www.w3.org/2000/svg">
<path d="M35.999 29.666H27.999C27.4524 29.666 26.999 29.2127 26.999 28.666C26.999 28.1193 27.4524 27.666 27.999 27.666H35.999C36.5457 27.666 36.999 28.1193 36.999 28.666C36.999 29.2127 36.5457 29.666 35.999 29.666Z" fill="#6160FF"/>
<path d="M35.999 34.9995H27.999C27.4524 34.9995 26.999 34.5462 26.999 33.9995C26.999 33.4528 27.4524 32.9995 27.999 32.9995H35.999C36.5457 32.9995 36.999 33.4528 36.999 33.9995C36.999 34.5462 36.5457 34.9995 35.999 34.9995Z" fill="#6160FF"/>
<path d="M37.3324 19.3594V13.306C37.3324 11.426 36.479 10.666 34.359 10.666H28.9724C26.8524 10.666 25.999 11.426 25.999 13.306V19.346C25.999 21.2393 26.8524 21.986 28.9724 21.986H34.359C36.479 21.9993 37.3324 21.2393 37.3324 19.3594Z" fill="#6160FF"/>
<path d="M21.9993 19.3593V13.306C21.9993 11.426 21.146 10.666 19.026 10.666H13.6393C11.5193 10.666 10.666 11.426 10.666 13.306V19.346C10.666 21.2393 11.5193 21.986 13.6393 21.986H19.026C21.146 21.9993 21.9993 21.2393 21.9993 19.3593Z" fill="#6160FF"/>
<path d="M21.9993 34.3595V28.9728C21.9993 26.8528 21.146 25.9995 19.026 25.9995H13.6393C11.5193 25.9995 10.666 26.8528 10.666 28.9728V34.3595C10.666 36.4795 11.5193 37.3328 13.6393 37.3328H19.026C21.146 37.3328 21.9993 36.4795 21.9993 34.3595Z" fill="#6160FF"/>
</svg>
