<svg xmlns="http://www.w3.org/2000/svg" width="16" height="16" viewBox="0 0 16 16" fill="none">
<path d="M7.99998 8.66659C8.36817 8.66659 8.66665 8.36811 8.66665 7.99992C8.66665 7.63173 8.36817 7.33325 7.99998 7.33325C7.63179 7.33325 7.33331 7.63173 7.33331 7.99992C7.33331 8.36811 7.63179 8.66659 7.99998 8.66659Z" stroke="#8585A9" stroke-width="1.5" stroke-linecap="round" stroke-linejoin="round"/>
<path d="M7.99998 4.00008C8.36817 4.00008 8.66665 3.7016 8.66665 3.33341C8.66665 2.96522 8.36817 2.66675 7.99998 2.66675C7.63179 2.66675 7.33331 2.96522 7.33331 3.33341C7.33331 3.7016 7.63179 4.00008 7.99998 4.00008Z" stroke="#8585A9" stroke-width="1.5" stroke-linecap="round" stroke-linejoin="round"/>
<path d="M7.99998 13.3333C8.36817 13.3333 8.66665 13.0349 8.66665 12.6667C8.66665 12.2985 8.36817 12 7.99998 12C7.63179 12 7.33331 12.2985 7.33331 12.6667C7.33331 13.0349 7.63179 13.3333 7.99998 13.3333Z" stroke="#8585A9" stroke-width="1.5" stroke-linecap="round" stroke-linejoin="round"/>
</svg>