<svg xmlns="http://www.w3.org/2000/svg" width="16" height="16" viewBox="0 0 16 16" fill="none">
  <path d="M7.99935 8.33317C8.18342 8.33317 8.33268 8.1839 8.33268 7.99984C8.33268 7.81577 8.18342 7.6665 7.99935 7.6665C7.81528 7.6665 7.66602 7.81577 7.66602 7.99984C7.66602 8.1839 7.81528 8.33317 7.99935 8.33317Z" fill="var(--text-1100)" stroke="var(--text-1100)" stroke-width="1.5" stroke-linecap="round" stroke-linejoin="round"/>
  <path d="M7.99935 13.6667C8.18342 13.6667 8.33268 13.5174 8.33268 13.3333C8.33268 13.1493 8.18342 13 7.99935 13C7.81528 13 7.66602 13.1493 7.66602 13.3333C7.66602 13.5174 7.81528 13.6667 7.99935 13.6667Z" fill="var(--text-1100)" stroke="var(--text-1100)" stroke-width="1.5" stroke-linecap="round" stroke-linejoin="round"/>
  <path d="M7.99935 3.00016C8.18342 3.00016 8.33268 2.85092 8.33268 2.66683C8.33268 2.48274 8.18342 2.3335 7.99935 2.3335C7.81528 2.3335 7.66602 2.48274 7.66602 2.66683C7.66602 2.85092 7.81528 3.00016 7.99935 3.00016Z" fill="var(--text-1100)" stroke="var(--text-1100)" stroke-width="1.5" stroke-linecap="round" stroke-linejoin="round"/>
</svg>