<svg xmlns="http://www.w3.org/2000/svg" width="24" height="24" viewBox="0 0 24 24" fill="none">
<g clip-path="url(#clip0_2424_29377)">
<path d="M13.6509 2.13494C12.5591 1.95241 11.4447 1.95241 10.3529 2.13494C10.0169 2.59094 9.6889 3.17994 9.3899 3.89894C9.1079 4.57494 8.8599 5.34494 8.6539 6.18994C9.7239 6.06594 10.8469 5.99994 12.0019 5.99994C13.1569 5.99994 14.2799 6.06594 15.3499 6.18994C15.1642 5.40883 14.9185 4.64323 14.6149 3.89994C14.3149 3.17994 13.9869 2.58994 13.6509 2.13494ZM15.7439 8.25794C14.5041 8.0853 13.2537 7.99909 12.0019 7.99994C10.6839 7.99994 9.4259 8.09194 8.2599 8.25794C8.08726 9.49779 8.00105 10.7481 8.0019 11.9999C8.0019 13.3179 8.0939 14.5759 8.2599 15.7419C9.4259 15.9079 10.6839 15.9999 12.0019 15.9999C13.3199 15.9999 14.5779 15.9089 15.7439 15.7419C15.9099 14.5759 16.0019 13.3179 16.0019 11.9999C16.0019 10.6819 15.9109 9.42394 15.7439 8.25794ZM17.8119 15.3479C17.9359 14.2779 18.0019 13.1549 18.0019 11.9999C18.0019 10.8449 17.9359 9.72194 17.8119 8.65194C18.593 8.83798 19.3586 9.08404 20.1019 9.38794C20.8219 9.68794 21.4119 10.0149 21.8669 10.3509C22.0494 11.4427 22.0494 12.5572 21.8669 13.6489C21.4119 13.9849 20.8219 14.3129 20.1029 14.6129C19.4269 14.8939 18.6569 15.1429 17.8119 15.3479ZM15.3499 17.8099C14.2799 17.9339 13.1569 17.9999 12.0019 17.9999C10.8469 17.9999 9.7239 17.9339 8.6539 17.8099C8.8599 18.6549 9.1079 19.4249 9.3899 20.0999C9.6899 20.8199 10.0169 21.4099 10.3529 21.8649C11.4447 22.0475 12.5591 22.0475 13.6509 21.8649C13.9869 21.4099 14.3149 20.8199 14.6149 20.1009C14.8959 19.4249 15.1449 18.6549 15.3499 17.8099ZM16.4159 20.9759L16.4609 20.8699C16.8759 19.8739 17.2189 18.7269 17.4749 17.4729C18.5023 17.2692 19.511 16.9809 20.4909 16.6109L20.9779 16.4139C20.0005 18.3951 18.397 19.9986 16.4159 20.9759ZM7.5879 20.9759L7.5429 20.8699C7.1279 19.8739 6.7849 18.7269 6.5289 17.4729C5.50152 17.2692 4.49275 16.9809 3.5129 16.6109L3.0259 16.4139C4.00326 18.3951 5.60675 19.9986 7.5879 20.9759ZM6.1919 15.3479C6.06404 14.2365 6.0006 13.1187 6.0019 11.9999C6.0019 10.8449 6.0679 9.72194 6.1919 8.65194C5.3469 8.85794 4.5769 9.10594 3.9019 9.38794C3.1819 9.68794 2.5919 10.0149 2.1369 10.3509C1.95437 11.4427 1.95437 12.5572 2.1369 13.6489C2.5929 13.9849 3.1819 14.3129 3.9009 14.6129C4.5769 14.8939 5.3469 15.1429 6.1919 15.3479ZM6.5289 6.52794C6.73283 5.49986 7.02148 4.49042 7.3919 3.50994L7.5889 3.02294C5.60775 4.00031 4.00426 5.6038 3.0269 7.58494L3.1329 7.53994C4.1289 7.12494 5.2759 6.78194 6.5299 6.52594M17.4759 6.52594C17.2722 5.49823 16.9839 4.48912 16.6139 3.50894L16.4169 3.02194C18.398 3.99931 20.0015 5.6028 20.9789 7.58394L20.8729 7.53894C19.8769 7.12394 18.7299 6.78194 17.4759 6.52594Z" fill="#9998B8"/>
</g>
<defs>
<clipPath id="clip0_2424_29377">
<rect width="24" height="24" fill="white"/>
</clipPath>
</defs>
</svg>