<svg width="32" height="32" viewBox="0 0 32 32" fill="none" xmlns="http://www.w3.org/2000/svg">
<path d="M21.588 2.6665H10.4146C5.5613 2.6665 2.66797 5.55984 2.66797 10.4132V21.5732C2.66797 26.4398 5.5613 29.3332 10.4146 29.3332H21.5746C26.428 29.3332 29.3213 26.4398 29.3213 21.5865V10.4132C29.3346 5.55984 26.4413 2.6665 21.588 2.6665ZM11.2946 14.6398C11.6813 14.2532 12.3213 14.2532 12.708 14.6398L15.0013 16.9332V8.67984C15.0013 8.13317 15.4546 7.67984 16.0013 7.67984C16.548 7.67984 17.0013 8.13317 17.0013 8.67984V16.9332L19.2946 14.6398C19.6813 14.2532 20.3213 14.2532 20.708 14.6398C21.0946 15.0265 21.0946 15.6665 20.708 16.0532L16.708 20.0532C16.6146 20.1465 16.508 20.2132 16.388 20.2665C16.268 20.3198 16.1346 20.3465 16.0013 20.3465C15.868 20.3465 15.748 20.3198 15.6146 20.2665C15.4946 20.2132 15.388 20.1465 15.2946 20.0532L11.2946 16.0532C10.908 15.6665 10.908 15.0398 11.2946 14.6398ZM24.3213 22.9598C21.6413 23.8532 18.828 24.3065 16.0013 24.3065C13.1746 24.3065 10.3613 23.8532 7.6813 22.9598C7.1613 22.7865 6.8813 22.2132 7.05464 21.6932C7.22797 21.1732 7.78797 20.8798 8.3213 21.0665C13.2813 22.7198 18.7346 22.7198 23.6946 21.0665C24.2146 20.8932 24.788 21.1732 24.9613 21.6932C25.1213 22.2265 24.8413 22.7865 24.3213 22.9598Z" fill="#6160FF" />
</svg>
