<svg xmlns="http://www.w3.org/2000/svg" width="18" height="19" viewBox="0 0 18 19" fill="none">
<path d="M13.8825 6.6876C14.2575 6.6876 14.5575 6.3876 14.5575 6.0126V2.5251C14.5575 2.1501 14.2575 1.8501 13.8825 1.8501C13.5075 1.8501 13.2075 2.1501 13.2075 2.5251V6.0126C13.2075 6.3801 13.515 6.6876 13.8825 6.6876Z" fill="#9998B8"/>
<path d="M9.0002 12.3125C8.6252 12.3125 8.3252 12.6125 8.3252 12.9875V16.475C8.3252 16.85 8.6252 17.15 9.0002 17.15C9.3752 17.15 9.67519 16.85 9.67519 16.475V12.9875C9.67519 12.62 9.3752 12.3125 9.0002 12.3125Z" fill="#9998B8"/>
<path d="M4.11738 6.6876C4.49238 6.6876 4.79238 6.3876 4.79238 6.0126V2.5251C4.79238 2.1501 4.49238 1.8501 4.11738 1.8501C3.74238 1.8501 3.44238 2.1501 3.44238 2.5251V6.0126C3.44238 6.3801 3.74238 6.6876 4.11738 6.6876Z" fill="#9998B8"/>
<path d="M5.51236 8.12744H2.72236C2.34736 8.12744 2.04736 8.42744 2.04736 8.80244C2.04736 9.17744 2.34736 9.47744 2.72236 9.47744H3.44236V16.4749C3.44236 16.8499 3.74236 17.1499 4.11736 17.1499C4.49236 17.1499 4.79236 16.8499 4.79236 16.4749V9.47744H5.51236C5.88736 9.47744 6.18736 9.17744 6.18736 8.80244C6.18736 8.42744 5.87986 8.12744 5.51236 8.12744Z" fill="#9998B8"/>
<path d="M15.2775 8.12744H12.4875C12.1125 8.12744 11.8125 8.42744 11.8125 8.80244C11.8125 9.17744 12.1125 9.47744 12.4875 9.47744H13.2075V16.4749C13.2075 16.8499 13.5075 17.1499 13.8825 17.1499C14.2575 17.1499 14.5575 16.8499 14.5575 16.4749V9.47744H15.2775C15.6525 9.47744 15.9525 9.17744 15.9525 8.80244C15.9525 8.42744 15.6525 8.12744 15.2775 8.12744Z" fill="#9998B8"/>
<path d="M10.3952 9.5226H9.67518V2.5251C9.67518 2.1501 9.37518 1.8501 9.00018 1.8501C8.62518 1.8501 8.32518 2.1501 8.32518 2.5251V9.5226H7.60518C7.23018 9.5226 6.93018 9.8226 6.93018 10.1976C6.93018 10.5726 7.23018 10.8726 7.60518 10.8726H10.3952C10.7702 10.8726 11.0702 10.5726 11.0702 10.1976C11.0702 9.8226 10.7702 9.5226 10.3952 9.5226Z" fill="#9998B8"/>
</svg>