<svg width="18" height="22" viewBox="0 0 18 22" fill="none" xmlns="http://www.w3.org/2000/svg">
<path d="M12.9675 7.10247L12.915 9.94497C12.9075 10.335 13.155 10.8525 13.47 11.085L15.33 12.495C16.5225 13.395 16.3275 14.4975 14.9025 14.9475L12.48 15.705C12.075 15.8325 11.6475 16.275 11.5425 16.6875L10.965 18.8925C10.5075 20.6325 9.36749 20.805 8.42249 19.275L7.10249 17.1375C6.86249 16.7475 6.29249 16.455 5.84249 16.4775L3.33749 16.605C1.54499 16.695 1.03499 15.66 2.20499 14.295L3.68999 12.57C3.96749 12.2475 4.09499 11.6475 3.96749 11.2425L3.20249 8.81247C2.75999 7.38747 3.55499 6.59997 4.97249 7.06497L7.18499 7.79247C7.55999 7.91247 8.12249 7.82997 8.43749 7.59747L10.7475 5.93247C12 5.03997 12.9975 5.56497 12.9675 7.10247Z" fill="#6160FF" fill-opacity="0.5"/>
<path d="M16.08 19.35L13.8075 17.0775C13.59 16.86 13.23 16.86 13.0125 17.0775C12.795 17.295 12.795 17.655 13.0125 17.8725L15.285 20.145C15.3975 20.2575 15.54 20.31 15.6825 20.31C15.825 20.31 15.9675 20.2575 16.08 20.145C16.2975 19.9275 16.2975 19.5675 16.08 19.35Z" fill="#6160FF" fill-opacity="0.5"/>
</svg>
