<svg xmlns="http://www.w3.org/2000/svg" width="16" height="16" viewBox="0 0 16 16" fill="none">
<path d="M12.3221 11.178C11.4109 11.3968 10.4596 11.3862 9.55347 11.1472C8.64735 10.9081 7.81466 10.4481 7.12997 9.80825C6.44528 9.16841 5.92996 8.36875 5.63015 7.48088C5.33035 6.593 5.25542 5.64464 5.41208 4.7207C5.38861 4.7441 5.36343 4.76572 5.33674 4.78537C5.15008 4.92737 4.91674 4.98004 4.45008 5.08537L4.02674 5.18137C2.38674 5.5527 1.56674 5.73804 1.37141 6.36537C1.17674 6.99204 1.73541 7.64604 2.85341 8.95337L3.14274 9.29137C3.46008 9.6627 3.61941 9.8487 3.69074 10.078C3.76208 10.308 3.73808 10.556 3.69008 11.0514L3.64608 11.5027C3.47741 13.2474 3.39274 14.1194 3.90341 14.5067C4.41408 14.894 5.18208 14.5414 6.71674 13.834L7.11474 13.6514C7.55074 13.45 7.76874 13.35 8.00008 13.35C8.23141 13.35 8.44941 13.45 8.88608 13.6514L9.28274 13.834C10.8181 14.5407 11.5861 14.894 12.0961 14.5074C12.6074 14.1194 12.5227 13.2474 12.3541 11.5027L12.3221 11.178Z" fill="#6160FF"/>
<path d="M6.10204 3.60501L5.88338 3.99701C5.64338 4.42767 5.52338 4.64301 5.33671 4.78501C5.36338 4.76501 5.38849 4.74345 5.41204 4.72034C5.25535 5.64435 5.33027 6.59279 5.63011 7.48073C5.92995 8.36867 6.44533 9.16838 7.13011 9.80824C7.81489 10.4481 8.64768 10.9081 9.55389 11.1471C10.4601 11.3861 11.4114 11.3966 12.3227 11.1777L12.3094 11.051C12.262 10.5557 12.238 10.3077 12.3094 10.0777C12.3807 9.84834 12.5394 9.66234 12.8574 9.29101L13.1467 8.95301C14.2647 7.64634 14.8234 6.99234 14.628 6.36501C14.4334 5.73767 13.6134 5.55167 11.9734 5.18101L11.5494 5.08501C11.0834 4.97967 10.85 4.92701 10.6627 4.78501C10.476 4.64301 10.356 4.42767 10.116 3.99701L9.89804 3.60501C9.05338 2.09034 8.63138 1.33301 8.00004 1.33301C7.36871 1.33301 6.94671 2.09034 6.10204 3.60501Z" fill="#6160FF" fill-opacity="0.5"/>
</svg>