<svg xmlns="http://www.w3.org/2000/svg" width="40" height="40" viewBox="0 0 40 40" fill="none">
  <path d="M29.8009 10.1999L6.55088 33.4499C5.83422 34.1666 4.63422 34.0999 4.05088 33.2832C3.21755 32.1332 3.05091 30.5332 3.91757 29.1499L8.51756 21.7666C9.13423 20.7832 9.13423 19.1832 8.51756 18.1999L3.91757 10.8166C2.36757 8.3499 4.15089 5.1499 7.05089 5.1499H26.1342C27.2675 5.1499 28.6676 5.93324 29.2676 6.88324L30.0509 8.11657C30.4342 8.7999 30.3509 9.6499 29.8009 10.1999Z" fill="#9998B8"/>
  <path opacity="0.4" d="M36.0504 21.85L27.4171 33.35C26.8171 34.1667 25.4838 34.8333 24.4504 34.8333H12.5171C11.0338 34.8333 10.2838 33.0333 11.3338 31.9833L30.5171 12.8C31.2671 12.05 32.5504 12.1833 33.1171 13.1L36.2004 18.05C36.8838 19.1167 36.8171 20.8333 36.0504 21.85Z" fill="#9998B8"/>
</svg>