<svg width="56" height="56" viewBox="0 0 56 56" fill="none" xmlns="http://www.w3.org/2000/svg">
<path d="M40.09 12.8752C40.09 12.8752 43.6785 11.476 43.3794 14.8742C43.2797 16.2735 42.3826 21.1709 41.6848 26.4682L39.2925 42.1601C39.2925 42.1601 39.0932 44.4589 37.2989 44.8587C35.5046 45.2584 32.8133 43.4594 32.3148 43.0596C31.9161 42.7598 24.8388 38.2621 22.3467 36.0632C21.649 35.4635 20.8515 34.2641 22.4464 32.8649L32.9129 22.8701C34.1091 21.6707 35.3053 18.8722 30.3212 22.2704L16.3659 31.7655C16.3659 31.7655 14.771 32.7649 11.7806 31.8654L5.30134 29.8664C5.30134 29.8664 2.90899 28.3672 6.99591 26.8679C16.964 22.1704 29.2248 17.3729 40.09 12.8752Z" fill="#323949" fill-opacity="0.9"/>
</svg>
