<svg xmlns="http://www.w3.org/2000/svg" width="16" height="16" viewBox="0 0 16 16" fill="none">
<rect x="0.5" y="0.5" width="15" height="15" rx="7.5" stroke="#9998B8"/>
<mask id="mask0_4861_57930" style="mask-type:luminance" maskUnits="userSpaceOnUse" x="1" y="1" width="14" height="14">
<path d="M15 1H1V15H15V1Z" fill="white"/>
</mask>
<g mask="url(#mask0_4861_57930)">
<path d="M9.96543 4.52836C9.44024 4.0582 8.74706 3.80078 8.01183 3.80078C7.2766 3.80078 6.58337 4.05999 6.05818 4.52836C5.51204 5.01635 5.21094 5.67243 5.21094 6.37497V6.51084C5.21094 6.58951 5.27394 6.65384 5.35097 6.65384H6.19124C6.26827 6.65384 6.33128 6.58951 6.33128 6.51084V6.37497C6.33128 5.58661 7.08576 4.94485 8.01183 4.94485C8.93785 4.94485 9.69233 5.58661 9.69233 6.37497C9.69233 6.93094 9.30723 7.44042 8.71028 7.67458C8.33916 7.81936 8.02407 8.07323 7.79825 8.40572C7.56895 8.74537 7.44987 9.15297 7.44987 9.5659V9.95022C7.44987 10.0289 7.51292 10.0933 7.58995 10.0933H8.43018C8.50721 10.0933 8.57025 10.0289 8.57025 9.95022V9.54445C8.57112 9.37089 8.62323 9.20169 8.71974 9.05882C8.8162 8.91596 8.95262 8.80611 9.11116 8.74359C10.144 8.33778 10.8109 7.40821 10.8109 6.37497C10.8127 5.67243 10.5116 5.01635 9.96543 4.52836ZM7.31158 11.9524C7.31158 12.142 7.38539 12.3239 7.51671 12.458C7.64802 12.5921 7.82609 12.6674 8.01183 12.6674C8.19752 12.6674 8.37563 12.5921 8.50695 12.458C8.63826 12.3239 8.71203 12.142 8.71203 11.9524C8.71203 11.7627 8.63826 11.5809 8.50695 11.4468C8.37563 11.3127 8.19752 11.2373 8.01183 11.2373C7.82609 11.2373 7.64802 11.3127 7.51671 11.4468C7.38539 11.5809 7.31158 11.7627 7.31158 11.9524Z" fill="#9998B8"/>
</g>
</svg>