<svg xmlns="http://www.w3.org/2000/svg" width="16" height="16" viewBox="0 0 16 16" fill="none">
  <path d="M9.33333 2.7334L8 4.00007" stroke="#8585A9" stroke-width="1.5" stroke-linecap="round" stroke-linejoin="round"/>
  <path d="M3.40001 5.33314L1.46667 4.7998" stroke="#8585A9" stroke-width="1.5" stroke-linecap="round" stroke-linejoin="round"/>
  <path d="M4 8L2.73334 9.33333" stroke="#8585A9" stroke-width="1.5" stroke-linecap="round" stroke-linejoin="round"/>
  <path d="M4.79999 1.4668L5.33332 3.40013" stroke="#8585A9" stroke-width="1.5" stroke-linecap="round" stroke-linejoin="round"/>
  <path d="M6.02466 6.45977C5.9988 6.39888 5.99174 6.33164 6.00436 6.2667C6.01698 6.20176 6.04872 6.14207 6.0955 6.09529C6.14228 6.04851 6.20197 6.01677 6.26692 6.00415C6.33186 5.99152 6.39909 5.99859 6.45999 6.02444L13.7933 9.02444C13.8586 9.05122 13.9137 9.09801 13.9507 9.15808C13.9876 9.21816 14.0046 9.28841 13.9991 9.35875C13.9936 9.42908 13.966 9.49586 13.9201 9.54947C13.8743 9.60309 13.8126 9.64077 13.744 9.65711L10.8447 10.3511C10.725 10.3797 10.6155 10.4409 10.5285 10.5278C10.4414 10.6148 10.3801 10.7241 10.3513 10.8438L9.65799 13.7438C9.64183 13.8126 9.60419 13.8746 9.5505 13.9206C9.49682 13.9667 9.42987 13.9945 9.35936 14C9.28884 14.0054 9.2184 13.9884 9.15823 13.9512C9.09806 13.914 9.05128 13.8586 9.02466 13.7931L6.02466 6.45977Z" stroke="#8585A9" stroke-width="1.5" stroke-linecap="round" stroke-linejoin="round"/>
</svg>