<svg xmlns="http://www.w3.org/2000/svg" width="20" height="20" viewBox="0 0 20 20" fill="none">
<rect width="20" height="20" rx="10" fill="#9998B8" fill-opacity="0.5"/>
<mask id="mask0_2581_34694" style="mask-type:luminance" maskUnits="userSpaceOnUse" x="4" y="4" width="12" height="12">
<path d="M15.1725 4.82764H4.82764V15.1725H15.1725V4.82764Z" fill="white"/>
</mask>
<g mask="url(#mask0_2581_34694)">
<path d="M12.1657 5.99294C11.5836 5.46269 10.8153 5.17236 10.0004 5.17236C9.18552 5.17236 8.41716 5.4647 7.83506 5.99294C7.22974 6.54331 6.896 7.28325 6.896 8.07558V8.22882C6.896 8.31754 6.96583 8.3901 7.0512 8.3901H7.98254C8.06792 8.3901 8.13775 8.31754 8.13775 8.22882V8.07558C8.13775 7.18645 8.974 6.46267 10.0004 6.46267C11.0268 6.46267 11.8631 7.18645 11.8631 8.07558C11.8631 8.70262 11.4362 9.27722 10.7746 9.54131C10.3632 9.70459 10.014 9.99092 9.76371 10.3659C9.50955 10.749 9.37757 11.2087 9.37757 11.6744V12.1078C9.37757 12.1965 9.44745 12.2691 9.53283 12.2691H10.4641C10.5495 12.2691 10.6194 12.1965 10.6194 12.1078V11.6502C10.6203 11.4544 10.6781 11.2636 10.7851 11.1025C10.892 10.9414 11.0432 10.8175 11.2189 10.747C12.3636 10.2893 13.1029 9.24089 13.1029 8.07558C13.1048 7.28325 12.7711 6.54331 12.1657 5.99294ZM9.2243 14.3659C9.2243 14.5798 9.3061 14.7849 9.45165 14.9362C9.5972 15.0874 9.79457 15.1724 10.0004 15.1724C10.2062 15.1724 10.4037 15.0874 10.5492 14.9362C10.6948 14.7849 10.7765 14.5798 10.7765 14.3659C10.7765 14.152 10.6948 13.9469 10.5492 13.7956C10.4037 13.6444 10.2062 13.5595 10.0004 13.5595C9.79457 13.5595 9.5972 13.6444 9.45165 13.7956C9.3061 13.9469 9.2243 14.152 9.2243 14.3659Z" fill="white"/>
</g>
</svg>