<svg width="24" height="24" viewBox="0 0 24 24" fill="none" xmlns="http://www.w3.org/2000/svg">
<rect width="24" height="24" rx="6" fill="#6160FF"/>
<g clip-path="url(#clip0_6954_22111)">
<path d="M16 10H11C10.4477 10 10 10.4477 10 11V16C10 16.5523 10.4477 17 11 17H16C16.5523 17 17 16.5523 17 16V11C17 10.4477 16.5523 10 16 10Z" stroke="white" stroke-width="1.5" stroke-linecap="round" stroke-linejoin="round"/>
<path d="M8 14C7.45 14 7 13.55 7 13V8C7 7.45 7.45 7 8 7H13C13.55 7 14 7.45 14 8" stroke="white" stroke-width="1.5" stroke-linecap="round" stroke-linejoin="round"/>
</g>
<defs>
<clipPath id="clip0_6954_22111">
<rect width="12" height="12" fill="white" transform="translate(6 6)"/>
</clipPath>
</defs>
</svg>
