<svg width="22" height="23" viewBox="0 0 22 23" fill="none" xmlns="http://www.w3.org/2000/svg">
<path fill-rule="evenodd" clip-rule="evenodd" d="M4.58333 6.22852C3.91477 6.22852 3.27358 6.4941 2.80084 6.96685C2.32809 7.4396 2.0625 8.08078 2.0625 8.74935V16.9993C2.0625 17.6679 2.32809 18.3091 2.80084 18.7818C3.27358 19.2546 3.91477 19.5202 4.58333 19.5202H17.4167C18.0852 19.5202 18.7264 19.2546 19.1992 18.7818C19.6719 18.3091 19.9375 17.6679 19.9375 16.9993V8.74935C19.9375 8.08078 19.6719 7.4396 19.1992 6.96685C18.7264 6.4941 18.0852 6.22852 17.4167 6.22852H4.58333ZM15.125 11.7285C14.8211 11.7285 14.5297 11.8492 14.3148 12.0641C14.0999 12.279 13.9792 12.5705 13.9792 12.8743C13.9792 13.1782 14.0999 13.4697 14.3148 13.6846C14.5297 13.8995 14.8211 14.0202 15.125 14.0202C15.4289 14.0202 15.7203 13.8995 15.9352 13.6846C16.1501 13.4697 16.2708 13.1782 16.2708 12.8743C16.2708 12.5705 16.1501 12.279 15.9352 12.0641C15.7203 11.8492 15.4289 11.7285 15.125 11.7285Z" fill="#9998B8"/>
<path d="M15.1113 3.3128C15.3827 3.24047 15.6671 3.23148 15.9425 3.2865C16.2179 3.34153 16.477 3.4591 16.6998 3.63016C16.9226 3.80121 17.1031 4.02117 17.2274 4.27305C17.3517 4.52493 17.4164 4.802 17.4167 5.08288H8.25L15.1113 3.3128Z" fill="#9998B8"/>
</svg>
