<svg xmlns="http://www.w3.org/2000/svg" width="16" height="16" viewBox="0 0 16 16" fill="none">
  <g clip-path="url(#clip0_21_2906)">
    <path d="M1.80001 6.86661C1.65064 7.01583 1.53215 7.19302 1.4513 7.38806C1.37045 7.58309 1.32884 7.79215 1.32884 8.00328C1.32884 8.21441 1.37045 8.42347 1.4513 8.61851C1.53215 8.81354 1.65064 8.99073 1.80001 9.13995L6.86001 14.1999C7.00922 14.3493 7.18641 14.4678 7.38145 14.5487C7.57649 14.6295 7.78554 14.6711 7.99667 14.6711C8.2078 14.6711 8.41686 14.6295 8.6119 14.5487C8.80694 14.4678 8.98412 14.3493 9.13334 14.1999L14.1933 9.13995C14.3427 8.99073 14.4612 8.81354 14.542 8.61851C14.6229 8.42347 14.6645 8.21441 14.6645 8.00328C14.6645 7.79215 14.6229 7.58309 14.542 7.38806C14.4612 7.19302 14.3427 7.01583 14.1933 6.86661L9.13334 1.80661C8.98412 1.65725 8.80694 1.53875 8.6119 1.45791C8.41686 1.37706 8.2078 1.33545 7.99667 1.33545C7.78554 1.33545 7.57649 1.37706 7.38145 1.45791C7.18641 1.53875 7.00922 1.65725 6.86001 1.80661L1.80001 6.86661Z" stroke="#8585A9" stroke-width="1.5" stroke-linecap="round" stroke-linejoin="round"/>
    <path d="M8 6.31885V10.3188M8 10.3188L10 8.31885M8 10.3188L6 8.31885" stroke="#8585A9" stroke-width="1.5" stroke-linecap="round" stroke-linejoin="round"/>
  </g>
  <defs>
    <clipPath id="clip0_21_2906">
      <rect width="16" height="16" fill="white"/>
    </clipPath>
  </defs>
</svg> 