<svg xmlns="http://www.w3.org/2000/svg" width="16" height="16" viewBox="0 0 16 16" fill="none">
  <g clip-path="url(#clip0_21_2877)">
    <path d="M1.8 6.86661C1.65063 7.01583 1.53214 7.19302 1.45129 7.38806C1.37045 7.58309 1.32883 7.79215 1.32883 8.00328C1.32883 8.21441 1.37045 8.42347 1.45129 8.61851C1.53214 8.81354 1.65063 8.99073 1.8 9.13995L6.86 14.1999C7.00921 14.3493 7.1864 14.4678 7.38144 14.5487C7.57648 14.6295 7.78554 14.6711 7.99667 14.6711C8.20779 14.6711 8.41685 14.6295 8.61189 14.5487C8.80693 14.4678 8.98412 14.3493 9.13333 14.1999L14.1933 9.13995C14.3427 8.99073 14.4612 8.81354 14.542 8.61851C14.6229 8.42347 14.6645 8.21441 14.6645 8.00328C14.6645 7.79215 14.6229 7.58309 14.542 7.38806C14.4612 7.19302 14.3427 7.01583 14.1933 6.86661L9.13333 1.80661C8.98412 1.65725 8.80693 1.53875 8.61189 1.45791C8.41685 1.37706 8.20779 1.33545 7.99667 1.33545C7.78554 1.33545 7.57648 1.37706 7.38144 1.45791C7.1864 1.53875 7.00921 1.65725 6.86 1.80661L1.8 6.86661Z" fill="white" stroke="white" stroke-width="2" stroke-linecap="round" stroke-linejoin="round"/>
    <path d="M8 6.31885V10.3188M8 10.3188L10 8.31885M8 10.3188L6 8.31885" stroke="#6160FF" stroke-width="1.5" stroke-linecap="round" stroke-linejoin="round"/>
  </g>
  <defs>
    <clipPath id="clip0_21_2877">
      <rect width="16" height="16" fill="white"/>
    </clipPath>
  </defs>
</svg> 