<svg width="32" height="32" viewBox="0 0 32 32" fill="none" xmlns="http://www.w3.org/2000/svg">
<g clip-path="url(#clip0_270_24528)">
<path d="M1.1306 13.2725C0.772177 13.6305 0.487843 14.0557 0.293847 14.5237C0.0998521 14.9917 0 15.4934 0 16C0 16.5066 0.0998521 17.0083 0.293847 17.4763C0.487843 17.9443 0.772177 18.3695 1.1306 18.7275L13.2725 30.8694C13.6305 31.2278 14.0557 31.5122 14.5237 31.7062C14.9917 31.9001 15.4934 32 16 32C16.5066 32 17.0083 31.9001 17.4763 31.7062C17.9443 31.5122 18.3695 31.2278 18.7275 30.8694L30.8694 18.7275C31.2278 18.3695 31.5122 17.9443 31.7062 17.4763C31.9001 17.0083 32 16.5066 32 16C32 15.4934 31.9001 14.9917 31.7062 14.5237C31.5122 14.0557 31.2278 13.6305 30.8694 13.2725L18.7275 1.1306C18.3695 0.772177 17.9443 0.487843 17.4763 0.293847C17.0083 0.0998521 16.5066 0 16 0C15.4934 0 14.9917 0.0998521 14.5237 0.293847C14.0557 0.487843 13.6305 0.772177 13.2725 1.1306L1.1306 13.2725Z" fill="#6160FF" fill-opacity="0.15"/>
<path d="M16 12V20M16 20L20 16M16 20L12 16" stroke="#6160FF" stroke-width="1.5" stroke-linecap="round" stroke-linejoin="round"/>
</g>
<defs>
<clipPath id="clip0_270_24528">
<rect width="32" height="32" fill="white"/>
</clipPath>
</defs>
</svg>
