<?xml version="1.0" standalone="no"?>
<!DOCTYPE svg PUBLIC "-//W3C//DTD SVG 20010904//EN"
 "http://www.w3.org/TR/2001/REC-SVG-20010904/DTD/svg10.dtd">
<svg version="1.0" xmlns="http://www.w3.org/2000/svg"
 width="600.000000pt" height="600.000000pt" viewBox="0 0 600.000000 600.000000"
 preserveAspectRatio="xMidYMid meet">
<metadata>
Created by potrace 1.14, written by Peter Selinger 2001-2017
</metadata>
<g transform="translate(0.000000,600.000000) scale(0.100000,-0.100000)"
fill="#000000" stroke="none">
<path d="M1060 3902 c-100 -47 -269 -216 -477 -476 -56 -70 -130 -204 -139
-251 -8 -47 3 -61 59 -74 55 -12 115 -53 164 -112 15 -19 32 -39 38 -45 40
-43 186 -272 307 -481 57 -98 111 -189 119 -203 7 -13 20 -30 27 -38 7 -8 24
-29 38 -47 55 -73 144 -63 233 26 46 45 111 126 111 137 0 6 4 12 8 14 4 2 23
25 42 53 19 27 39 54 43 60 5 5 57 84 116 175 134 204 205 279 249 262 14 -5
47 -62 36 -62 -4 0 0 -7 7 -16 11 -13 14 -66 15 -233 1 -244 5 -279 41 -374
49 -128 136 -194 243 -184 114 10 212 94 425 362 21 28 42 52 45 55 3 3 39 48
80 100 41 52 78 97 82 98 5 2 8 10 8 17 0 7 3 15 8 17 4 2 27 28 52 58 120
148 212 224 262 216 58 -9 135 -81 248 -231 25 -33 48 -62 51 -65 3 -3 33 -37
66 -75 61 -72 292 -306 355 -360 224 -194 419 -226 674 -110 66 30 182 99 194
114 3 4 15 14 28 23 12 8 39 30 60 49 20 19 57 50 82 69 25 19 47 37 50 40 3
3 52 46 109 95 182 157 291 269 296 303 9 73 -89 84 -261 31 -269 -82 -364
-77 -549 30 -128 74 -303 235 -412 379 -32 42 -63 84 -70 92 -130 162 -156
192 -235 270 -124 122 -214 165 -284 135 -16 -6 -32 -11 -35 -11 -19 3 -222
-188 -304 -288 -22 -27 -44 -54 -50 -60 -5 -6 -38 -45 -71 -86 -133 -163 -249
-282 -295 -300 -25 -11 -32 -10 -49 5 -26 24 -33 58 -55 270 -13 127 -16 154
-26 195 -28 112 -129 260 -179 260 -10 0 -21 4 -24 8 -9 15 -104 13 -141 -2
-88 -37 -232 -170 -347 -321 -32 -42 -190 -224 -209 -241 -13 -11 -41 -31 -61
-43 l-38 -22 -37 21 c-21 12 -59 47 -84 78 -57 71 -189 267 -189 281 0 6 -4
11 -10 11 -5 0 -10 7 -10 15 0 8 -4 15 -10 15 -5 0 -10 5 -10 11 0 16 -122
197 -168 250 -106 122 -163 148 -242 111z"/>
</g>
</svg>
