<svg xmlns="http://www.w3.org/2000/svg" width="16" height="16" viewBox="0 0 16 16" fill="none">
  <path d="M11.3327 14V12.6667C11.1559 12.6667 10.9863 12.5964 10.8613 12.4714C10.7363 12.3464 10.666 12.1768 10.666 12V11.3333C10.666 10.9797 10.8065 10.6406 11.0565 10.3905C11.3066 10.1405 11.6457 10 11.9993 10H13.3327C13.6863 10 14.0254 10.1405 14.2755 10.3905C14.5255 10.6406 14.666 10.9797 14.666 11.3333V12C14.666 12.1768 14.5958 12.3464 14.4708 12.4714C14.3457 12.5964 14.1762 12.6667 13.9993 12.6667" stroke="#8585A9" stroke-width="1.5" stroke-linecap="round" stroke-linejoin="round"/>
  <path d="M12.6673 10V4.33333C12.6673 3.71449 12.4215 3.121 11.9839 2.68342C11.5463 2.24583 10.9528 2 10.334 2C9.71515 2 9.12165 2.24583 8.68407 2.68342C8.24648 3.121 8.00065 3.71449 8.00065 4.33333V11.6667C8.00065 12.2855 7.75482 12.879 7.31723 13.3166C6.87965 13.7542 6.28616 14 5.66732 14C5.04848 14 4.45499 13.7542 4.0174 13.3166C3.57982 12.879 3.33398 12.2855 3.33398 11.6667V6" stroke="#8585A9" stroke-width="1.5" stroke-linecap="round" stroke-linejoin="round"/>
  <path d="M14.0007 13.9998V12.6665H11.334" stroke="#8585A9" stroke-width="1.5" stroke-linecap="round" stroke-linejoin="round"/>
  <path d="M2 3.33333H4.66667V2" stroke="#8585A9" stroke-width="1.5" stroke-linecap="round" stroke-linejoin="round"/>
  <path d="M4.66732 3.33333C4.84413 3.33333 5.0137 3.40357 5.13872 3.5286C5.26375 3.65362 5.33398 3.82319 5.33398 4V4.66667C5.33398 5.02029 5.19351 5.35943 4.94346 5.60948C4.69341 5.85952 4.35427 6 4.00065 6H2.66732C2.3137 6 1.97456 5.85952 1.72451 5.60948C1.47446 5.35943 1.33398 5.02029 1.33398 4.66667V4C1.33398 3.82319 1.40422 3.65362 1.52925 3.5286C1.65427 3.40357 1.82384 3.33333 2.00065 3.33333V2" stroke="#8585A9" stroke-width="1.5" stroke-linecap="round" stroke-linejoin="round"/>
</svg>