<svg xmlns="http://www.w3.org/2000/svg" width="16" height="16" viewBox="0 0 16 16" fill="none">
  <path d="M10.666 10.6668L12.666 5.3335L14.666 10.6668C14.086 11.1002 13.386 11.3335 12.666 11.3335C11.946 11.3335 11.246 11.1002 10.666 10.6668Z" stroke="#8585A9" stroke-width="1.5" stroke-linecap="round" stroke-linejoin="round"/>
  <path d="M1.33398 10.6668L3.33398 5.3335L5.33398 10.6668C4.75398 11.1002 4.05398 11.3335 3.33398 11.3335C2.61398 11.3335 1.91398 11.1002 1.33398 10.6668Z" stroke="#8585A9" stroke-width="1.5" stroke-linecap="round" stroke-linejoin="round"/>
  <path d="M4.66602 14H11.3327" stroke="#8585A9" stroke-width="1.5" stroke-linecap="round" stroke-linejoin="round"/>
  <path d="M8 2V14" stroke="#8585A9" stroke-width="1.5" stroke-linecap="round" stroke-linejoin="round"/>
  <path d="M2 4.66683H3.33333C4.66667 4.66683 6.66667 4.00016 8 3.3335C9.33333 4.00016 11.3333 4.66683 12.6667 4.66683H14" stroke="#8585A9" stroke-width="1.5" stroke-linecap="round" stroke-linejoin="round"/>
</svg>