<svg width="256" height="256" viewBox="0 0 256 256" fill="none" xmlns="http://www.w3.org/2000/svg">
<rect width="256" height="256" fill="white"/>
<path d="M91.7936 144.197C91.7936 135.268 90.8028 130.803 88.8214 130.803C87.0381 130.803 84.4622 133.399 81.0937 138.59C77.9234 143.781 74.4558 148.973 70.6911 154.164C66.9263 159.563 63.4588 162.262 60.2884 162.262C58.5051 162.262 55.7311 158.94 51.9663 152.295C48.3997 145.65 44.4368 139.109 40.0776 132.672C35.7184 126.027 31.8546 122.705 28.4861 122.705C27.4954 122.705 27 122.186 27 121.148C27 117.825 30.7648 111.803 38.2943 103.082C45.8238 94.3607 51.1737 90 54.3441 90C57.7125 90 62.5671 95.3989 68.9078 106.197C75.4466 116.995 79.8058 122.393 81.9854 122.393C84.165 122.393 88.5242 118.137 95.063 109.623C101.8 101.109 107.051 96.8525 110.816 96.8525C114.778 96.8525 117.652 98.5137 119.435 101.836C121.416 104.951 122.506 108.377 122.704 112.115C123.101 115.852 123.497 119.383 123.893 122.705C124.289 125.82 125.082 127.377 126.271 127.377C128.252 127.377 133.305 122.29 141.429 112.115C149.751 101.732 155.795 96.541 159.559 96.541C163.72 96.541 170.655 103.082 180.365 116.164C183.931 121.148 188.389 125.716 193.739 129.869C199.287 133.814 203.845 135.787 207.411 135.787C210.978 135.787 214.446 135.164 217.814 133.918C221.183 132.672 224.056 132.049 226.433 132.049C228.811 132.049 230 132.88 230 134.541C230 135.372 229.604 136.098 228.811 136.721C228.217 137.344 226.532 139.005 223.758 141.705C221.183 144.197 219.003 146.169 217.22 147.623C215.634 149.077 213.257 151.049 210.086 153.541C207.114 156.24 204.538 158.317 202.359 159.77C196.414 163.508 190.767 165.377 185.417 165.377C180.265 165.377 174.42 162.262 167.881 156.033C161.541 150.011 155.993 143.989 151.237 137.967C146.68 131.738 143.311 128.623 141.132 128.623C138.952 128.623 135.386 131.738 130.432 137.967C125.676 144.197 120.723 150.426 115.571 156.656C110.617 162.885 106.258 166 102.493 166C98.9268 166 96.1528 164.235 94.1713 160.705C92.388 157.175 91.4963 153.333 91.4963 149.18L91.7936 144.197Z" fill="#323949"/>
</svg>
