<svg width="16" height="16" viewBox="0 0 16 16" fill="none" xmlns="http://www.w3.org/2000/svg">
<rect width="16" height="16" fill="white"/>
<rect width="16" height="16" fill="#DD57FF" fill-opacity="0.15"/>
<path d="M8.00067 5.3335C5.42309 5.3335 3.33331 7.45179 3.33398 10.064H4.52618C4.52618 8.10635 6.06944 6.51915 8.00067 6.51915C9.93187 6.51915 11.4752 8.10635 11.4752 10.064H12.6673C12.6678 7.45179 10.578 5.3335 8.00067 5.3335Z" fill="#DD57FF"/>
<path d="M6.76111 10.1757C7.28502 10.1757 7.70971 9.75327 7.70971 9.23216C7.70971 8.71103 7.28502 8.28857 6.76111 8.28857C6.23721 8.28857 5.8125 8.71103 5.8125 9.23216C5.8125 9.75327 6.23721 10.1757 6.76111 10.1757Z" fill="#DD57FF"/>
<path d="M9.23961 10.1757C9.76352 10.1757 10.1882 9.75327 10.1882 9.23216C10.1882 8.71103 9.76352 8.28857 9.23961 8.28857C8.7157 8.28857 8.29102 8.71103 8.29102 9.23216C8.29102 9.75327 8.7157 10.1757 9.23961 10.1757Z" fill="#DD57FF"/>
</svg>
