<svg  viewBox="0 0 16 16" fill="none" xmlns="http://www.w3.org/2000/svg">
<rect width="16" height="16" fill="white"/>
<rect width="16" height="16" fill="#1A1C2E" fill-opacity="0.1"/>
<path d="M7.76236 2.93531C8.44604 2.93531 9.10888 3.06932 9.73251 3.33377C10.0321 3.46063 10.3216 3.61787 10.5921 3.80131C10.8602 3.98297 11.1123 4.19143 11.3418 4.42073C11.5712 4.65063 11.7793 4.90317 11.96 5.17178C12.1426 5.44277 12.3001 5.73284 12.4267 6.03303C12.6907 6.65781 12.8244 7.3219 12.8244 8.00682C12.8244 8.69177 12.6907 9.35585 12.4267 9.98064C12.3001 10.2808 12.1431 10.5709 11.96 10.8419C11.7787 11.1105 11.5707 11.363 11.3418 11.5929C11.1123 11.8228 10.8602 12.0313 10.5921 12.2123C10.3216 12.3958 10.0321 12.553 9.73251 12.6799C9.10888 12.9443 8.44604 13.0783 7.76236 13.0783C7.0787 13.0783 6.41585 12.9443 5.79223 12.6799C5.49262 12.553 5.20309 12.3958 4.9326 12.2123C4.66449 12.0307 4.41242 11.8222 4.18295 11.5929C3.95348 11.363 3.74541 11.1105 3.56468 10.8419C3.38218 10.5709 3.22464 10.2808 3.09801 9.98064C2.83406 9.35585 2.7003 8.69177 2.7003 8.00682C2.7003 7.3219 2.83406 6.65781 3.09801 6.03303C3.22464 5.73284 3.38158 5.44277 3.56468 5.17178C3.746 4.90317 3.95407 4.65063 4.18295 4.42073C4.41242 4.19083 4.66449 3.98237 4.9326 3.80131C5.20309 3.61787 5.49262 3.46063 5.79223 3.33377C6.41585 3.06932 7.0787 2.93531 7.76236 2.93531ZM7.76236 2.32959C4.63238 2.32959 2.0957 4.87101 2.0957 8.00682C2.0957 11.1426 4.63238 13.6841 7.76236 13.6841C10.8923 13.6841 13.429 11.1426 13.429 8.00682C13.429 4.87101 10.8918 2.32959 7.76236 2.32959Z" fill="black"/>
<path d="M6.04303 5.83135V5.41264C6.04303 5.07435 6.26417 4.79859 6.59709 4.74022C6.84855 4.69555 7.08159 4.7426 7.26648 4.93557C7.38777 5.06184 7.45077 5.2149 7.45316 5.39002C7.45552 5.53535 7.45316 5.68127 7.45316 5.82896H8.21767C8.21767 5.82003 8.21885 5.81052 8.21885 5.80037V5.4031C8.22003 5.0273 8.5167 4.73009 8.89181 4.72652C9.0214 4.72533 9.14685 4.73784 9.26217 4.80037C9.49879 4.92902 9.62244 5.12914 9.62898 5.39835C9.63255 5.54071 9.62959 5.68306 9.62959 5.83017H10.623C10.8085 5.83017 10.9315 5.95406 10.9482 6.13926C10.9624 6.2977 10.922 6.44245 10.8697 6.58716C10.8156 6.73724 10.7383 6.87781 10.6396 7.00291C10.5617 7.10175 10.4744 7.19408 10.3846 7.28283C10.2681 7.39718 10.1456 7.50559 10.0237 7.61518C9.95715 7.67472 9.8977 7.73964 9.85963 7.82125C9.84894 7.84448 9.83943 7.87188 9.83943 7.89689C9.83825 8.50678 9.84061 9.11666 9.83765 9.72657C9.83407 10.4597 9.29309 11.1131 8.57494 11.2525C8.4638 11.2733 8.35144 11.2846 8.23848 11.2853C7.92279 11.2894 7.60713 11.287 7.29147 11.2864C6.52099 11.2864 5.87537 10.7599 5.72437 10.0041C5.70477 9.8993 5.69466 9.79328 5.69527 9.68666C5.69227 9.09225 5.69406 8.49784 5.69348 7.90404C5.69348 7.88557 5.6893 7.8671 5.68158 7.85044C5.63342 7.73846 5.54841 7.65627 5.45983 7.57585C5.34036 7.46746 5.22203 7.35787 5.10492 7.2471C4.96819 7.11786 4.84632 6.97608 4.75715 6.80931C4.65728 6.62229 4.57227 6.42815 4.57227 6.20955C4.57227 6.16013 4.57761 6.11128 4.58832 6.06304C4.62161 5.92426 4.74467 5.83075 4.88794 5.83017H6.04185L6.04303 5.83135ZM7.14104 6.50437H5.92592C5.84802 6.50437 5.78085 6.55679 5.77077 6.63362C5.76422 6.67771 5.7648 6.72295 5.77252 6.76704C5.79929 6.90343 5.85874 7.02671 5.95326 7.12797C6.04778 7.22921 6.15124 7.31914 6.24694 7.41744C6.31947 7.4913 6.36584 7.57942 6.36584 7.68843C6.36523 8.35431 6.36523 9.02018 6.36584 9.68605C6.36584 9.73311 6.36823 9.78017 6.37474 9.82662C6.44194 10.284 6.82477 10.614 7.28611 10.614H8.23669C8.28366 10.614 8.33063 10.6116 8.37758 10.6057C8.83 10.5431 9.16707 10.1566 9.16765 9.69917C9.16765 9.58839 9.16647 9.47702 9.16826 9.36621C9.16826 9.34062 9.16111 9.3299 9.13615 9.32215C8.90251 9.25069 8.679 9.14882 8.47152 9.01957C7.99474 8.72299 7.62911 8.32511 7.39253 7.81232C7.27896 7.56634 7.2011 7.30963 7.17375 7.03982C7.15591 6.86291 7.15234 6.68485 7.14165 6.50319L7.14104 6.50437ZM9.12071 8.28999C9.12247 8.12322 8.9893 7.98683 8.82346 7.98444C8.65699 7.98265 8.52085 8.11608 8.51849 8.28284C8.5167 8.4496 8.64987 8.58599 8.81571 8.58839H8.81631C8.98218 8.59075 9.11832 8.45793 9.1201 8.29177V8.28999H9.12071Z" fill="black"/>
<path d="M7.25847 8.28704C7.25786 8.45384 7.12234 8.58844 6.95647 8.58783C6.79002 8.58723 6.65568 8.45144 6.65625 8.28468C6.65686 8.11792 6.79238 7.98331 6.95886 7.98389H6.96004C7.12591 7.98389 7.25965 8.1197 7.25907 8.28526V8.28647L7.25847 8.28704Z" fill="black"/>
</svg>
