<svg width="16" height="16" viewBox="0 0 16 16" fill="none" xmlns="http://www.w3.org/2000/svg">
<rect width="16" height="16" fill="white"/>
<rect width="16" height="16" fill="#EDAE50" fill-opacity="0.15"/>
<mask id="mask0_261_59842" style="mask-type:luminance" maskUnits="userSpaceOnUse" x="2" y="3" width="12" height="10">
<path d="M13.3327 3.3335H2.66602V12.6668H13.3327V3.3335Z" fill="white"/>
</mask>
<g mask="url(#mask0_261_59842)">
<path d="M12.4713 9.39168C12.5064 9.41972 12.5294 9.44394 12.5639 9.47273C12.5848 9.49013 12.5849 9.49013 12.6054 9.47116C12.6197 9.45787 12.6335 9.44403 12.6481 9.43103C12.7071 9.37801 12.7864 9.38057 12.8413 9.43828C12.8632 9.46143 12.8838 9.48585 12.903 9.51147C12.9505 9.57434 12.9457 9.6565 12.8921 9.71371C12.8771 9.72977 12.8611 9.74496 12.8449 9.75962C12.8313 9.77177 12.8309 9.78361 12.8405 9.79888C12.8603 9.8303 12.8795 9.86216 12.8981 9.89439C12.9217 9.93522 12.9427 9.97769 12.9626 10.0206C12.9816 10.0615 12.9816 10.0612 13.021 10.048C13.04 10.041 13.0594 10.0352 13.0791 10.0306C13.1431 10.0175 13.2039 10.0505 13.2312 10.1139C13.2478 10.1531 13.2602 10.194 13.2682 10.2361C13.2799 10.2961 13.2455 10.3627 13.1904 10.3922C13.169 10.4035 13.1456 10.4085 13.1233 10.417C13.0964 10.4273 13.094 10.4293 13.0985 10.4573C13.1127 10.5457 13.1227 10.6344 13.1233 10.7242C13.1235 10.7438 13.1305 10.755 13.1498 10.7566C13.1663 10.7581 13.1826 10.7613 13.1992 10.7631C13.2647 10.7704 13.3093 10.8051 13.3288 10.8736C13.3304 10.8795 13.3347 11.0029 13.329 11.0364C13.3164 11.1103 13.2623 11.1629 13.1911 11.1659C13.1758 11.1666 13.1604 11.1656 13.1452 11.1628C13.1172 11.1574 13.0986 11.1699 13.0918 11.1987C13.0751 11.2695 13.0527 11.3383 13.0286 11.4065C13.0214 11.4263 13.0255 11.4435 13.041 11.4574C13.0491 11.4647 13.0802 11.5003 13.0852 11.5121C13.0967 11.5393 13.0468 11.497 13.0354 11.4899C13.0089 11.4738 12.6857 11.284 12.5654 11.2159C12.574 11.1483 12.6051 11.0618 12.6176 10.9951C12.6814 10.6553 12.6154 10.3453 12.4308 10.0623C12.2771 9.82692 12.0669 9.67635 11.8085 9.60168C11.5812 9.53592 11.3559 9.54927 11.1348 9.63511C10.9519 9.70614 10.7517 9.82257 10.6418 10.0059C10.6292 10.0209 10.6233 10.0191 10.6033 10.0097C10.5346 9.97326 10.2651 9.78667 10.1556 9.7189C10.107 9.66708 10.075 9.58226 10.1114 9.51969C10.1374 9.47504 10.1724 9.43884 10.2099 9.40631C10.2626 9.36064 10.3391 9.36195 10.395 9.40488C10.4645 9.4581 10.4644 9.45787 10.5319 9.40069C10.5671 9.37078 10.6047 9.34426 10.6417 9.31695C10.6761 9.29153 10.6786 9.2813 10.6625 9.24149C10.6185 9.13289 10.6467 9.05035 10.746 8.99663C10.7722 8.98183 10.7996 8.96947 10.8278 8.95973C10.9035 8.93522 10.9734 8.96399 11.0145 9.03572C11.0574 9.11054 11.0572 9.11045 11.138 9.09069C11.1808 9.08017 11.2241 9.07273 11.2672 9.06437C11.3103 9.056 11.3169 9.04878 11.3193 9.00342C11.3203 8.98075 11.3235 8.95825 11.329 8.93627C11.3404 8.89244 11.361 8.85399 11.4038 8.83671C11.4852 8.80369 11.5675 8.79733 11.6474 8.84076C11.6946 8.86635 11.7166 8.91036 11.7172 8.96737C11.7181 9.05286 11.7187 9.05356 11.7972 9.06708C11.8488 9.07597 11.8994 9.0892 11.95 9.10194C11.9885 9.11161 11.9985 9.10783 12.0135 9.06839C12.0514 8.96854 12.1458 8.91762 12.2572 8.97574C12.2887 8.99223 12.3219 9.00427 12.3494 9.03088C12.4051 9.08448 12.409 9.16367 12.3861 9.22141C12.3828 9.22954 12.379 9.23732 12.3758 9.24551C12.3606 9.28562 12.3589 9.30908 12.3589 9.30908C12.3589 9.30908 12.4368 9.36399 12.4713 9.39168Z" fill="#5F5F5F"/>
<path d="M12.548 11.1827C12.5803 11.2157 13.0127 11.4671 13.0499 11.4909C13.061 11.4924 13.0696 11.5002 13.0796 11.5045L13.0791 11.5041C13.0868 11.5115 13.0942 11.5193 13.1011 11.5275L13.1007 11.527C13.135 11.578 13.1348 11.6323 13.1149 11.6886C13.1024 11.7185 13.0873 11.7471 13.0698 11.774C13.0291 11.8392 12.954 11.8597 12.888 11.8243C12.8678 11.8135 12.8484 11.8016 12.8293 11.7887C12.8154 11.7795 12.8059 11.782 12.7962 11.7956C12.7433 11.87 12.6845 11.9395 12.6204 12.0032C12.6075 12.016 12.606 12.0272 12.6168 12.0421C12.6293 12.0588 12.641 12.0764 12.6522 12.0941C12.6978 12.1661 12.6856 12.2491 12.621 12.3024C12.5986 12.3209 12.5756 12.3389 12.5518 12.3554C12.4877 12.3996 12.4126 12.3872 12.3638 12.3246C12.3503 12.307 12.3376 12.2887 12.3259 12.2698C12.3155 12.2532 12.3051 12.2494 12.2877 12.26C12.2144 12.3043 12.1371 12.3393 12.058 12.3703C12.0293 12.3817 12.0296 12.3821 12.0352 12.414C12.0372 12.4251 12.0388 12.4364 12.0408 12.4475C12.0592 12.5411 12.0382 12.5918 11.9612 12.6398C11.9413 12.6515 11.9184 12.6497 11.8971 12.6557C11.8599 12.6652 11.8223 12.6644 11.7845 12.6624C11.772 12.6559 11.7597 12.6489 11.7476 12.6418C11.7111 12.6095 11.6949 12.567 11.6854 12.5182C11.6726 12.4522 11.6805 12.4629 11.6232 12.4657C11.5474 12.4695 11.4715 12.4692 11.3958 12.4647C11.3663 12.463 11.3663 12.4628 11.3595 12.4918C11.3564 12.5053 11.3528 12.5187 11.3509 12.5324C11.3386 12.6189 11.2731 12.6839 11.1686 12.6627C11.1431 12.6575 11.1177 12.6505 11.0928 12.6426C11.0213 12.6203 10.98 12.5471 10.9944 12.4693C10.9979 12.4495 11.0023 12.4299 11.0059 12.4101C11.0108 12.3831 11.0105 12.3817 10.9851 12.3716C10.9362 12.3521 10.8876 12.3321 10.8406 12.308C10.8128 12.2938 10.7854 12.2789 10.758 12.2639C10.7295 12.2483 10.7297 12.2481 10.7098 12.2765C10.6991 12.2916 10.6891 12.3073 10.678 12.3219C10.6294 12.3868 10.5526 12.4004 10.4877 12.355C10.4629 12.3377 10.4388 12.3192 10.4156 12.2997C10.3564 12.2497 10.3436 12.1676 10.3843 12.0999C10.3964 12.0797 10.4099 12.0604 10.4234 12.0414C10.4329 12.0282 10.4335 12.0176 10.4213 12.0054C10.3564 11.9408 10.2969 11.8703 10.2434 11.7948C10.2332 11.7804 10.2232 11.7805 10.21 11.7893C10.194 11.8 10.1774 11.8098 10.1607 11.8196C10.0859 11.8628 10.008 11.8415 9.9641 11.7637C9.94842 11.7358 9.92922 11.7102 9.91843 11.679C9.89165 11.6015 9.91421 11.5298 9.9811 11.4866C9.99532 11.4774 10.0099 11.469 10.0238 11.4598C10.0485 11.4437 10.0491 11.4432 10.0382 11.4152C10.0156 11.3569 9.99616 11.2973 9.97999 11.2367C9.97285 11.2102 9.96609 11.1833 9.9602 11.1563C9.95591 11.1366 9.94621 11.129 9.92718 11.1332C9.91202 11.1362 9.89672 11.1383 9.88136 11.1397C9.79095 11.1498 9.72388 11.0922 9.71444 10.9963C9.71184 10.9698 9.70908 10.9436 9.70736 10.9172C9.70491 10.879 9.71639 10.8413 9.73936 10.8119C9.76232 10.7824 9.79506 10.7634 9.83079 10.7589C9.85075 10.7563 9.87087 10.7546 9.89071 10.7513C9.91665 10.7468 9.91747 10.7462 9.91788 10.7174C9.91904 10.6544 9.92359 10.5915 9.93143 10.5291C9.93469 10.5016 9.94335 10.4749 9.94146 10.4468C9.93947 10.4275 9.93181 10.4156 9.91729 10.4096C9.90733 10.4065 9.90494 10.4052 9.89013 10.4013C9.86084 10.3937 9.83429 10.3802 9.81313 10.3574" fill="#414141"/>
<path d="M9.94368 10.4642C9.947 10.4449 9.93919 10.4159 9.9206 10.4104C9.9046 10.4056 9.87904 10.3954 9.86318 10.3903C9.80005 10.3701 9.76047 10.3171 9.7535 10.2459C9.74549 10.2157 9.77061 10.1176 9.78201 10.0859C9.80748 10.0159 9.86997 9.97506 9.94036 9.9864C9.9556 9.98873 9.9705 9.99284 9.98486 9.99864C10.0115 10.0096 10.0319 10.001 10.0437 9.9741C10.0727 9.90791 10.116 9.84233 10.1439 9.77573C10.1709 9.71135 10.1518 9.71668 10.1612 9.71893C10.1843 9.74006 10.521 9.91415 10.6271 10.0052C10.5579 10.0847 10.4044 10.4448 10.398 10.5653" fill="#414141"/>
<path d="M10.6308 9.99988C10.8457 9.75278 10.9996 9.64672 11.2117 9.58263C11.3408 9.54328 11.4755 9.52903 11.6093 9.54042C11.8346 9.55972 12.038 9.64337 12.2171 9.79123C12.3751 9.92168 12.4901 10.0869 12.5685 10.2818C12.6166 10.401 12.6419 10.5256 12.6538 10.6548C12.6708 10.8397 12.6335 11.0463 12.5738 11.2186C12.5618 11.23 12.342 11.07 12.3185 11.0388C12.3131 11.0219 12.3198 11.0066 12.3238 10.991C12.3454 10.9068 12.3594 10.8212 12.3569 10.7337C12.3451 10.3131 12.0756 9.96622 11.7031 9.88146C11.4281 9.81891 11.1365 9.88202 10.8696 10.1706C10.8629 10.1746 10.8608 10.1659 10.8155 10.1327C10.7394 10.0834 10.7019 10.0526 10.65 10.0191C10.6202 10.0006 10.6217 10.0106 10.6308 9.99988Z" fill="#414141"/>
<path d="M12.5771 11.2064C12.57 11.2185 12.5635 11.2311 12.5578 11.2441C12.4922 11.412 12.3872 11.55 12.2594 11.6668C12.0921 11.8197 11.898 11.9151 11.6776 11.9457C11.6237 11.9533 11.5696 11.9615 11.515 11.9597C11.3572 11.9544 11.2048 11.9235 11.0591 11.856C10.9667 11.813 10.8802 11.7568 10.8019 11.689C10.6801 11.5842 10.5812 11.4584 10.5086 11.3092C10.4418 11.1717 10.4034 11.0263 10.3871 10.8731C10.3729 10.7413 10.384 10.6118 10.41 10.4828C10.4397 10.3355 10.4951 10.1998 10.5724 10.074C10.5834 10.0561 10.6154 10.0155 10.6258 10.0054C10.682 10.0364 10.8353 10.1441 10.8599 10.1675C10.8754 10.1891 10.8468 10.2174 10.8379 10.2313C10.7908 10.3045 10.752 10.3819 10.727 10.4669C10.64 10.7631 10.6799 11.0387 10.8552 11.2865C11.0014 11.4932 11.2003 11.6065 11.4435 11.6325C11.79 11.6695 12.1455 11.4603 12.2919 11.0911C12.2999 11.0707 12.2979 11.0385 12.3308 11.0369C12.3519 11.0627 12.5523 11.1919 12.5771 11.2064Z" fill="#5F5F5F"/>
<path d="M12.3316 11.0363C12.304 11.1116 12.2732 11.1849 12.2299 11.2519C12.0929 11.4639 11.9059 11.5955 11.6679 11.6408C11.4268 11.6867 11.206 11.6295 11.0098 11.4752C10.8372 11.3394 10.727 11.1568 10.6845 10.9332C10.6343 10.6688 10.6871 10.4256 10.8342 10.2057C10.8397 10.1975 10.8449 10.1892 10.8504 10.181C10.856 10.1739 10.9291 10.088 10.9647 10.0563C11.1225 9.91573 11.3029 9.84368 11.5092 9.83952C11.8957 9.8317 12.2444 10.11 12.3449 10.5143C12.3851 10.6762 12.3841 10.8384 12.3403 10.9998C12.337 11.0117 12.3345 11.0241 12.3316 11.0363Z" fill="#EDAE50"/>
<path d="M11.7476 10.7481C11.7542 10.8865 11.6347 10.9936 11.5214 10.9922C11.3921 10.9905 11.286 10.8827 11.2871 10.7458C11.2882 10.612 11.3866 10.5013 11.523 10.501C11.6366 10.5006 11.7539 10.6088 11.7476 10.7481Z" fill="#414141"/>
<path d="M11.761 10.2876C11.7872 10.2847 11.8091 10.2946 11.8273 10.3154C11.8434 10.3337 11.8607 10.351 11.8765 10.3698C11.913 10.4132 11.8907 10.4927 11.8434 10.5083C11.8228 10.5151 11.8039 10.5155 11.7857 10.5029C11.7468 10.4757 11.7136 10.4413 11.6842 10.4036C11.6529 10.3635 11.6688 10.3122 11.7153 10.2949C11.7299 10.2892 11.7454 10.2867 11.761 10.2876Z" fill="#FCD38C"/>
<path d="M5.55769 12.6483C5.49363 12.6125 5.45559 12.5567 5.44416 12.4802C5.44026 12.4541 5.4335 12.4286 5.42845 12.4026C5.4249 12.3844 5.4163 12.3784 5.39846 12.3799C5.28506 12.39 5.17112 12.3913 5.05757 12.3837C5.04215 12.3827 5.02676 12.3818 5.01149 12.3799C4.99692 12.3781 4.98934 12.3845 4.98637 12.3995C4.98092 12.4266 4.97366 12.4533 4.96946 12.4806C4.95646 12.565 4.91306 12.6229 4.83909 12.6556C4.79179 12.6693 4.74454 12.6645 4.69724 12.6552C4.65346 12.6465 4.60849 12.6424 4.56879 12.618C4.55355 12.6061 4.53717 12.5958 4.52396 12.581C4.47681 12.5279 4.45731 12.4661 4.46946 12.3939C4.47407 12.3666 4.48013 12.3397 4.48529 12.3125C4.49403 12.2661 4.49397 12.2658 4.45326 12.2505C4.3606 12.2155 4.27022 12.174 4.18269 12.1263C4.16162 12.1149 4.14026 12.1036 4.12012 12.0906C4.10473 12.0805 4.09453 12.0826 4.08453 12.0982C4.06917 12.1221 4.05215 12.1447 4.03693 12.1688C3.97203 12.2713 3.84466 12.3013 3.74457 12.2192C3.71834 12.1976 3.69062 12.1781 3.66433 12.1567C3.57144 12.0812 3.55451 11.9609 3.62216 11.8589C3.63991 11.8321 3.65803 11.8056 3.67654 11.7794C3.68532 11.7671 3.6852 11.7569 3.67404 11.7468C3.66861 11.7419 3.66381 11.7363 3.65862 11.7311C3.57191 11.6434 3.49179 11.5486 3.41907 11.4475C3.39843 11.4188 3.39823 11.4189 3.36791 11.4375C3.34737 11.4501 3.32693 11.4628 3.30639 11.4754C3.1984 11.541 3.09108 11.5122 3.02434 11.3996C3.01519 11.3852 3.01172 11.38 3.00216 11.3627C2.99036 11.3384 2.97613 11.3156 2.96547 11.2905C2.91994 11.1832 2.95162 11.0734 3.04693 11.0128C3.06928 10.9986 3.09199 10.985 3.11461 10.9708C3.14463 10.9519 3.14498 10.9517 3.13204 10.9188C3.0905 10.8129 3.05623 10.704 3.0295 10.5929C3.0251 10.5746 3.02023 10.5564 3.01668 10.5379C3.01312 10.5194 3.00301 10.5134 2.98604 10.5157C2.9543 10.52 2.92256 10.5249 2.89068 10.5269C2.80878 10.5319 2.74559 10.4972 2.70283 10.4225C2.68502 10.3918 2.67832 10.3573 2.67532 10.3217C2.67313 10.2952 2.66823 10.2714 2.66657 10.243C2.65964 10.1355 2.71746 10.0006 2.84457 9.99095C2.87173 9.98888 2.89872 9.98454 2.92583 9.98133C2.95716 9.97757 2.95827 9.97731 2.95897 9.9456C2.96101 9.85236 2.96812 9.75929 2.98033 9.66693C2.98534 9.62954 2.991 9.5922 2.99721 9.55501C3.00315 9.51951 3.00321 9.51872 2.9699 9.50712C2.945 9.4985 2.92006 9.49036 2.89551 9.4815C2.78893 9.44326 2.7339 9.33531 2.7638 9.22044C2.77482 9.17798 2.7884 9.13618 2.80298 9.09491C2.84034 8.98853 2.94256 8.93487 3.04506 8.96707C3.07572 8.97666 3.1065 8.98631 3.13632 8.99841C3.15544 9.00601 3.16389 8.99966 3.17194 8.98174C3.19082 8.93968 3.21137 8.89844 3.23125 8.85696C3.23839 8.84268 3.24498 8.83122 3.25139 8.81811C3.27275 8.77643 3.29543 8.73536 3.32259 8.69741C3.34707 8.67471 7.46227 11.2487 7.45067 11.2784C7.44277 11.2936 7.43639 11.3082 7.42884 11.3228C7.41429 11.3503 7.4006 11.3782 7.38512 11.405C7.32642 11.5066 7.21957 11.5375 7.11983 11.4821C7.0936 11.4675 7.06842 11.4508 7.04268 11.4352C7.01593 11.419 7.0156 11.4188 6.99742 11.4438C6.95679 11.4996 6.91432 11.5538 6.86996 11.6063C6.83027 11.6532 6.78829 11.6976 6.7456 11.7412C6.72592 11.7613 6.72595 11.7619 6.74108 11.7847C6.75816 11.8105 6.77617 11.8355 6.79305 11.8613C6.85865 11.9617 6.84105 12.0824 6.74997 12.1562C6.72076 12.1799 6.69109 12.2029 6.66096 12.2252C6.56629 12.295 6.45381 12.2759 6.38383 12.1783C6.36603 12.1533 6.34912 12.1273 6.33131 12.1021C6.31522 12.0794 6.31461 12.079 6.29106 12.0927C6.19439 12.1489 6.09409 12.1978 5.99086 12.2388C5.9764 12.2445 5.96183 12.2498 5.94746 12.2556C5.92143 12.2662 5.92094 12.2666 5.9261 12.2973C5.9307 12.3246 5.93452 12.3522 5.94189 12.3787C5.96941 12.4777 5.91199 12.5972 5.78459 12.6393C5.72951 12.6575 5.61018 12.6707 5.55769 12.6483Z" fill="#414141"/>
<path d="M7.4434 11.286C7.35696 11.2327 6.5877 10.7286 6.53381 10.6969C6.50464 10.6812 6.51411 10.6793 6.53186 10.644C6.59476 10.501 6.63708 10.3487 6.65745 10.1924C6.67211 10.0785 6.67132 9.96409 6.66249 9.84937C6.65421 9.7413 6.63512 9.63448 6.60551 9.53072C6.56782 9.39848 6.51329 9.2747 6.44597 9.15648C6.3708 9.02457 6.27505 8.91198 6.16928 8.8081C6.08799 8.72824 5.99607 8.66342 5.89901 8.60708C5.75319 8.52186 5.59452 8.46435 5.43017 8.43716C5.32693 8.42011 5.22273 8.41171 5.11848 8.41897C4.89676 8.43451 4.68682 8.49656 4.49155 8.61072C4.33748 8.70309 4.19962 8.82311 4.08402 8.96546C4.05456 9.00175 4.01259 9.07406 3.9837 9.1107C3.96712 9.13174 3.69105 8.94127 3.31556 8.70498C3.3294 8.67904 3.34275 8.65785 3.35756 8.63521C3.3668 8.62104 3.36601 8.61032 3.354 8.59912C3.33095 8.57738 3.30798 8.55552 3.28539 8.53325C3.21349 8.46231 3.1967 8.36823 3.24173 8.27578C3.25199 8.25462 3.27059 8.20484 3.29892 8.16869C3.31262 8.15118 3.32771 8.13523 3.34252 8.11891C3.41503 8.03917 3.55593 8.03786 3.63159 8.11133C3.72317 8.20017 3.71113 8.17951 3.78822 8.11661C3.85412 8.06295 3.92078 8.01058 3.99049 7.96251C4.02804 7.93666 4.03045 7.92416 4.01145 7.88082C3.99032 7.83252 3.97129 7.78391 3.97537 7.72871C3.98041 7.66056 4.00647 7.60224 4.05881 7.56438C4.1336 7.51037 4.21297 7.46592 4.30836 7.46869C4.38711 7.47105 4.44232 7.51267 4.48234 7.5809C4.49656 7.60545 4.50763 7.63229 4.51915 7.65855C4.52984 7.68315 4.54716 7.69119 4.57138 7.6844C4.67353 7.65599 4.777 7.63442 4.88111 7.61652C4.91894 7.61002 4.92658 7.59819 4.92807 7.55823C4.92874 7.54433 4.92874 7.53042 4.92807 7.51655C4.91996 7.38947 5.01253 7.28277 5.12192 7.27542C5.18222 7.27132 5.24267 7.26648 5.30254 7.27921C5.39056 7.29816 5.47724 7.38391 5.46849 7.50169C5.4673 7.51795 5.46814 7.53442 5.46849 7.55088C5.46928 7.5993 5.47782 7.61116 5.52279 7.61798C5.62023 7.63249 5.7167 7.65345 5.81169 7.6807C5.86197 7.6953 5.86975 7.69003 5.8907 7.64001C5.90708 7.60087 5.92352 7.56164 5.95252 7.53022C6.01113 7.46691 6.08406 7.45668 6.16001 7.47455C6.2202 7.48872 6.27671 7.51775 6.32854 7.55365C6.41291 7.61221 6.44369 7.71734 6.40936 7.81961C6.40222 7.84095 6.39362 7.86179 6.38461 7.88239C6.36683 7.92279 6.36986 7.93754 6.40525 7.96138C6.4796 8.01093 6.55115 8.06499 6.61962 8.12331C6.69467 8.18767 6.68126 8.19746 6.76404 8.11778C6.83652 8.04803 6.94844 8.03969 7.01455 8.08752C7.08155 8.13585 7.13982 8.19682 7.17852 8.27304C7.21294 8.34098 7.20831 8.46584 7.13976 8.52862C7.11918 8.54753 7.10097 8.56928 7.08182 8.58997C7.06529 8.60798 7.06305 8.62763 7.07616 8.64815C7.13743 8.74415 7.19228 8.84459 7.24028 8.94879C7.25209 8.97435 7.27231 8.98085 7.29726 8.97249C7.32658 8.9624 7.35652 8.95444 7.38686 8.94861C7.46794 8.93349 7.55728 8.97135 7.59893 9.04707C7.63938 9.1204 7.66421 9.2009 7.66675 9.28706C7.66949 9.38173 7.62519 9.44722 7.54926 9.49079C7.52405 9.50493 7.4975 9.51612 7.47001 9.52419C7.44101 9.53299 7.4286 9.55173 7.43443 9.58324C7.45489 9.69615 7.46168 9.81043 7.46841 9.92495C7.47019 9.9552 7.48397 9.97193 7.5126 9.97284C7.53396 9.97351 7.555 9.97773 7.57613 9.98071C7.68497 9.99583 7.75938 10.0859 7.75978 10.203C7.75996 10.2257 7.75897 10.2484 7.75675 10.2709C7.7532 10.3065 7.74122 10.3575 7.73183 10.3908C7.70455 10.4878 7.61257 10.5409 7.5177 10.5345C7.48695 10.5324 7.45643 10.5271 7.42571 10.524C7.39756 10.521 7.39613 10.5214 7.3891 10.5511C7.36803 10.6404 7.34506 10.7291 7.31493 10.8155C7.30088 10.8557 7.28642 10.8957 7.27057 10.9351C7.26343 10.9526 7.26643 10.9633 7.28164 10.9724C7.31157 10.9904 7.3418 11.008 7.37065 11.0279C7.44769 11.0809 7.47951 11.1774 7.45148 11.2694C7.4492 11.2752 7.44649 11.2807 7.4434 11.286Z" fill="#666059"/>
<path d="M4.30479 9.29591C4.34041 9.2505 4.37419 9.20332 4.41316 9.16073C4.59707 8.95977 4.81922 8.84176 5.08157 8.81037C5.3136 8.78259 5.53371 8.82553 5.73703 8.94718C6.05003 9.13453 6.23668 9.42005 6.29559 9.79638C6.3298 10.015 6.30389 10.2284 6.22226 10.4333C6.21765 10.4449 6.21439 10.4571 6.21051 10.469C6.21937 10.4887 6.21077 10.5056 6.20299 10.5227C6.16341 10.6098 6.11133 10.688 6.05105 10.7594C5.87772 10.9651 5.66557 11.1013 5.40809 11.1485C5.06632 11.211 4.75799 11.1269 4.48993 10.8919C4.27253 10.7012 4.14149 10.4544 4.09934 10.1584C4.0665 9.92806 4.0938 9.70358 4.18357 9.48918C4.20529 9.43721 4.23172 9.3881 4.25833 9.33882C4.26918 9.31833 4.28334 9.303 4.30479 9.29591Z" fill="#EDAE50"/>
<path d="M4.50404 9.97466C4.49818 9.55009 4.83963 9.22657 5.20183 9.22462C5.55706 9.22267 5.91156 9.52354 5.91217 9.97845C5.91279 10.4008 5.59052 10.7217 5.21439 10.7258C4.80465 10.7303 4.49655 10.3707 4.50404 9.97466Z" fill="#45423D"/>
<path d="M5.89913 9.28227C5.90499 9.34488 5.83122 9.39402 5.77995 9.35782C5.74518 9.33328 5.71233 9.30827 5.68476 9.27554C5.64506 9.22856 5.65413 9.17974 5.70671 9.14902C5.74562 9.12628 5.78196 9.12468 5.81793 9.15729C5.84323 9.18017 5.86777 9.20332 5.88593 9.23319C5.89514 9.24765 5.89971 9.26482 5.89913 9.28227Z" fill="#FCD38C"/>
<path d="M4.64477 9.97952C4.63605 9.67282 4.86972 9.37366 5.20889 9.375C5.52574 9.37635 5.77307 9.64662 5.76989 9.98465C5.7668 10.3179 5.50702 10.5791 5.19831 10.5751C4.87817 10.5709 4.63614 10.2844 4.64477 9.97952Z" fill="#EDAE50"/>
<path d="M5.2051 10.2206C5.0789 10.2206 4.97368 10.109 4.97462 9.97445C4.97546 9.84192 5.07199 9.73102 5.20656 9.7295C5.32932 9.72822 5.43649 9.83612 5.43582 9.97655C5.43518 10.1133 5.3341 10.2207 5.2051 10.2206Z" fill="#414141"/>
<path d="M5.47334 9.56934C5.48658 9.56934 5.49955 9.57085 5.51077 9.57878C5.55973 9.61332 5.58594 9.66132 5.58422 9.72445C5.58328 9.75689 5.53951 9.79102 5.50969 9.78382C5.45924 9.77164 5.41811 9.74506 5.39004 9.69726C5.36574 9.65593 5.37055 9.6213 5.40695 9.59207C5.42665 9.57639 5.44915 9.57001 5.47334 9.56934Z" fill="#FCD38C"/>
<path d="M4.30659 9.29637C4.26987 9.35822 4.23431 9.42059 4.20589 9.48748C4.15818 9.60039 4.12717 9.72045 4.11399 9.84344C4.09653 9.99853 4.1086 10.1557 4.14946 10.3058C4.19033 10.4558 4.2592 10.5955 4.35194 10.7167C4.49289 10.9007 4.67054 11.0275 4.88336 11.0982C5.00674 11.1393 5.13373 11.1581 5.26241 11.149C5.59896 11.1254 5.87345 10.9729 6.08319 10.6908C6.12723 10.6314 6.16524 10.5671 6.19654 10.4991C6.20123 10.4889 6.20703 10.4794 6.21231 10.4696C6.24157 10.4842 6.46923 10.6406 6.50802 10.6694C6.52344 10.6808 6.51648 10.696 6.50913 10.7098C6.46917 10.7858 6.42691 10.8602 6.37602 10.9286C6.26483 11.0783 6.13516 11.2059 5.98176 11.3059C5.83285 11.403 5.66929 11.472 5.49829 11.5098C5.36599 11.5395 5.23201 11.5439 5.0984 11.5351C4.92067 11.5234 4.75037 11.4755 4.58823 11.3956C4.47715 11.3414 4.3731 11.2723 4.27849 11.1901C4.09251 11.027 3.94821 10.83 3.85485 10.5922C3.79519 10.4395 3.75791 10.278 3.74427 10.1133C3.72291 9.86766 3.75949 9.63117 3.84081 9.40138C3.87059 9.31724 3.90991 9.23828 3.95191 9.1607C3.95602 9.15309 3.96066 9.14551 3.96544 9.13846C3.99097 9.09984 3.99581 9.09865 4.03375 9.12164C4.0975 9.16032 4.22006 9.24117 4.28246 9.28168C4.29079 9.28603 4.29887 9.29092 4.30659 9.29637Z" fill="#666059"/>
<path d="M6.28234 10.2246C6.31454 10.0722 6.31754 9.91449 6.2912 9.76086C6.26488 9.6072 6.2097 9.46077 6.12903 9.33026C5.99417 9.14527 5.82474 8.98945 5.63675 8.89324C5.51938 8.83946 5.39364 8.8095 5.26595 8.8049C4.92882 8.79213 4.63981 8.91093 4.40442 9.16911C4.36738 9.21044 4.33261 9.25401 4.30029 9.29959C4.27257 9.28193 4.01754 9.14357 3.98172 9.11064C3.96747 9.09752 4.07863 8.96354 4.13579 8.90093C4.26068 8.76406 4.40183 8.65101 4.56406 8.5682C4.71585 8.4849 4.88936 8.43731 5.06444 8.41749C5.19868 8.40207 5.33424 8.40586 5.46756 8.42883C5.64322 8.45963 5.80521 8.53232 5.95881 8.62953C6.06418 8.6954 6.16115 8.77537 6.24742 8.86739C6.41687 9.0497 6.54165 9.26124 6.61192 9.50793C6.65672 9.66631 6.67837 9.83104 6.67624 9.99639C6.67394 10.2431 6.61571 10.4697 6.53118 10.6523C6.5144 10.6885 6.52961 10.6875 6.481 10.6523C6.4213 10.6068 6.27234 10.5119 6.20947 10.469C6.20556 10.4658 6.25692 10.3461 6.28234 10.2246Z" fill="#45423D"/>
<path d="M4.71807 3.79542C4.69213 3.70774 4.67222 3.61829 4.65042 3.52943C4.64465 3.50602 4.65112 3.49973 4.67458 3.49367C5.97275 3.15787 7.55142 3.41448 8.36223 3.67568C8.49071 3.72474 8.61577 3.78172 8.73148 3.85968C8.78167 3.89352 8.82933 3.93083 8.86675 3.98087C8.87718 3.99457 8.88657 4.00914 8.89485 4.02439C8.91446 4.06155 8.91886 4.099 8.90039 4.13963C8.85769 4.23389 8.81123 4.32602 8.76101 4.41605C8.7286 4.47469 8.69523 4.53272 8.66235 4.5911C8.64684 4.6194 8.62947 4.64651 8.61032 4.67216C8.59356 4.6888 8.57471 4.68079 8.55667 4.67647C8.47724 4.65753 8.39706 4.64272 8.3181 4.62206C8.3123 4.62054 8.30642 4.62313 8.30053 4.62337C8.21784 4.59486 8.13058 4.59163 8.04661 4.57032C8.03562 4.56752 8.02606 4.57461 8.01551 4.57274C7.87762 4.54421 7.73781 4.52984 7.59898 4.50952C7.55016 4.50235 7.49974 4.50617 7.45241 4.48761C7.43431 4.46726 7.43104 4.44065 7.42498 4.41503C7.38998 4.26379 7.34451 4.11704 7.26121 3.9867C7.24853 3.96691 7.23474 3.94799 7.22032 3.9296C7.17698 3.87426 7.12524 3.84135 7.05503 3.83156C6.87182 3.80594 6.68831 3.78376 6.50431 3.7672C6.19816 3.73943 5.89161 3.7347 5.5849 3.73934C5.43352 3.74155 5.28228 3.75225 5.13118 3.76612C5.00609 3.77749 4.88129 3.79096 4.75683 3.8085C4.74138 3.8101 4.72809 3.80908 4.71807 3.79542Z" fill="#EDAE50"/>
<path d="M9.02364 6.43571C8.9374 6.43504 8.85115 6.43318 8.76497 6.43443C8.73748 6.43484 8.73139 6.41785 8.72542 6.3968C8.70207 6.38922 8.70268 6.36649 8.69913 6.34757C8.67123 6.20184 8.645 6.05568 8.61466 5.91044C8.5401 5.5534 8.45628 5.1989 8.35433 4.84944C8.33675 4.78925 8.31787 4.72947 8.3007 4.66911C8.29545 4.65075 8.28548 4.6307 8.30239 4.6123C8.30863 4.60473 8.31693 4.60473 8.32512 4.6063C8.42107 4.62524 8.51696 4.64416 8.61119 4.6715C8.67307 4.85672 8.72509 5.04521 8.77313 5.23492C8.83839 5.49281 8.8944 5.75308 8.94661 6.01423C8.96607 6.11178 9.02341 6.43326 9.02364 6.43571Z" fill="#45423D"/>
<path d="M4.71874 3.79551C4.83212 3.77493 4.94657 3.76298 5.06097 3.75205C5.14343 3.74418 5.22635 3.73914 5.30906 3.73311C5.53882 3.71614 5.76878 3.71652 5.99869 3.7206C6.1657 3.72361 6.33256 3.73305 6.4993 3.74716C6.61032 3.75651 6.72119 3.7673 6.8318 3.78073C6.92472 3.7921 7.01694 3.80851 7.10985 3.82136C7.13993 3.8255 7.16255 3.84121 7.18403 3.86205C7.25803 3.93401 7.31029 4.022 7.35136 4.11804C7.40018 4.23218 7.43373 4.3515 7.45599 4.47455C7.45083 4.49181 7.43754 4.49204 7.4242 4.49117C7.36512 4.48738 7.30595 4.48295 7.2471 4.47712C7.19519 4.47202 7.14308 4.46954 7.09126 4.46645C7.00863 4.46161 6.92588 4.45205 6.84282 4.45695C6.81079 4.45887 6.77922 4.45028 6.74722 4.44975C6.70397 4.44908 6.6905 4.45902 6.67546 4.50172C6.58694 4.7534 6.51408 5.01029 6.45005 5.2701C6.35109 5.6715 6.27561 6.07814 6.21213 6.48738C6.19513 6.59674 6.18126 6.70662 6.1661 6.8163C6.16299 6.83865 6.16071 6.8615 6.14736 6.88071C6.13693 6.89184 6.12367 6.89257 6.11093 6.88908C6.05139 6.87269 5.99231 6.85445 5.93294 6.83763C5.92827 6.83655 5.92396 6.83419 5.92032 6.8309C5.91673 6.82761 5.91393 6.82341 5.91218 6.81872C5.90262 6.79135 5.90863 6.76351 5.9125 6.73655C5.97298 6.29388 6.0471 5.85398 6.14454 5.41877C6.21347 5.11102 6.29199 4.80635 6.3926 4.50836C6.40781 4.4633 6.3993 4.45022 6.3548 4.44966C6.17843 4.44757 6.00233 4.45409 5.82606 4.46307C5.73745 4.46762 5.64894 4.47147 5.56057 4.47933C5.55465 4.47933 5.54873 4.47957 5.54276 4.4796C5.45054 4.48027 5.44838 4.4824 5.41929 4.57371C5.25001 5.10455 5.13168 5.64868 5.04025 6.20003C5.01294 6.36494 4.98895 6.5304 4.96461 6.69581C4.96243 6.71093 4.96086 6.72589 4.95185 6.73854C4.94334 6.7532 4.92923 6.75518 4.91507 6.75748C4.84153 6.76885 4.76753 6.77675 4.69431 6.79056C4.67785 6.79371 4.65759 6.79747 4.6543 6.7692C4.66657 6.68205 4.67887 6.59487 4.69117 6.5077C4.72305 6.28097 4.75919 6.05503 4.79953 5.82991C4.85243 5.53492 4.91297 5.24223 4.98773 4.9531C5.02332 4.81594 5.0601 4.6791 5.10487 4.54491C5.12052 4.49787 5.12043 4.49787 5.08659 4.46537C5.00492 4.38674 4.92352 4.30778 4.84141 4.22964C4.82635 4.21553 4.81579 4.19682 4.81122 4.17601C4.78341 4.06138 4.75427 3.94716 4.72556 3.83273C4.7206 3.82107 4.71821 3.80833 4.71874 3.79551Z" fill="#45423D"/>
<path d="M4.71887 3.79492C4.72321 3.80693 4.72814 3.81876 4.72563 3.83217C4.71852 3.82086 4.70948 3.80973 4.71887 3.79492Z" fill="#A9A9A9"/>
<path d="M6.60379 7.08667C6.46735 7.00873 6.32433 6.94732 6.17808 6.8941C6.16476 6.88926 6.15074 6.88568 6.14062 6.87405C6.15566 6.76306 6.16957 6.65187 6.18598 6.54114C6.22395 6.28471 6.26828 6.02954 6.319 5.77568C6.39624 5.39086 6.48869 5.01045 6.61017 4.63854C6.62961 4.579 6.64978 4.51974 6.66998 4.46055C6.68021 4.43062 6.68067 4.43047 6.71081 4.4314C6.87907 4.43647 7.04727 4.44335 7.21527 4.45454C7.29566 4.45988 7.37584 4.46775 7.4561 4.47451C7.58878 4.48803 7.72096 4.50543 7.85287 4.52531C7.90895 4.53376 7.96505 4.5416 8.02072 4.55259C8.05275 4.5662 8.07257 4.59223 8.0919 4.62216C8.16537 4.73604 8.22393 4.85898 8.27263 4.98567C8.32364 5.1182 8.37027 5.25341 8.40175 5.39346C8.41414 5.4486 8.43171 5.50235 8.44448 5.55726C8.4861 5.73811 8.53227 5.91774 8.56599 6.10063C8.58324 6.19445 8.60157 6.28812 8.62431 6.38084C8.63037 6.4055 8.6404 6.43339 8.61055 6.45117C8.60735 6.45493 8.60472 6.45968 8.60079 6.46189C8.54795 6.49162 8.51224 6.54003 8.47759 6.58938C8.41962 6.67175 8.3622 6.75455 8.30461 6.83721C8.28837 6.84476 8.27502 6.83849 8.2617 6.82838C8.19233 6.77553 8.12235 6.72357 8.05168 6.67256C8.01577 6.64653 8.01297 6.63353 8.03707 6.59515C8.07132 6.54062 8.10807 6.48798 8.14334 6.43423C8.15692 6.41357 8.17144 6.39343 8.18251 6.3711C8.20248 6.33059 8.19513 6.29017 8.16447 6.266C8.13378 6.24181 8.09554 6.24671 8.0661 6.2818C8.02897 6.32613 7.99971 6.3769 7.96797 6.42569C7.8673 6.58002 7.76645 6.73423 7.66537 6.88833C7.65587 6.90282 7.64617 6.91727 7.63975 6.93377C7.62498 6.97122 7.63527 7.00987 7.6652 7.03068C7.69618 7.05216 7.7318 7.04793 7.75803 7.01596C7.79475 6.97131 7.82381 6.92039 7.85576 6.87207C7.8761 6.84108 7.89639 6.81001 7.9174 6.77953C7.93203 6.75834 7.94818 6.75516 7.96928 6.76956C8.04608 6.82211 8.11944 6.87991 8.19437 6.93526C8.20694 6.94458 8.21927 6.95554 8.21877 6.97454C8.19537 7.01517 8.17202 7.05586 8.14841 7.09637C8.13655 7.11669 8.12384 7.13648 8.11215 7.15694C8.06342 7.24167 8.06191 7.32922 8.10391 7.41617C8.21705 7.6503 8.3346 7.88195 8.46724 8.10442C8.48377 8.13214 8.50155 8.15887 8.5181 8.18641C8.56488 8.26391 8.63468 8.29501 8.71685 8.2976C8.79607 8.30011 8.87514 8.29087 8.95407 8.28347C8.95232 8.63401 8.85797 8.9547 8.68141 9.2498C8.65669 9.2911 8.62993 9.30874 8.58176 9.30722C8.45395 9.30317 8.32594 9.30646 8.19805 9.30687C8.17217 9.30305 8.1731 9.27878 8.16954 9.2605C8.15439 9.1853 8.13445 9.11156 8.11338 9.03806C8.0325 8.7545 7.91521 8.48414 7.76485 8.23467C7.71623 8.154 7.66202 8.07784 7.6111 7.99903C7.5638 7.93336 7.51282 7.87084 7.46016 7.81016C7.36636 7.70215 7.26904 7.59777 7.16249 7.50346C7.00842 7.3679 6.84337 7.24706 6.66931 7.1424C6.6452 7.12701 6.61632 7.11739 6.60379 7.08667Z" fill="#B9E1E1"/>
<path d="M8.6017 6.45957C8.61155 6.43686 8.61067 6.4055 8.60554 6.38411C8.56063 6.19763 8.24308 4.89745 8.06351 4.6113C8.04174 4.57664 8.03661 4.56743 8.01953 4.55225C8.10385 4.55921 8.18654 4.57813 8.27016 4.59057C8.27654 4.59133 8.28269 4.59375 8.28805 4.59751C8.29342 4.6013 8.29785 4.60637 8.30105 4.61235C8.41318 4.97463 8.50939 5.34161 8.58969 5.71331C8.63889 5.93983 8.6894 6.18323 8.72953 6.4118L8.73008 6.41328C8.73819 6.4292 8.74026 6.42479 8.69327 6.43106C8.66416 6.43502 8.62501 6.44887 8.6017 6.45957Z" fill="#DCF9FB"/>
<path d="M5.9201 6.81448C5.84712 6.79935 5.77416 6.78277 5.70098 6.76947C5.61366 6.75374 5.52561 6.74286 5.43721 6.73695C5.35356 6.73115 5.27061 6.72937 5.18678 6.72917C5.13968 6.72917 5.09197 6.73403 5.04461 6.73033C5.02523 6.7145 5.02867 6.69305 5.03152 6.67151C5.07171 6.36318 5.11844 6.05621 5.17935 5.75134C5.22208 5.53665 5.27017 5.32345 5.32937 5.11336C5.38591 4.91266 5.45178 4.71552 5.55385 4.53479C5.56921 4.50756 5.57166 4.48509 5.55536 4.45962C5.56661 4.45481 5.57857 4.45484 5.59034 4.45428C5.85901 4.44131 6.12762 4.42727 6.39664 4.42989C6.40824 4.42989 6.4203 4.42697 6.43161 4.43312C6.4361 4.44668 6.42858 4.45778 6.42468 4.46912C6.30608 4.81371 6.21646 5.16752 6.13925 5.52494C6.07379 5.82817 6.0194 6.13368 5.97259 6.44074C5.9537 6.56519 5.93764 6.68993 5.9201 6.81448Z" fill="#B9E1E1"/>
<path d="M5.57988 4.45486C5.62797 4.44891 5.6234 4.45171 5.59457 4.50408C5.51669 4.64556 5.45114 4.791 5.40104 4.94445C5.37201 5.03344 5.34383 5.12321 5.32208 5.21496C5.29833 5.31507 5.27029 5.41403 5.24826 5.51467C5.22596 5.61653 5.20713 5.71916 5.18647 5.8214C5.16534 5.92609 5.14374 6.0307 5.12768 6.13635C5.10273 6.30047 5.07869 6.46465 5.05548 6.62895C5.05076 6.66241 5.04476 6.69607 5.04575 6.73029C5.03374 6.73603 4.95158 6.74504 4.94531 6.73029C4.95073 6.64976 4.96493 6.57043 4.97664 6.49086C5.00564 6.29427 5.03817 6.09829 5.07434 5.90301C5.15866 5.45162 5.2626 5.00557 5.40186 4.56963C5.41063 4.54224 5.42104 4.51534 5.42885 4.48765C5.43339 4.47135 5.44246 4.46538 5.45703 4.46491C5.4904 4.46313 5.57394 4.45459 5.57988 4.45486Z" fill="#DCF9FB"/>
<path d="M10.021 10.007C9.93815 10.0002 9.84581 9.93089 9.77988 10.11C9.71436 10.2875 9.81069 10.3559 9.79615 10.3499C9.78898 10.3489 9.78175 10.3487 9.77455 10.3492C9.72028 10.3499 9.66417 10.3403 9.61005 10.3403C9.59084 10.3309 9.59539 10.3142 9.59859 10.298C9.62585 10.1585 9.66764 10.0226 9.72319 9.89285C9.79664 9.72276 9.88662 9.56341 9.99935 9.41876C10.156 9.21789 10.3395 9.05146 10.553 8.9222C10.7751 8.7876 11.0135 8.70436 11.2662 8.66811C11.3882 8.65059 11.5113 8.64406 11.6347 8.65327C11.6815 8.65674 11.718 8.63642 11.7432 8.59539C11.7535 8.57869 11.7648 8.56598 11.7823 8.55936C11.8027 8.55913 11.8212 8.56831 11.8405 8.57289C11.8833 8.58309 11.8877 8.58145 11.9064 8.54033C11.9367 8.47393 11.9681 8.40812 12.0071 8.34683C12.0168 8.34024 12.0248 8.33132 12.0306 8.32083C12.0813 8.23832 12.146 8.17006 12.2222 8.11407C12.2243 8.11299 12.2267 8.11261 12.2291 8.11287C12.2567 8.11287 12.2639 8.13523 12.2705 8.15712C12.2996 8.25312 12.3324 8.3475 12.373 8.43893C12.4402 8.5904 12.5231 8.73051 12.6295 8.85412C12.6454 8.87257 12.6655 8.88903 12.6561 8.91905C12.6007 9.02261 12.5453 9.12611 12.4898 9.2296C12.4817 9.24473 12.4727 9.25951 12.4641 9.27446C12.4486 9.30052 12.4312 9.3252 12.412 9.34826C12.4071 9.34444 12.4018 9.34103 12.3962 9.33817C12.3931 9.33648 12.387 9.3308 12.3839 9.32899C12.3258 9.29539 12.334 9.29317 12.363 9.23054C12.3811 9.19102 12.3906 9.151 12.3791 9.10649C12.3746 9.0881 12.3665 9.0709 12.3554 9.05598C12.3444 9.04106 12.3305 9.02876 12.3147 9.01978C12.2776 8.99833 12.2391 8.97816 12.1966 8.96869C12.1372 8.95552 12.075 8.98489 12.0463 9.04214C12.0368 9.06105 12.0302 9.08137 12.0214 9.10069C12.0087 9.12882 12.0015 9.13275 11.9741 9.12442C11.901 9.10227 11.8272 9.08417 11.7516 9.07519C11.7446 9.07431 11.7378 9.07143 11.7307 9.07073C11.7106 9.06819 11.7021 9.0556 11.7023 9.03485C11.7023 9.01471 11.701 8.99445 11.7023 8.97429C11.707 8.89801 11.6613 8.84642 11.5949 8.83246C11.5471 8.82241 11.4978 8.82307 11.4502 8.83447C11.3894 8.84901 11.3534 8.88854 11.3449 8.95563C11.3415 8.98052 11.3395 9.00562 11.3389 9.0308C11.3386 9.06353 11.3365 9.0663 11.3054 9.0728C11.267 9.08076 11.2283 9.08682 11.1899 9.0946C11.1504 9.10262 11.1112 9.11264 11.0725 9.12462C11.0473 9.13246 11.0414 9.12934 11.0309 9.10434C11.0212 9.08134 11.0121 9.05811 10.9997 9.03654C10.9668 8.97974 10.9074 8.9535 10.8466 8.97018C10.8029 8.9823 10.7613 9.00183 10.7235 9.02803C10.6683 9.06589 10.6482 9.13739 10.6715 9.20483C10.6785 9.22485 10.6887 9.24357 10.6968 9.26315C10.7071 9.28787 10.7062 9.29373 10.6858 9.30699C10.614 9.3538 10.5474 9.40842 10.4812 9.46362C10.4619 9.47979 10.4566 9.48 10.4385 9.46222C10.4224 9.44552 10.4053 9.4299 10.3874 9.41547C10.3365 9.37633 10.267 9.37583 10.2192 9.41876C10.1859 9.44875 10.1543 9.4814 10.1305 9.52142C10.0945 9.58201 10.1029 9.65397 10.1519 9.7032C10.1718 9.72311 10.1738 9.72462 10.2061 9.74806C10.1565 9.80075 10.0597 9.94304 10.0314 9.99906" fill="#414141"/>
<path d="M9.35764 10.3335C9.15846 10.3333 8.95927 10.3331 8.76006 10.3329C8.44348 10.3329 8.12692 10.3329 7.81028 10.3329C7.73733 10.3329 7.7361 10.3304 7.74621 10.2542C7.75336 10.1987 7.75461 10.1433 7.72532 10.0928C7.69375 10.0383 7.64916 10.0034 7.58923 9.99363C7.56 9.98853 7.53048 9.98538 7.50089 9.9841C7.46528 9.98299 7.45886 9.97358 7.45752 9.93537C7.45327 9.81193 7.44377 9.68923 7.42147 9.56757C7.41258 9.51948 7.41503 9.51543 7.46038 9.50211C7.4971 9.49133 7.53284 9.47798 7.5656 9.45705C7.64694 9.40494 7.67084 9.31593 7.65134 9.22447C7.64246 9.18282 7.6289 9.1421 7.61576 9.10164C7.5816 8.99657 7.49116 8.94195 7.38859 8.96241C7.35344 8.96941 7.31978 8.98133 7.28591 8.99267C7.25808 9.00214 7.25461 9.00121 7.2417 8.97247C7.18783 8.85163 7.1243 8.73598 7.05175 8.62674C7.03811 8.60636 7.03887 8.59998 7.05959 8.5834C7.0881 8.56043 7.11115 8.53134 7.13756 8.5061C7.20112 8.44551 7.19996 8.31796 7.16195 8.25711C7.12613 8.19981 7.08075 8.15107 7.03135 8.10823C6.96927 8.05419 6.86029 8.05227 6.79121 8.11831C6.76746 8.14105 6.74044 8.15996 6.71943 8.1859C6.70684 8.20147 6.69518 8.20182 6.68026 8.18841C6.64505 8.15664 6.60949 8.12525 6.57297 8.0952C6.51573 8.04816 6.45548 8.00581 6.39439 7.96448C6.34146 7.92863 6.34391 7.9367 6.37081 7.87736C6.38206 7.85373 6.39191 7.82942 6.40039 7.8045C6.4312 7.70753 6.40325 7.60126 6.30506 7.54827C6.26268 7.52554 6.22013 7.50211 6.17445 7.4889C6.11039 7.47034 6.04781 7.47375 5.99153 7.51825C5.96865 7.53653 5.95032 7.56049 5.93814 7.58797C5.92295 7.62073 5.90963 7.65448 5.89509 7.68756C5.8841 7.71254 5.88168 7.71412 5.85685 7.70581C5.76166 7.67398 5.66431 7.65224 5.56588 7.63565C5.54254 7.63184 5.51905 7.62808 5.49561 7.62452C5.46169 7.61927 5.45906 7.61648 5.45845 7.57859C5.45799 7.54708 5.4581 7.51551 5.45845 7.48392C5.45927 7.39634 5.41575 7.34 5.34534 7.30348C5.32508 7.29261 5.30293 7.28637 5.28028 7.28517C5.22709 7.28325 5.17378 7.27963 5.12068 7.28896C5.0194 7.30697 4.9565 7.3822 4.95335 7.49112C4.95259 7.51881 4.95335 7.54658 4.95306 7.57442C4.95256 7.61694 4.9509 7.6182 4.91243 7.62475C4.79415 7.64463 4.67626 7.66637 4.56133 7.70336C4.53394 7.71216 4.53064 7.71027 4.51811 7.68147C4.50619 7.65405 4.49456 7.62644 4.48252 7.59896C4.43516 7.48987 4.32537 7.45463 4.2242 7.49389C4.18628 7.50846 4.1493 7.5256 4.11342 7.54518C4.0546 7.57754 4.01578 7.62755 4.0031 7.6987C3.99651 7.73606 3.99984 7.77465 4.01263 7.81018C4.02365 7.84221 4.03828 7.87244 4.05209 7.90319C4.06381 7.92921 4.0625 7.93513 4.04009 7.94959C3.94565 8.01053 3.85743 8.08069 3.77133 8.15408C3.76026 8.16346 3.74997 8.17419 3.7393 8.18386C3.72085 8.2003 3.71522 8.20027 3.69657 8.18313C3.67596 8.16422 3.65469 8.14597 3.63539 8.12554C3.56267 8.04865 3.4265 8.04912 3.35588 8.13082C3.33507 8.15489 3.31522 8.18004 3.29389 8.20351C3.26804 8.2319 3.26632 8.23093 3.23982 8.20494C3.21732 8.18284 3.16431 8.13324 3.16052 8.13026C3.12516 8.08838 3.12662 8.08806 3.16238 8.04507C3.46658 7.67987 3.85224 7.40184 4.28384 7.23662C4.50138 7.15329 4.72525 7.09899 4.95533 7.07791C5.09582 7.06547 5.23703 7.06407 5.37772 7.07363C5.56824 7.08581 5.75711 7.11907 5.94117 7.17293C6.0922 7.21685 6.23907 7.27547 6.37996 7.34807C6.47623 7.39637 6.56959 7.4509 6.65956 7.51143C6.78556 7.59631 6.90486 7.69196 7.01622 7.7975C7.12278 7.89931 7.22281 8.00855 7.3157 8.12455C7.32829 8.14116 7.34009 8.15853 7.35102 8.17646C7.43794 8.2808 7.50765 8.39803 7.5728 8.51796C7.70372 8.7581 7.80168 9.01697 7.8637 9.28663C7.88536 9.38098 7.89976 9.4767 7.91576 9.57218C7.92966 9.65548 7.98714 9.68398 8.05761 9.64364C8.14604 9.59311 8.20218 9.47291 8.18935 9.36647C8.18655 9.34338 8.17154 9.31724 8.19486 9.29552C8.21331 9.28448 8.23368 9.28541 8.25382 9.28529C8.36061 9.28497 8.4672 9.28384 8.57385 9.28585C8.61789 9.28666 8.64738 9.2692 8.67099 9.23038C8.75919 9.085 8.8264 8.92642 8.87035 8.75982C8.90498 8.6298 8.92989 8.4978 8.93835 8.36265C8.93937 8.34874 8.93916 8.33481 8.93768 8.32097C8.93584 8.30453 8.93972 8.29103 8.95403 8.28243C8.97714 8.28197 9.02777 8.27888 9.03004 8.27865C9.11862 8.27308 9.11862 8.27311 9.11879 8.3678C9.11879 8.43977 9.11838 8.5117 9.11902 8.58343C9.11958 8.64918 9.13605 8.66947 9.19649 8.68567C9.34118 8.72487 9.48761 8.73749 9.63689 8.72924C9.70582 8.72548 9.77327 8.71228 9.84164 8.70654C9.85581 8.70485 9.86968 8.701 9.88283 8.69517C9.92436 8.67824 9.93657 8.6611 9.93718 8.61307C9.93826 8.52356 9.93686 8.43405 9.93794 8.34455C9.93823 8.32496 9.93441 8.30357 9.95071 8.28774C9.97758 8.26576 10.0033 8.28255 10.0273 8.29322C10.0866 8.31974 10.1313 8.36684 10.1723 8.41776C10.2482 8.51208 10.3045 8.6198 10.358 8.72942C10.3627 8.73825 10.3647 8.74839 10.3637 8.75848C10.3618 8.78296 10.3451 8.7952 10.3281 8.80695C10.1882 8.9031 10.0627 9.01724 9.94715 9.1446C9.81468 9.29057 9.70483 9.45376 9.6118 9.63018C9.50372 9.83505 9.43022 10.0534 9.38682 10.2836C9.38309 10.3029 9.38679 10.3302 9.35764 10.3335Z" fill="#45423D"/>
<path d="M9.35754 10.333C9.36655 10.29 9.37512 10.2469 9.38456 10.2043C9.46197 9.85346 9.61068 9.54037 9.82539 9.26229C9.96795 9.07643 10.137 8.91554 10.3265 8.78543C10.3374 8.77785 10.3494 8.77179 10.3561 8.75894C10.3646 8.74375 11.0107 8.30152 11.7333 8.44364C11.7763 8.47686 11.7814 8.54072 11.758 8.59864C11.7352 8.65512 11.6926 8.67293 11.6245 8.67121C11.5616 8.66958 11.4988 8.66596 11.4362 8.66961C11.3309 8.67523 11.2261 8.6894 11.1229 8.71196C10.84 8.77503 10.5823 8.8973 10.3512 9.08176C10.0811 9.2973 9.87727 9.5699 9.73732 9.89642C9.6806 10.0298 9.63787 10.1694 9.60989 10.3127C9.6082 10.3213 9.58497 10.4599 9.57786 10.521C9.57136 10.5778 9.5458 10.6174 9.49427 10.6362C9.41855 10.6637 9.33764 10.6049 9.336 10.5198C9.3351 10.477 9.34376 10.4348 9.34985 10.3925C9.35227 10.3758 9.35489 10.3358 9.35754 10.333Z" fill="#A19D98"/>
<path d="M8.74042 10.0381C8.61125 10.0381 8.48204 10.0385 8.35287 10.0379C8.29233 10.0376 8.24849 10.0062 8.22354 9.94855C8.19857 9.89092 8.20626 9.83496 8.24252 9.78492C8.27129 9.74537 8.31244 9.73015 8.35817 9.72864C8.38898 9.72759 8.41981 9.7282 8.45074 9.72823C8.66881 9.72841 8.88688 9.72852 9.10495 9.7287C9.14628 9.7287 9.18475 9.73625 9.21751 9.76609C9.26272 9.80739 9.28111 9.87428 9.26231 9.93389C9.2531 9.96408 9.23518 9.99046 9.21107 10.0092C9.18697 10.028 9.15794 10.0382 9.12806 10.0383C8.99886 10.039 8.86971 10.0385 8.74054 10.0385L8.74042 10.0381Z" fill="#FCBE4F"/>
<path d="M4.654 6.76854C4.66204 6.77539 4.67131 6.77557 4.68081 6.77359C4.7616 6.75674 4.84339 6.74709 4.92517 6.73806C4.93228 6.73721 4.92876 6.73736 4.94892 6.73529C5.23622 6.71258 5.61917 6.72931 5.9203 6.81392C5.9867 6.83345 6.05362 6.848 6.12007 6.86738C6.12689 6.86779 6.45219 6.99434 6.57857 7.06659C6.58988 7.07519 6.59542 7.07974 6.60349 7.08635C6.60868 7.14835 6.59058 7.19492 6.55653 7.23721C6.50914 7.29618 6.44654 7.33841 6.37647 7.36522C6.28638 7.32354 6.19664 7.28087 6.10358 7.24671C5.9389 7.18621 5.76924 7.14234 5.59684 7.11564C5.44665 7.09291 5.29492 7.08315 5.14321 7.08653C4.96425 7.08968 4.78606 7.1125 4.61141 7.1545C4.06947 7.28396 3.57813 7.58755 3.20389 8.02413C3.19191 8.03812 3.17973 8.05188 3.16772 8.06578C3.14283 8.09484 3.13193 8.11372 3.11354 8.13684C3.08302 8.17531 3.05335 8.21457 3.02362 8.25377C2.9542 8.3452 2.83219 8.35016 2.75618 8.25429C2.70476 8.18933 2.71345 8.09146 2.7553 8.02975C2.80097 7.96374 2.84979 7.90029 2.90156 7.83958C2.95446 7.77662 3.00599 7.71232 3.06399 7.65453C3.14525 7.57356 3.22619 7.49195 3.31459 7.41973C3.61642 7.17315 3.94729 6.98507 4.31188 6.86636C4.40823 6.83488 4.50611 6.80888 4.60506 6.78848C4.62252 6.78501 4.64082 6.78367 4.654 6.76854Z" fill="#EDAE50"/>
<path d="M7.62035 7.98796C7.70869 8.09912 7.78056 8.22221 7.84999 8.34695C7.93163 8.49367 7.99948 8.64753 8.05698 8.80667C8.10974 8.95278 8.15532 9.10111 8.18566 9.25447C8.18922 9.27176 8.19353 9.28857 8.1975 9.30592C8.20542 9.35296 8.21452 9.3995 8.20487 9.448C8.18502 9.54745 8.13845 9.6253 8.04949 9.66867C7.97497 9.70498 7.91029 9.66701 7.89814 9.5807C7.86605 9.35351 7.81373 9.13168 7.73396 8.91763C7.63958 8.66447 7.51589 8.42917 7.35858 8.21375C7.35147 8.20387 7.34477 8.19341 7.33789 8.18324C7.35491 8.12314 7.39018 8.07452 7.42413 8.02457C7.44317 7.9965 7.47263 8.0011 7.4972 7.99288C7.53693 7.97956 7.57864 7.96872 7.62035 7.98796Z" fill="#EDAE50"/>
<path d="M7.60106 7.98301C7.40628 7.96628 7.3451 8.17065 7.33886 8.18345C7.25472 8.07447 7.166 7.9701 7.06938 7.8733C6.87308 7.67601 6.65034 7.51079 6.40843 7.38304C6.39776 7.37747 6.38745 7.3717 6.37695 7.36573C6.38605 7.35436 6.4662 7.33769 6.533 7.24078C6.58952 7.15882 6.60286 7.10321 6.604 7.08691C6.66774 7.11239 6.72341 7.15377 6.78127 7.19053C6.88121 7.25354 6.97733 7.32323 7.06894 7.39921C7.15177 7.46844 7.23213 7.54054 7.30861 7.61801C7.36104 7.67103 7.41018 7.72717 7.45976 7.78278C7.51741 7.84745 7.57556 7.91251 7.6212 7.9882" fill="#FCD38C"/>
<path d="M12.6533 8.91821C12.6324 8.88104 12.6006 8.85385 12.575 8.82062C12.4374 8.64208 12.3388 8.44106 12.2693 8.22307C12.2613 8.19804 12.254 8.17274 12.246 8.14767C12.2427 8.13709 12.2401 8.125 12.2259 8.12535C12.0505 7.96554 11.8387 7.87644 11.6314 7.77889C11.3181 7.63164 10.991 7.53044 10.6601 7.44129C10.4006 7.37134 10.1376 7.31949 9.8739 7.27148C9.84991 7.26714 9.82423 7.26501 9.80768 7.24123C9.80333 7.22394 9.80333 7.20628 9.8033 7.18868C9.80295 6.98005 9.80304 6.77139 9.8036 6.56277C9.8036 6.54003 9.79704 6.51392 9.82012 6.49707C9.87212 6.51068 9.9258 6.51068 9.97853 6.51849C10.0782 6.53318 10.1786 6.54411 10.2781 6.56014C10.407 6.58066 10.5363 6.59891 10.6641 6.62619C10.7524 6.6451 10.8412 6.66105 10.9293 6.68104C11.0325 6.70447 11.1357 6.7282 11.2377 6.75577C11.4077 6.80171 11.5776 6.84834 11.7432 6.9103C11.8092 6.93499 11.8746 6.96157 11.9413 6.98349C12.0093 7.00576 12.0627 7.0502 12.1134 7.10025C12.2238 7.20911 12.3338 7.31832 12.4404 7.43146C12.5116 7.50719 12.5831 7.58238 12.651 7.66157C12.6804 7.69591 12.713 7.7273 12.7436 7.76064C12.7965 7.81844 12.8457 7.87982 12.8999 7.93639C12.9434 7.98186 12.9692 8.03904 12.9723 8.10456C12.9768 8.19658 12.9741 8.28789 12.9521 8.37842C12.9116 8.54502 12.837 8.69197 12.7359 8.82485C12.7105 8.8579 12.6843 8.89046 12.6533 8.91821Z" fill="#EDAE50"/>
<path d="M8.21895 6.97376L7.97383 6.79288C7.96978 6.79028 7.96591 6.78737 7.96232 6.78413C7.94749 6.76895 7.93857 6.77591 7.92921 6.79168C7.91531 6.81509 7.89971 6.83738 7.88479 6.86006C7.84935 6.91366 7.81464 6.96778 7.7782 7.02059C7.75119 7.0598 7.71685 7.07186 7.67899 7.05924C7.62224 7.04033 7.59665 6.97536 7.62475 6.91917C7.63358 6.90142 7.64527 6.8853 7.65611 6.86877C7.78077 6.67868 7.90554 6.48862 8.03038 6.29862C8.03822 6.28603 8.04684 6.27399 8.0562 6.26265C8.08879 6.22537 8.1381 6.21954 8.17544 6.2475C8.19362 6.26102 8.20645 6.28119 8.21152 6.30413C8.21653 6.32709 8.21347 6.35123 8.20283 6.37189C8.19176 6.39404 8.17754 6.41444 8.16398 6.43508C8.12528 6.49393 8.08622 6.55248 8.04725 6.61112C8.03175 6.63453 8.03143 6.63502 8.05358 6.65149C8.13714 6.71345 8.22085 6.77521 8.30461 6.83683L8.21895 6.97376Z" fill="#45423E"/>
<path d="M9.22856 6.45027C9.24001 6.45887 9.23923 6.47196 9.23923 6.48435C9.23955 6.70548 9.23955 6.92652 9.23923 7.14759C9.23955 7.15517 9.23832 7.16266 9.23567 7.16969C9.22101 7.18863 9.20005 7.18787 9.18029 7.18793C9.10696 7.18831 9.03363 7.18414 8.96044 7.18263C8.75569 7.17794 8.551 7.18076 8.34607 7.1812C8.33182 7.1812 8.31757 7.18205 8.30436 7.18878C8.29655 7.19257 8.28947 7.19799 8.29058 7.20842C8.29166 7.21883 8.2999 7.22206 8.30812 7.22437C8.3139 7.22594 8.31981 7.22667 8.32573 7.22652C8.42622 7.22419 8.52666 7.22862 8.62733 7.22195C8.72401 7.21548 8.82112 7.21743 8.91824 7.22364C9.00198 7.22897 9.08598 7.23124 9.16989 7.23442C9.19128 7.23524 9.21259 7.23366 9.23165 7.24719C9.24112 7.29787 9.25601 7.348 9.24587 7.40073C9.24564 7.40557 9.24433 7.41026 9.24211 7.41446C9.22643 7.4343 9.20206 7.43471 9.18172 7.44372C9.14325 7.46077 9.12407 7.48857 9.12529 7.53378C9.1308 7.74025 9.1155 7.94649 9.11815 8.15296C9.1185 8.17689 9.11894 8.20076 9.12145 8.2246C9.12681 8.27616 9.11343 8.29315 9.06446 8.29843C9.05152 8.2998 9.0385 8.30023 9.02532 8.30056C9.00256 8.3009 8.97983 8.30102 8.95712 8.29913C8.89058 8.3102 8.82316 8.31096 8.7561 8.31583C8.63176 8.32472 8.54039 8.27088 8.47563 8.15681C8.38565 7.99846 8.29498 7.84069 8.21267 7.67765C8.17574 7.60446 8.14147 7.52993 8.10259 7.45777C8.0401 7.34182 8.03943 7.2285 8.11244 7.11755C8.14426 7.06919 8.16749 7.01469 8.20553 6.97091C8.22666 6.91813 8.26082 6.8742 8.29154 6.82789C8.36196 6.7174 8.43631 6.60994 8.51637 6.50711C8.5408 6.47569 8.57481 6.45637 8.60617 6.43384C8.64771 6.42186 8.79839 6.41868 8.83663 6.41737C8.88003 6.41579 8.92354 6.41673 8.967 6.41737C8.98769 6.41751 9.18869 6.42911 9.22856 6.45027Z" fill="#EDAE50"/>
<path d="M11.7823 8.57601C11.7688 8.56811 11.7605 8.55707 11.7614 8.53969C11.7642 8.48671 11.7319 8.46056 11.6925 8.44103C11.6399 8.42063 11.2396 8.38064 10.8416 8.52766C10.7016 8.57586 10.5667 8.63602 10.4397 8.71562C10.4163 8.73034 10.3904 8.74028 10.3685 8.75791C10.3653 8.76033 10.3595 8.75876 10.3549 8.75908C10.3237 8.7116 10.303 8.65782 10.2749 8.60851C10.2314 8.53217 10.1853 8.45809 10.1265 8.39373C10.0802 8.34319 10.0278 8.30446 9.96155 8.29026C9.94334 8.29172 9.94063 8.27758 9.93838 8.26377C9.93643 8.24753 9.93573 8.23112 9.93631 8.21477C9.93631 8.10023 9.93439 7.98563 9.93678 7.87114C9.939 7.76278 9.92737 7.65494 9.92877 7.54669C9.92929 7.5055 9.91096 7.47752 9.87537 7.46152C9.8612 7.45514 9.84739 7.44779 9.8341 7.43957C9.82396 7.43319 9.81297 7.42663 9.81743 7.41046L9.81877 7.32856C9.83057 7.31119 9.84654 7.31366 9.86365 7.31637C10.0607 7.34791 10.2563 7.38682 10.4506 7.43319C10.6841 7.48939 10.9164 7.55106 11.1438 7.63147C11.3261 7.69583 11.5064 7.76584 11.6811 7.85147C11.7639 7.8921 11.8484 7.92943 11.924 7.98449C11.9526 8.00518 11.9754 8.03273 11.9971 8.06141C12.0486 8.12955 12.0356 8.20871 12.0308 8.28627C12.0293 8.31049 12.0185 8.33299 12.0166 8.35736C11.972 8.42949 11.9339 8.50594 11.9029 8.58569C11.8966 8.6023 11.888 8.60842 11.8703 8.60207C11.8417 8.59169 11.8118 8.58461 11.7823 8.57601Z" fill="#EDAE50"/>
<path d="M12.0181 8.35764C12.0082 8.33736 12.0098 8.31547 12.0135 8.29469C12.0212 8.25088 12.0185 8.20681 12.0185 8.1628C12.0185 8.11967 11.9961 8.08621 11.9715 8.05546C11.9406 8.01707 11.9028 7.98568 11.8603 7.96309C11.6615 7.85563 11.4557 7.76621 11.2451 7.68854C11.0929 7.63235 10.9393 7.58108 10.7833 7.53858C10.5861 7.48489 10.3881 7.43538 10.1878 7.39472C10.0726 7.37137 9.95666 7.35388 9.84144 7.33109C9.83451 7.32975 9.82719 7.32952 9.82031 7.3287C9.82031 7.30093 9.82031 7.27324 9.82031 7.24561C9.89108 7.25278 9.96071 7.26773 10.0306 7.28111C10.1214 7.29848 10.2121 7.3169 10.3026 7.33648C10.3976 7.35718 10.4927 7.37726 10.5866 7.40381C10.6586 7.4241 10.7315 7.44138 10.8036 7.46137C10.9802 7.51031 11.1546 7.5665 11.3269 7.63001C11.4669 7.68157 11.6022 7.74549 11.7383 7.80731C11.8678 7.86633 11.9934 7.93468 12.1142 8.01177C12.1497 8.0343 12.1822 8.06196 12.2157 8.0879C12.2276 8.09711 12.2382 8.10818 12.2254 8.12535C12.1802 8.1679 12.1336 8.20865 12.0936 8.25718C12.067 8.28947 12.0434 8.32413 12.0181 8.35764Z" fill="#FCD38C"/>
<path d="M9.22972 7.17004L9.22995 7.25308C8.99291 7.23238 8.55105 7.23238 8.328 7.24573C8.31107 7.24483 8.29416 7.24299 8.27743 7.24016C8.26496 7.23716 8.24575 7.22011 8.2461 7.20941C8.24665 7.1898 8.25726 7.18033 8.27102 7.17307C8.28819 7.16392 8.31115 7.1622 8.33048 7.1622C8.54388 7.1622 8.75735 7.15876 8.97061 7.16424C9.05691 7.16642 9.14336 7.16779 9.22972 7.17004Z" fill="#FCD38C"/>
<path d="M12.8881 8.17715C12.8893 8.25858 12.8739 8.33355 12.8519 8.40714C12.8133 8.53743 12.7502 8.65366 12.67 8.75972C12.6537 8.78129 12.6528 8.78135 12.6358 8.76004C12.5577 8.66249 12.4953 8.55427 12.4418 8.43987C12.4016 8.35392 12.3686 8.26485 12.3392 8.17429C12.3301 8.14623 12.3311 8.14118 12.3575 8.12679C12.4499 8.07633 12.5468 8.04051 12.65 8.02486C12.6971 8.01769 12.7445 8.01781 12.7916 8.01169C12.7963 8.01122 12.8011 8.01111 12.8058 8.01137C12.8506 8.01224 12.8576 8.01828 12.8744 8.06165C12.8893 8.10029 12.889 8.14034 12.8881 8.17715Z" fill="#FEFEFE"/>
<path d="M9.81606 6.51562C9.81606 6.75631 9.81871 7.28429 9.82419 7.43238C9.81101 7.45028 9.79385 7.44375 9.77837 7.43906C9.61148 7.38721 9.44342 7.39493 9.2749 7.42769C9.26068 7.43043 9.24686 7.43419 9.23485 7.42178L9.23398 7.42303C9.22617 7.41166 9.23398 6.23535 9.23296 6.16007C9.23249 6.12772 9.23759 6.0984 9.25272 6.06998C9.27129 6.03509 9.28749 5.99878 9.30478 5.96301C9.30717 5.96042 9.31037 5.95882 9.31378 5.9585C9.50807 6.04675 9.66861 6.1492 9.81486 6.30834C9.81273 6.36587 9.81486 6.44282 9.81606 6.51562Z" fill="#414141"/>
<path d="M9.31434 5.9447H9.31142L9.30859 5.94411C9.32261 5.9085 9.32343 5.87113 9.32328 5.83321C9.32285 5.71989 9.32459 5.60657 9.32355 5.49331C9.32323 5.45201 9.33491 5.41855 9.35916 5.38623C9.47881 5.22683 9.60877 5.07655 9.74815 4.93647C9.83672 4.8474 9.93072 4.76466 10.0341 4.69482C10.0537 4.69984 10.0453 4.71339 10.0409 4.72388C9.9775 4.87247 9.98647 5.02826 10.0064 5.18293C10.0151 5.25108 10.0329 5.32135 10.0862 5.37139C10.09 5.37454 10.0925 5.37912 10.0933 5.38413C10.0941 5.3892 10.0931 5.39442 10.0905 5.3987C9.97015 5.45816 9.87569 5.55058 9.79592 5.66148C9.78411 5.67783 9.77543 5.69515 9.77831 5.71674C9.77304 5.85175 9.7742 5.98661 9.77863 6.20873C9.77843 6.21109 9.77814 6.21351 9.7777 6.21584C9.75989 6.22867 9.74829 6.21418 9.73733 6.20427C9.68979 6.16122 9.64363 6.1166 9.59239 6.07824C9.5364 6.03624 9.47895 5.99707 9.4169 5.96586C9.3842 5.9495 9.35091 5.93843 9.31434 5.9447Z" fill="#A19D98"/>
<path d="M10.1108 4.67871C10.1348 4.69148 10.147 4.71278 10.1532 4.74015C10.1686 4.80978 10.1789 4.88058 10.1837 4.95193C10.1921 5.07393 10.1755 5.192 10.1468 5.30914C10.1408 5.33351 10.134 5.35758 10.1187 5.37769C10.1036 5.38043 10.0989 5.36877 10.0928 5.35761C10.0221 5.22841 10.0093 5.08743 10.018 4.94219C10.0192 4.92231 10.0222 4.90238 10.0235 4.8823C10.0275 4.80518 10.0586 4.73249 10.1108 4.67871Z" fill="#A19D98"/>
<path d="M9.89342 7.44713C9.93026 7.46432 9.94842 7.48962 9.9499 7.53658C9.95737 7.77324 9.95532 8.00991 9.95588 8.24655C9.95588 8.2617 9.95739 8.32477 9.95731 8.34232C9.95672 8.44048 9.95518 8.53871 9.95643 8.63684C9.9569 8.67141 9.9434 8.69111 9.91537 8.70359C9.68097 8.77176 9.37654 8.76838 9.16308 8.69601C9.11501 8.68044 9.10216 8.66135 9.10178 8.60854C9.10129 8.53932 9.10178 8.47007 9.10178 8.40082C9.10178 8.37187 9.10228 8.34293 9.10178 8.31396C9.10129 8.28499 9.10889 7.8362 9.10889 7.82235C9.10889 7.71658 9.10965 7.61078 9.10863 7.50507C9.10834 7.47178 9.11985 7.45179 9.14903 7.43792C9.48803 7.32399 9.66596 7.35712 9.89342 7.44713Z" fill="#A19D98"/>
<path d="M9.17198 8.07001V7.55954C9.17198 7.55071 9.17175 7.54188 9.17198 7.53302C9.17271 7.49799 9.17553 7.49327 9.20724 7.48094C9.32642 7.43232 9.67498 7.38627 9.86099 7.51684C9.8904 7.53328 9.89509 7.55007 9.89638 7.58977C9.90113 7.67919 9.89279 8.34334 9.89311 8.59915C9.89311 8.60426 9.89311 8.60927 9.89311 8.61431C9.89224 8.65077 9.88993 8.65252 9.8551 8.66022C9.63814 8.70819 9.42234 8.70184 9.20751 8.64503C9.17568 8.63667 9.17399 8.63585 9.17393 8.59921C9.17364 8.48199 9.17364 8.36473 9.17393 8.24754C9.17393 8.18828 9.17393 8.12906 9.17393 8.06977L9.17198 8.07001Z" fill="#45423D"/>
<path d="M9.30696 5.95197C9.3111 5.91962 9.3297 5.91621 9.36552 5.92519C9.40856 5.93877 9.44972 5.95835 9.48799 5.98339C9.57315 6.03746 9.65473 6.09697 9.72632 6.1708C9.74232 6.18733 9.76085 6.20111 9.77822 6.21598C9.78064 6.22685 9.78618 6.23667 9.79402 6.2441C9.81667 6.26576 9.8197 6.29074 9.81512 6.32227C9.77755 6.31659 9.75645 6.29275 9.73261 6.26477C9.66799 6.18905 9.59242 6.12775 9.51233 6.07194C9.46298 6.03754 9.38746 5.99998 9.33261 5.97675C9.31381 5.96879 9.30478 5.96928 9.30696 5.95197Z" fill="#DCF9FB"/>
<path d="M10.11 4.67839C10.1227 4.68573 10.1308 4.68908 10.0982 4.71974C10.057 4.75906 10.0297 4.85816 10.0325 5.02068C10.0351 5.12843 10.0365 5.22432 10.1179 5.3774C10.1111 5.38876 10.102 5.39713 10.0888 5.39882C9.95085 5.25457 9.9642 4.81077 10.0323 4.69497C10.0606 4.6639 10.0771 4.66034 10.11 4.67839Z" fill="#DCF9FB"/>
</g>
</svg>
