<svg width="16" height="16" viewBox="0 0 16 16" fill="none" xmlns="http://www.w3.org/2000/svg">
<rect width="16" height="16" rx="4" fill="white"/>
<rect width="16" height="16" rx="4" fill="black" fill-opacity="0.1"/>
<path d="M8.01804 12.6668V11.0777C7.85808 11.0777 7.69464 11.0637 7.53468 11.0394L7.28431 12.6077C7.52772 12.6494 7.77462 12.6668 8.01804 12.6668ZM8.74829 12.6112C8.99171 12.5729 9.23165 12.5173 9.46463 12.4408L8.97432 10.9281C8.82132 10.9768 8.66136 11.0151 8.5014 11.0394L8.74829 12.6112ZM6.57144 12.4408L7.06175 10.9316C6.90875 10.8829 6.75922 10.8203 6.61317 10.7473L5.88987 12.1626C6.10895 12.2704 6.33846 12.3643 6.57144 12.4408ZM10.1427 12.1626C10.3618 12.0513 10.5704 11.9227 10.7687 11.7801L9.82976 10.4969C9.7011 10.5908 9.562 10.6778 9.41595 10.7473L10.1427 12.1626ZM5.26394 11.7766L6.20284 10.4935C6.07417 10.3996 5.94899 10.2952 5.83423 10.1805L4.70756 11.3037C4.88143 11.4741 5.06921 11.634 5.26394 11.7766ZM11.3216 11.3106L11.332 11.3002C11.5059 11.1298 11.6658 10.942 11.8084 10.7473L10.5218 9.81189C10.4279 9.94055 10.3201 10.0657 10.2088 10.177L10.1914 10.1944L10.7339 10.7056L11.3216 11.3106ZM4.23115 10.7438L5.51779 9.80841C5.4239 9.67975 5.33697 9.54065 5.26394 9.39808L3.84516 10.1179C3.95644 10.337 4.0851 10.5456 4.23115 10.7438ZM12.1909 10.1214C12.3022 9.90578 12.3961 9.67627 12.4726 9.44328L10.9564 8.95645C10.9078 9.10945 10.8452 9.25898 10.7721 9.40155L12.1909 10.1214ZM3.56349 9.44328L5.07964 8.95297C5.03095 8.79996 4.9927 8.64348 4.96836 8.48352L3.3931 8.73042C3.43135 8.97036 3.49047 9.2103 3.56349 9.44328ZM12.643 8.73389C12.6812 8.49395 12.7021 8.24706 12.7021 8.00364H11.1094C11.1094 8.1636 11.0955 8.32704 11.0712 8.487L12.643 8.73389ZM4.93011 8.00016C4.93011 7.8402 4.94402 7.67676 4.96836 7.5168L3.3931 7.26991C3.35485 7.50985 3.33746 7.75674 3.33398 8.00016H4.93011ZM11.0712 7.52028L12.6465 7.27339C12.6082 7.03345 12.5526 6.79351 12.4761 6.56052L10.9599 7.04736C11.0086 7.20384 11.0469 7.36032 11.0712 7.52028ZM5.07964 7.04736C5.12832 6.89435 5.19091 6.74482 5.26394 6.60225L3.84516 5.88243C3.73389 6.09803 3.64 6.32753 3.56349 6.56052L5.07964 7.04736ZM10.7756 6.60573L12.1979 5.88591C12.0866 5.66683 11.9579 5.45819 11.8119 5.25997L10.5218 6.19539C10.6157 6.32406 10.7026 6.46315 10.7756 6.60573ZM5.51779 6.19192C5.61168 6.06325 5.71948 5.93807 5.83423 5.82331L5.83771 5.81983L4.71103 4.69664L4.70756 4.70011C4.53369 4.87398 4.37373 5.05828 4.23115 5.2565L5.51779 6.19192ZM10.2088 5.83027L10.5496 5.486L11.332 4.70707L11.3285 4.70359C11.1546 4.5332 10.9703 4.37324 10.7756 4.23066L9.83672 5.51382C9.96538 5.60771 10.0906 5.71204 10.2018 5.82679L10.2088 5.83027ZM6.20631 5.50687C6.33498 5.41298 6.47407 5.32952 6.62012 5.2565L5.89683 3.8412C5.67775 3.95247 5.46911 4.08114 5.27089 4.22371L6.20631 5.50687ZM9.42638 5.25997L10.1532 3.84467C9.93408 3.7334 9.70805 3.63951 9.47507 3.563L8.98128 5.07219C9.1308 5.12436 9.28033 5.18695 9.42638 5.25997ZM7.06871 5.07219C7.22171 5.02351 7.38167 4.98526 7.54163 4.96092L7.29474 3.39261C7.0548 3.43086 6.81138 3.4865 6.5784 3.563L7.06871 5.07219ZM8.50487 4.96092L8.75525 3.39261C8.51531 3.35436 8.26841 3.3335 8.02499 3.3335V4.92267C8.18495 4.92267 8.34839 4.93658 8.50487 4.96092Z" fill="black"/>
<path d="M8.01966 11.1511V9.55498C7.88404 9.55498 7.7519 9.5376 7.61976 9.50282L7.20247 11.0433C7.47023 11.1129 7.74495 11.1511 8.01966 11.1511ZM8.83685 11.0433C9.10461 10.9738 9.35846 10.8694 9.5984 10.7303L8.79164 9.34982C8.67689 9.41589 8.5517 9.46805 8.42304 9.50282L8.83685 11.0433ZM6.4444 10.7303L7.25116 9.34982C7.1364 9.28375 7.0286 9.20029 6.93124 9.1064L6.91733 9.09249L6.40963 9.62453L5.7837 10.2261L5.79413 10.2366C5.98886 10.4278 6.20794 10.5947 6.4444 10.7303ZM10.2487 10.2366C10.4434 10.0418 10.6138 9.82622 10.7494 9.58976L9.35498 8.78996C9.28891 8.90471 9.20545 9.00903 9.10809 9.1064L10.2487 10.2366ZM5.28991 9.58628L6.68434 8.78996C6.61827 8.6752 6.56611 8.55349 6.53134 8.42483L4.97694 8.83516C5.04649 9.09597 5.15429 9.34982 5.28991 9.58628ZM11.0659 8.83864C11.1354 8.57436 11.1737 8.30312 11.1737 8.03188H9.56363C9.56363 8.16402 9.54624 8.29964 9.51147 8.42831L11.0659 8.83864ZM6.48265 8.0284C6.48265 7.89626 6.50004 7.76065 6.53481 7.63198L4.97694 7.22165C4.90739 7.48593 4.86914 7.75717 4.86914 8.0284H6.48265ZM9.50799 7.63546L11.0659 7.22513C10.9963 6.96084 10.8885 6.70699 10.7529 6.47053L9.35846 7.26686C9.42105 7.38509 9.47321 7.5068 9.50799 7.63546ZM6.68782 7.26686C6.75389 7.15558 6.83387 7.04778 6.93124 6.95389L6.93471 6.95041L6.35747 6.38012L5.80456 5.8133L5.79413 5.82374C5.59939 6.01499 5.43248 6.23407 5.29338 6.46705L6.68782 7.26686ZM9.10809 6.95389L9.67838 6.38707L10.2626 5.83764L10.2487 5.82374C10.0539 5.629 9.83486 5.46556 9.5984 5.32647L8.79164 6.70699C8.9064 6.77306 9.01072 6.85304 9.10809 6.94693V6.95389ZM7.25116 6.70699C7.36591 6.64092 7.4911 6.58876 7.61976 6.55399L7.20943 5.0135C6.94167 5.08305 6.68782 5.18737 6.44788 5.32647L7.25116 6.70699ZM8.41956 6.55747L8.83685 5.01698C8.57257 4.94743 8.29785 4.90918 8.02314 4.90918V6.50531C8.15528 6.50531 8.2909 6.52269 8.41956 6.55747Z" fill="black"/>
</svg>
