<svg viewBox="0 0 16 16" fill="none" xmlns="http://www.w3.org/2000/svg">
<rect width="16" height="16" fill="white"/>
<rect width="16" height="16" fill="#00DACC" fill-opacity="0.15"/>
<g clip-path="url(#clip0_261_59856)">
<path d="M13.3327 7.88464C13.2687 4.98757 10.9007 2.6665 7.99935 2.6665C5.05535 2.6665 2.66602 5.05584 2.66602 7.99984C2.66602 10.1246 3.92895 12.0489 5.87882 12.8937C6.13908 12.5054 6.33535 12.0745 6.46762 11.6265C6.57428 11.3534 6.68948 11.0889 6.81322 10.8286C6.96682 10.8756 7.12895 10.9012 7.29535 10.9012C7.74335 10.9012 8.17002 10.722 8.48148 10.4062L8.49855 10.3892C8.31508 10.3209 8.11882 10.2868 7.92255 10.2868C7.55988 10.2868 7.20575 10.4062 6.91562 10.6281C7.06495 10.3209 7.22282 10.0222 7.38922 9.7321C7.56842 9.7961 7.75615 9.82597 7.94388 9.82597C8.36202 9.82597 8.76308 9.6681 9.07028 9.3865L9.08735 9.36944C8.88255 9.2841 8.66068 9.23717 8.43882 9.23717C8.11028 9.23717 7.79028 9.3353 7.51722 9.5145C7.68362 9.24144 7.85002 8.9769 8.02922 8.72517C8.16575 8.76357 8.31082 8.78064 8.45162 8.78064C8.92095 8.78064 9.36895 8.58437 9.68468 8.2345L9.69748 8.21744C9.53535 8.16197 9.36042 8.13637 9.18975 8.13637C8.84842 8.13637 8.51562 8.24304 8.23828 8.4393C8.25108 8.42224 8.26815 8.4009 8.28095 8.37957C8.38762 8.24304 8.49855 8.10224 8.60948 7.96997C9.30068 7.74384 9.81268 7.15504 9.93642 6.43397L9.94068 6.40837H9.93642C9.21535 6.5961 8.66495 7.17637 8.51562 7.90597C8.40895 8.03397 8.30228 8.16624 8.19988 8.2985C8.27242 8.11077 8.30655 7.9145 8.30655 7.71397C8.30655 7.4281 8.23402 7.15077 8.09322 6.9033L8.08042 6.92037C7.87135 7.20624 7.75615 7.55184 7.75615 7.90597C7.75615 8.16624 7.81588 8.4265 7.93535 8.66117C7.76468 8.9001 7.60255 9.14757 7.44468 9.40784C7.46602 9.30544 7.47455 9.19877 7.47455 9.09637C7.47455 8.6697 7.30815 8.2601 7.01375 7.9529L7.00522 7.97424C6.92415 8.1705 6.88575 8.38384 6.88575 8.5929C6.88575 8.99397 7.03082 9.37797 7.29108 9.6809C7.13322 9.95397 6.98815 10.2356 6.84308 10.5257C6.85588 10.4361 6.86442 10.3422 6.86442 10.2526C6.86442 9.79184 6.68095 9.3481 6.35242 9.0281L6.34388 9.04944C6.28415 9.22864 6.25002 9.42064 6.25002 9.60837C6.25002 10.0478 6.41642 10.4702 6.71935 10.7902C6.62548 10.9908 6.53588 11.1913 6.45055 11.4004C6.42922 11.379 6.39935 11.362 6.36948 11.3534C6.21588 11.3108 6.07082 11.2425 5.93855 11.1614C5.82762 11.0932 5.70815 11.042 5.58442 10.9993C5.10228 10.8414 5.17482 10.611 4.92308 10.1417C4.84202 10.0478 4.75668 9.95397 4.66708 9.86437C4.58175 9.8089 4.51348 9.73637 4.46655 9.64677C4.41108 9.53584 4.37695 9.41637 4.36415 9.29264C4.35988 9.15184 4.27028 9.03237 4.13802 8.9897C3.42975 8.7465 3.74548 7.8249 3.77108 7.70544C3.75828 7.55184 3.72415 7.39824 3.66868 7.2489C3.66442 7.23184 3.66015 7.2105 3.65588 7.18917C3.64735 7.15077 3.64308 7.1081 3.64308 7.06544C3.64308 6.91184 3.69855 6.7625 3.80095 6.6473C3.88628 6.56197 4.18068 6.42544 4.24468 6.34437C4.30868 6.2633 4.35135 6.1737 4.41535 6.10117C4.61162 5.9049 4.84202 5.7385 5.09375 5.61477C5.29855 5.50384 5.33268 5.21797 5.41375 5.12837C5.54602 4.97477 5.75082 4.97477 5.90442 4.8425C5.98122 4.77424 6.09215 4.7401 6.16468 4.66757C6.51882 4.3433 6.97108 4.13424 7.44895 4.0745C7.52575 4.07024 7.60682 4.06597 7.68788 4.06597C7.94388 4.06597 8.19562 4.1001 8.43882 4.1641C8.48575 4.17264 8.53268 4.18117 8.57535 4.19397C9.30922 4.21957 10.1924 4.37317 10.5167 4.68464C10.6745 4.83824 10.794 5.02597 10.858 5.2393C10.9092 5.40144 10.9817 5.5593 11.0713 5.70437L11.2676 6.02437C11.3572 6.16517 11.4041 6.33157 11.4041 6.49797C11.4041 6.56624 11.3956 6.6345 11.3828 6.70277C11.3615 6.7625 11.3529 6.8265 11.3529 6.8905C11.3529 6.94597 11.3615 6.99717 11.3743 7.04837C11.4767 7.20624 11.6004 7.34704 11.7369 7.47504C11.7924 7.5305 11.8521 7.57744 11.9161 7.61584C12.0655 7.70544 12.2148 7.80357 12.3513 7.91024C12.3513 7.91877 12.3513 7.9273 12.3513 7.93584C12.3513 8.0169 12.3129 8.08944 12.2489 8.1321C12.1252 8.24304 11.882 8.41797 11.882 8.41797C11.8905 8.46917 11.9076 8.5161 11.9247 8.55877C11.9588 8.62277 12.0399 8.7209 12.0143 8.80197C11.9887 8.8873 11.8137 8.95984 11.8607 9.0537C11.9076 9.15184 12.0356 9.17744 11.9972 9.26704C11.9631 9.35237 11.7881 9.5017 11.8052 9.5657C11.8223 9.6297 11.9673 10.227 11.6345 10.3294C11.2249 10.4105 10.8111 10.4574 10.3929 10.466C10.2564 10.4745 10.1327 10.5513 10.0687 10.6708C10.0047 10.7902 9.96628 10.9182 9.94922 11.0505C9.82975 11.5241 9.66762 11.9892 9.47135 12.4372C9.27508 12.8852 9.45855 12.4628 9.44148 12.5054C9.39882 12.595 9.36895 12.6889 9.36042 12.787C9.39028 12.8596 9.43295 12.9236 9.48415 12.979C9.52682 13.026 9.58655 13.0558 9.65482 13.0558C9.67615 13.0558 9.70175 13.0516 9.72308 13.0473C11.882 12.2964 13.3284 10.2569 13.3284 7.96997C13.3284 7.9401 13.3284 7.90597 13.3284 7.8761L13.3327 7.88464Z" fill="#00DACC"/>
</g>
<defs>
<clipPath id="clip0_261_59856">
<rect width="10.6667" height="10.6667" fill="white" transform="translate(2.66602 2.6665)"/>
</clipPath>
</defs>
</svg>
