<svg viewBox="0 0 16 16" fill="none" xmlns="http://www.w3.org/2000/svg">
<rect width="16" height="16" fill="white"/>
<rect width="16" height="16" fill="#999999" fill-opacity="0.15"/>
<mask id="mask0_261_59857" style="mask-type:luminance" maskUnits="userSpaceOnUse" x="3" y="3" width="10" height="10">
<path d="M12.6674 3.3335H3.33398V12.6668H12.6674V3.3335Z" fill="white"/>
</mask>
<g mask="url(#mask0_261_59857)">
<mask id="mask1_261_59857" style="mask-type:luminance" maskUnits="userSpaceOnUse" x="3" y="3" width="10" height="10">
<path d="M12.6674 3.3335H3.33398V12.6668H12.6674V3.3335Z" fill="white"/>
</mask>
<g mask="url(#mask1_261_59857)">
<path d="M8.92714 3.70478L9.17552 4.28656C9.66304 5.42886 10.5729 6.33872 11.7152 6.82624L12.297 7.07462C12.4492 7.13954 12.5728 7.23264 12.6683 7.34356C12.3785 5.2662 10.7356 3.623 8.6582 3.3335C8.76889 3.42868 8.86222 3.55252 8.92714 3.70478Z" fill="#999999"/>
<path d="M3.70527 7.07462L4.28706 6.82624C5.42935 6.33872 6.3392 5.42886 6.82695 4.28656L7.0751 3.70478C7.14025 3.55252 7.23338 3.42868 7.34404 3.3335C5.26669 3.623 3.62371 5.2662 3.33398 7.34356C3.4294 7.23264 3.55302 7.13954 3.70527 7.07462Z" fill="#999999"/>
<path d="M12.297 8.92568L11.7152 9.17406C10.5729 9.66155 9.66304 10.5716 9.17552 11.7139L8.92714 12.2955C8.86222 12.4477 8.76889 12.5716 8.6582 12.667C10.7356 12.3773 12.3785 10.7341 12.6683 8.65674C12.5728 8.76762 12.4492 8.86073 12.297 8.92568Z" fill="#999999"/>
<path d="M7.0751 12.2955L6.82695 11.7139C6.3392 10.5716 5.42935 9.66155 4.28706 9.17406L3.70527 8.92568C3.55302 8.86073 3.4294 8.76762 3.33398 8.65674C3.62371 10.7341 5.26669 12.3773 7.34404 12.667C7.23338 12.5716 7.14025 12.4477 7.0751 12.2955Z" fill="#999999"/>
</g>
<path d="M5.8832 7.54425L6.16992 7.4218C6.73276 7.18148 7.18123 6.73326 7.42152 6.17043L7.54375 5.88369C7.71519 5.48213 8.28447 5.48213 8.45591 5.88369L8.57814 6.17043C8.81842 6.73326 9.2669 7.18148 9.82973 7.4218L10.1165 7.54425C10.518 7.71566 10.518 8.28475 10.1165 8.45619L9.82973 8.57864C9.2669 8.81893 8.81842 9.26715 8.57814 9.83024L8.45591 10.1167C8.28447 10.5183 7.71519 10.5183 7.54375 10.1167L7.42152 9.83024C7.18123 9.26715 6.73276 8.81893 6.16992 8.57864L5.8832 8.45619C5.48164 8.28475 5.48164 7.71566 5.8832 7.54425Z" fill="black"/>
</g>
</svg>
