<svg viewBox="0 0 16 16" fill="none" xmlns="http://www.w3.org/2000/svg">
<rect width="16" height="16" fill="white"/>
<rect width="16" height="16" fill="#B2FE99" fill-opacity="0.15"/>
<g clip-path="url(#clip0_261_59845)">
<path d="M4.39035 10.3465L3.33398 9.29111L4.63074 7.99565C5.05935 7.56743 5.61197 7.33723 6.17423 7.30412C6.02175 7.18144 5.82835 7.10756 5.6178 7.10756H3.78385V5.61505H5.6178C6.22396 5.61505 6.77764 5.84268 7.19866 6.21643C7.17768 6.02197 7.09319 5.83305 6.94433 5.68428L5.64758 4.38879L6.7039 3.3335L8.00065 4.62899C8.42928 5.05719 8.65966 5.60932 8.69285 6.17098C8.81568 6.01865 8.8896 5.82544 8.8896 5.61505V3.78293H10.3836V5.6151C10.3836 6.22067 10.1556 6.77386 9.78153 7.1944C9.97618 7.17345 10.1652 7.08908 10.3142 6.9403L11.6109 5.6448L12.6673 6.70015L11.3706 7.99565C10.942 8.42386 10.3893 8.65398 9.82707 8.6871C9.97954 8.80981 10.173 8.88369 10.3836 8.88369H12.2175V10.3762H10.3836C9.77738 10.3762 9.22365 10.1485 8.80265 9.77477C8.82363 9.96927 8.90811 10.1581 9.05696 10.3069L10.3538 11.6024L9.29739 12.6577L8.00054 11.3623C7.57199 10.934 7.34157 10.3819 7.30845 9.82024C7.18563 9.97259 7.11171 10.1658 7.11171 10.3762V12.2083H5.61775V10.3762C5.61775 9.77062 5.8456 9.21745 6.21967 8.79693C6.02502 8.81787 5.83596 8.90221 5.68705 9.05098L4.39035 10.3465Z" fill="#B2FE99"/>
</g>
<defs>
<clipPath id="clip0_261_59845">
<rect width="9.33333" height="9.33333" fill="white" transform="translate(3.33398 3.3335)"/>
</clipPath>
</defs>
</svg>
