<svg viewBox="0 0 16 16" fill="none" xmlns="http://www.w3.org/2000/svg">
<rect width="16" height="16" fill="white"/>
<rect width="16" height="16" fill="#EE498B" fill-opacity="0.15"/>
<path fill-rule="evenodd" clip-rule="evenodd" d="M4.98713 3.87766L4.45303 4.42184L5.75628 5.74943L7.05951 7.07705V8.31283V9.54864H7.81894H8.57838V8.31283V7.07705L9.87843 5.75265L11.1785 4.42828L10.6411 3.88128L10.1037 3.33428L8.96834 4.48775C8.3439 5.12217 7.82679 5.6412 7.81924 5.6412C7.81165 5.6412 7.29382 5.12199 6.66853 4.48736C6.04319 3.85273 5.52922 3.3335 5.52638 3.3335C5.52354 3.3335 5.28087 3.57838 4.98713 3.87766ZM4.38502 7.06717C4.21505 7.43274 4.11661 7.74778 4.05321 8.12896C3.87196 9.21884 4.15845 10.3413 4.84063 11.2139C4.9532 11.3579 5.28439 11.6951 5.42477 11.8087C6.05668 12.3199 6.77607 12.6032 7.58302 12.6584C8.06572 12.6915 8.54839 12.627 9.02248 12.4662C10.3927 12.0013 11.3821 10.8013 11.5961 9.34467C11.6784 8.78416 11.6339 8.18458 11.4691 7.63162C11.4035 7.41174 11.2707 7.08235 11.2013 6.96747L11.1748 6.92356L10.597 7.51165C10.1309 7.98599 10.0205 8.10482 10.0265 8.12595C10.0741 8.29598 10.0994 8.47277 10.1062 8.68323C10.1194 9.09106 10.056 9.42069 9.89837 9.76497C9.59194 10.4343 8.99405 10.9119 8.26304 11.0715C8.13611 11.0992 8.08944 11.1023 7.81249 11.102C7.54073 11.1015 7.48736 11.0979 7.36844 11.0718C6.64366 10.9122 6.07365 10.4606 5.75208 9.79118C5.60673 9.48866 5.54093 9.20866 5.531 8.85047C5.52384 8.59143 5.53788 8.4348 5.5865 8.23091L5.6178 8.09977L5.04187 7.513C4.72511 7.19024 4.46247 6.92619 4.45825 6.92619C4.45401 6.92619 4.42106 6.98962 4.38502 7.06717Z" fill="#EE498B"/>
</svg>
