<svg xmlns="http://www.w3.org/2000/svg" viewBox="0 0 24 24" fill="none">
<rect width="24" height="24" fill="white"/>
<rect width="24" height="24" fill="#12AAFF" fill-opacity="0.15"/>
<path d="M14.3984 9.92902C14.4556 9.8169 14.594 9.8169 14.6226 9.92902L16.9729 16.397L15.6295 17.1818L13.7256 11.945C13.6971 11.8901 13.6971 11.8329 13.7256 11.778L14.3984 9.92902Z" fill="#12AAFF"/>
<path d="M12.6066 14.913L13.2793 13.0641C13.3343 12.9519 13.475 12.9519 13.5014 13.0641L15.1261 17.4874L13.7828 18.2723L12.6066 15.0801C12.578 15.0251 12.578 14.968 12.6066 14.913Z" fill="#12AAFF"/>
<path d="M12.2152 5.8684C12.2438 5.8684 12.2702 5.8684 12.2988 5.89698L17.4499 8.86495C17.5049 8.89353 17.5335 8.94849 17.5335 9.03203V14.968C17.5335 15.0229 17.5049 15.1087 17.4499 15.135L12.2988 18.103C12.2702 18.1316 12.2438 18.1316 12.2152 18.1316C12.1867 18.1316 12.1603 18.1316 12.1317 18.103L6.98054 15.135C6.92558 15.1065 6.897 15.0515 6.897 14.968V9.03203C6.897 8.97707 6.92558 8.89133 6.98054 8.86495L12.1317 5.89698C12.1581 5.8684 12.1867 5.8684 12.2152 5.8684ZM12.2152 5C12.0196 5 11.8503 5.05496 11.6832 5.1407L6.53204 8.10867C6.19567 8.30433 6 8.6407 6 9.03203V14.968C6 15.3329 6.19567 15.6957 6.53204 15.8913L11.6832 18.8593C11.8503 18.9428 12.0196 19 12.2152 19C12.4109 19 12.5802 18.945 12.7473 18.8593L17.8984 15.8913C18.2348 15.6957 18.4305 15.3593 18.4305 14.968V9.03203C18.4305 8.66709 18.2348 8.30433 17.8984 8.10867L12.7737 5.1407C12.6066 5.05716 12.4373 5 12.2416 5H12.2152Z" fill="#12AAFF"/>
<path d="M8.8273 17.1796L9.06474 16.5355L9.30218 15.8913L10.2541 16.6762L9.35934 17.516L8.8273 17.1796Z" fill="#DBF2FF"/>
<path d="M12.7451 8.61212H14.062L14.0334 8.58574C14.1169 8.58574 14.1741 8.66928 14.1455 8.75283L10.6741 18.2723L9.33077 17.4874L12.5208 8.75283C12.5494 8.66709 12.6615 8.61212 12.7451 8.61212Z" fill="#12AAFF"/>
<path d="M10.4784 8.61212H11.7667C11.8503 8.61212 11.9074 8.69567 11.8788 8.77921L8.7987 17.2082L7.45541 16.4234L10.2541 8.75283C10.2827 8.66708 10.3948 8.61212 10.4784 8.61212Z" fill="#12AAFF"/>
</svg>