<svg viewBox="0 0 24 24" fill="none" xmlns="http://www.w3.org/2000/svg">
<rect width="24" height="24" fill="white"/>
<rect width="24" height="24" fill="#00DACC" fill-opacity="0.15"/>
<g clip-path="url(#clip0_261_59865)">
<path d="M20 11.8272C19.904 7.4816 16.352 4 12 4C7.584 4 4 7.584 4 12C4 15.1872 5.8944 18.0736 8.8192 19.3408C9.2096 18.7584 9.504 18.112 9.7024 17.44C9.8624 17.0304 10.0352 16.6336 10.2208 16.2432C10.4512 16.3136 10.6944 16.352 10.944 16.352C11.616 16.352 12.256 16.0832 12.7232 15.6096L12.7488 15.584C12.4736 15.4816 12.1792 15.4304 11.8848 15.4304C11.3408 15.4304 10.8096 15.6096 10.3744 15.9424C10.5984 15.4816 10.8352 15.0336 11.0848 14.5984C11.3536 14.6944 11.6352 14.7392 11.9168 14.7392C12.544 14.7392 13.1456 14.5024 13.6064 14.08L13.632 14.0544C13.3248 13.9264 12.992 13.856 12.6592 13.856C12.1664 13.856 11.6864 14.0032 11.2768 14.272C11.5264 13.8624 11.776 13.4656 12.0448 13.088C12.2496 13.1456 12.4672 13.1712 12.6784 13.1712C13.3824 13.1712 14.0544 12.8768 14.528 12.352L14.5472 12.3264C14.304 12.2432 14.0416 12.2048 13.7856 12.2048C13.2736 12.2048 12.7744 12.3648 12.3584 12.6592C12.3776 12.6336 12.4032 12.6016 12.4224 12.5696C12.5824 12.3648 12.7488 12.1536 12.9152 11.9552C13.952 11.616 14.72 10.7328 14.9056 9.6512L14.912 9.6128H14.9056C13.824 9.8944 12.9984 10.7648 12.7744 11.8592C12.6144 12.0512 12.4544 12.2496 12.3008 12.448C12.4096 12.1664 12.4608 11.872 12.4608 11.5712C12.4608 11.1424 12.352 10.7264 12.1408 10.3552L12.1216 10.3808C11.808 10.8096 11.6352 11.328 11.6352 11.8592C11.6352 12.2496 11.7248 12.64 11.904 12.992C11.648 13.3504 11.4048 13.7216 11.168 14.112C11.2 13.9584 11.2128 13.7984 11.2128 13.6448C11.2128 13.0048 10.9632 12.3904 10.5216 11.9296L10.5088 11.9616C10.3872 12.256 10.3296 12.576 10.3296 12.8896C10.3296 13.4912 10.5472 14.0672 10.9376 14.5216C10.7008 14.9312 10.4832 15.3536 10.2656 15.7888C10.2848 15.6544 10.2976 15.5136 10.2976 15.3792C10.2976 14.688 10.0224 14.0224 9.5296 13.5424L9.5168 13.5744C9.4272 13.8432 9.376 14.1312 9.376 14.4128C9.376 15.072 9.6256 15.7056 10.08 16.1856C9.9392 16.4864 9.8048 16.7872 9.6768 17.1008C9.6448 17.0688 9.6 17.0432 9.5552 17.0304C9.3248 16.9664 9.1072 16.864 8.9088 16.7424C8.7424 16.64 8.5632 16.5632 8.3776 16.4992C7.6544 16.2624 7.7632 15.9168 7.3856 15.2128C7.264 15.072 7.136 14.9312 7.0016 14.7968C6.8736 14.7136 6.7712 14.6048 6.7008 14.4704C6.6176 14.304 6.5664 14.1248 6.5472 13.9392C6.5408 13.728 6.4064 13.5488 6.208 13.4848C5.1456 13.12 5.6192 11.7376 5.6576 11.5584C5.6384 11.328 5.5872 11.0976 5.504 10.8736C5.4976 10.848 5.4912 10.816 5.4848 10.784C5.472 10.7264 5.4656 10.6624 5.4656 10.5984C5.4656 10.368 5.5488 10.144 5.7024 9.9712C5.8304 9.8432 6.272 9.6384 6.368 9.5168C6.464 9.3952 6.528 9.2608 6.624 9.152C6.9184 8.8576 7.264 8.608 7.6416 8.4224C7.9488 8.256 8 7.8272 8.1216 7.6928C8.32 7.4624 8.6272 7.4624 8.8576 7.264C8.9728 7.1616 9.1392 7.1104 9.248 7.0016C9.7792 6.5152 10.4576 6.2016 11.1744 6.112C11.2896 6.1056 11.4112 6.0992 11.5328 6.0992C11.9168 6.0992 12.2944 6.1504 12.6592 6.2464C12.7296 6.2592 12.8 6.272 12.864 6.2912C13.9648 6.3296 15.2896 6.56 15.776 7.0272C16.0128 7.2576 16.192 7.5392 16.288 7.8592C16.3648 8.1024 16.4736 8.3392 16.608 8.5568L16.9024 9.0368C17.0368 9.248 17.1072 9.4976 17.1072 9.7472C17.1072 9.8496 17.0944 9.952 17.0752 10.0544C17.0432 10.144 17.0304 10.24 17.0304 10.336C17.0304 10.4192 17.0432 10.496 17.0624 10.5728C17.216 10.8096 17.4016 11.0208 17.6064 11.2128C17.6896 11.296 17.7792 11.3664 17.8752 11.424C18.0992 11.5584 18.3232 11.7056 18.528 11.8656C18.528 11.8784 18.528 11.8912 18.528 11.904C18.528 12.0256 18.4704 12.1344 18.3744 12.1984C18.1888 12.3648 17.824 12.6272 17.824 12.6272C17.8368 12.704 17.8624 12.7744 17.888 12.8384C17.9392 12.9344 18.0608 13.0816 18.0224 13.2032C17.984 13.3312 17.7216 13.44 17.792 13.5808C17.8624 13.728 18.0544 13.7664 17.9968 13.9008C17.9456 14.0288 17.6832 14.2528 17.7088 14.3488C17.7344 14.4448 17.952 15.3408 17.4528 15.4944C16.8384 15.616 16.2176 15.6864 15.5904 15.6992C15.3856 15.712 15.2 15.8272 15.104 16.0064C15.008 16.1856 14.9504 16.3776 14.9248 16.576C14.7456 17.2864 14.5024 17.984 14.208 18.656C13.9136 19.328 14.1888 18.6944 14.1632 18.7584C14.0992 18.8928 14.0544 19.0336 14.0416 19.1808C14.0864 19.2896 14.1504 19.3856 14.2272 19.4688C14.2912 19.5392 14.3808 19.584 14.4832 19.584C14.5152 19.584 14.5536 19.5776 14.5856 19.5712C17.824 18.4448 19.9936 15.3856 19.9936 11.9552C19.9936 11.9104 19.9936 11.8592 19.9936 11.8144L20 11.8272Z" fill="#00DACC"/>
</g>
<defs>
<clipPath id="clip0_261_59865">
<rect width="16" height="16" fill="white" transform="translate(4 4)"/>
</clipPath>
</defs>
</svg>
