<svg xmlns="http://www.w3.org/2000/svg" viewBox="0 0 24 24" fill="none">
<rect width="24" height="24" fill="white"/>
<rect width="24" height="24" fill="#7E3EE2" fill-opacity="0.15"/>
<path d="M15.8795 14.8599L19.6747 12.6949C19.8757 12.5802 20 12.367 20 12.1375V7.80814C20 7.57926 19.8751 7.36552 19.6747 7.2508L15.8795 5.08583C15.6785 4.97112 15.4293 4.97166 15.2283 5.08583L11.4331 7.2508C11.2321 7.36552 11.1078 7.57926 11.1078 7.80814V15.5454L8.44639 17.0632L5.78502 15.5454V12.5093L8.44639 10.9915L10.2018 11.9925V9.9558L8.77174 9.14035C8.67315 9.08407 8.56032 9.05431 8.44584 9.05431C8.33137 9.05431 8.21854 9.08407 8.1205 9.14035L4.32535 11.3053C4.12433 11.42 4 11.6332 4 11.8627V16.1921C4 16.4209 4.12488 16.6347 4.32535 16.7494L8.1205 18.9144C8.32096 19.0285 8.57072 19.0285 8.77174 18.9144L12.5669 16.7499C12.7679 16.6352 12.8922 16.4215 12.8922 16.1926V8.45531L12.9404 8.42825L15.5536 6.9375L18.215 8.45531V11.4915L15.5536 13.0093L13.8009 12.0093V14.046L15.2283 14.8604C15.4293 14.9746 15.6785 14.9746 15.8795 14.8604V14.8599Z" fill="#7E3EE2"/>
</svg>