<svg xmlns="http://www.w3.org/2000/svg" viewBox="0 0 24 24" fill="none">
<rect width="24" height="24" fill="white"/>
<rect width="24" height="24" fill="#A01F1B" fill-opacity="0.1"/>
<path fill-rule="evenodd" clip-rule="evenodd" d="M11.9644 19C14.0386 19 15.9022 18.0978 17.184 16.6645C16.5877 16.1463 15.6891 16.1148 15.0543 16.627L14.9331 16.7248C13.7708 17.6627 12.0772 17.5242 11.0827 16.41C10.5404 15.8023 9.61146 15.7402 8.99308 16.2704L7.59488 17.4691C8.79243 18.4271 10.3115 19 11.9644 19ZM14.234 15.6104C15.3411 14.7171 16.8971 14.7491 17.9618 15.6119C18.5983 14.5574 18.9644 13.3215 18.9644 12C18.9644 10.5316 18.5123 9.16887 17.7397 8.04333C17.2416 7.93726 16.7018 8.06114 16.292 8.42429L16.1753 8.52765C15.0576 9.51814 13.3594 9.45796 12.3146 8.39083C11.7448 7.80881 10.814 7.7897 10.2207 8.34783L8.59361 9.8786L7.69852 8.92719L9.32562 7.39641C10.4369 6.35088 12.1805 6.38668 13.248 7.47695C13.8057 8.04662 14.7123 8.07875 15.309 7.54999L15.4256 7.44663C15.7878 7.12566 16.2069 6.90928 16.6457 6.79548C15.4055 5.67929 13.7643 5 11.9644 5C8.41094 5 5.4759 7.64779 5.02458 11.0781C6.10392 10.5601 7.43527 10.7594 8.3153 11.6606C8.87088 12.2296 9.76545 12.2896 10.3921 11.8L11.3018 11.0893C12.4452 10.1961 14.0614 10.2393 15.1554 11.1924L16.9265 12.7355L16.0685 13.7204L14.2973 12.1773C13.6752 11.6354 12.7562 11.6108 12.106 12.1187L11.1963 12.8294C10.045 13.7289 8.40144 13.6186 7.38071 12.5733C6.78716 11.9654 5.8164 11.9442 5.19687 12.5256L5 12.7103C5.14733 14.1723 5.74456 15.5016 6.65115 16.5576L8.14286 15.2787C9.30124 14.2855 11.0413 14.4018 12.0573 15.5401C12.5882 16.135 13.4923 16.2089 14.1127 15.7082L14.234 15.6104Z" fill="#A01F1B"/>
</svg>