<svg xmlns="http://www.w3.org/2000/svg" width="16" height="16" viewBox="0 0 16 16" fill="none">
<rect width="16" height="16" rx="4" fill="white"/>
<rect width="16" height="16" rx="4" fill="#FF0420" fill-opacity="0.15"/>
<path fill-rule="evenodd" clip-rule="evenodd" d="M3.25249 10.25C3.69864 10.5411 4.23195 10.6866 4.77257 10.6647C5.52114 10.6647 6.11832 10.4993 6.56513 10.1686C7.01227 9.83296 7.32667 9.32704 7.50832 8.65087C7.61744 8.23625 7.71093 7.80929 7.78878 7.36998C7.81207 7.2403 7.82504 7.10915 7.8277 6.97764C7.83702 6.66165 7.74187 6.35087 7.55523 6.08908C7.37025 5.835 7.10975 5.63909 6.807 5.52637C6.46599 5.39361 6.10002 5.32811 5.7314 5.33384C4.26056 5.33384 3.34864 6.01255 2.99532 7.36998C2.87056 7.86797 2.77441 8.29493 2.70687 8.65087C2.68325 8.783 2.67028 8.91665 2.66795 9.05065C2.65564 9.28063 2.70222 9.51002 2.80402 9.719C2.90583 9.92797 3.05986 10.1102 3.25249 10.25ZM5.62261 9.35417C5.41534 9.51867 5.15184 9.60556 4.8817 9.59847C4.38299 9.59847 4.13347 9.37143 4.13347 8.91733C4.13314 8.85896 4.13646 8.80065 4.14278 8.74267C4.14777 8.69699 4.15509 8.65152 4.16441 8.60637C4.2579 8.12759 4.35138 7.72284 4.4452 7.39213C4.50409 7.10543 4.6568 6.84372 4.8817 6.64435C5.09229 6.48051 5.35778 6.39384 5.62993 6.40004C6.12364 6.39994 6.3705 6.6245 6.3705 7.07374C6.3705 7.18057 6.36019 7.28717 6.33923 7.39213C6.27702 7.73783 6.18619 8.14258 6.06675 8.60637C6.0072 8.89459 5.8515 9.15688 5.62261 9.35417Z" fill="#FF0420"/>
<path fill-rule="evenodd" clip-rule="evenodd" d="M8.11449 10.5792C8.13744 10.5882 8.16206 10.5921 8.18701 10.5907L9.24731 10.5909C9.27326 10.5905 9.29888 10.5861 9.32283 10.578C9.34911 10.5692 9.37373 10.5561 9.39536 10.5391C9.44061 10.5066 9.47121 10.4589 9.48053 10.4058L9.83917 8.78435H10.8915C11.5722 8.78435 12.1075 8.64861 12.4971 8.37713C12.9173 8.06684 13.1984 7.61724 13.2846 7.11839C13.3148 6.99205 13.3305 6.86293 13.3315 6.73333C13.3408 6.53959 13.2965 6.34688 13.2037 6.17419C13.1109 6.00149 12.9722 5.85479 12.8011 5.74852C12.3856 5.50398 11.9019 5.3852 11.4135 5.40795H9.34013C9.30021 5.40852 9.26162 5.41849 9.22735 5.43668C9.21504 5.44329 9.20306 5.45099 9.19175 5.45972C9.14684 5.49226 9.11623 5.53993 9.10658 5.59304L8.03098 10.4056C8.02 10.4513 8.02832 10.4992 8.05427 10.539C8.06791 10.5533 8.08421 10.5651 8.10218 10.5738L8.11449 10.5792ZM11.5156 7.59212C11.3506 7.70678 11.1507 7.7666 10.9464 7.76232H10.0501L10.3462 6.43709H11.2817C11.4424 6.42208 11.6038 6.46428 11.7339 6.55552C11.7794 6.59729 11.8154 6.64812 11.8383 6.70443C11.861 6.76074 11.8706 6.82115 11.8663 6.88138C11.8653 6.95592 11.8573 7.03024 11.843 7.10351C11.8017 7.29952 11.685 7.47383 11.5156 7.59212Z" fill="#FF0420"/>
</svg>