<svg xmlns="http://www.w3.org/2000/svg" width="33" height="32" viewBox="0 0 33 32" fill="none">
<g clip-path="url(#clip0_260_41803)">
<path d="M1.42259 13.2725C1.06417 13.6305 0.779835 14.0557 0.58584 14.5237C0.391844 14.9917 0.291992 15.4934 0.291992 16C0.291992 16.5066 0.391844 17.0083 0.58584 17.4763C0.779835 17.9443 1.06417 18.3695 1.42259 18.7275L13.5645 30.8694C13.9225 31.2278 14.3477 31.5122 14.8157 31.7062C15.2837 31.9001 15.7854 32 16.292 32C16.7986 32 17.3003 31.9001 17.7683 31.7062C18.2363 31.5122 18.6615 31.2278 19.0195 30.8694L31.1614 18.7275C31.5198 18.3695 31.8041 17.9443 31.9981 17.4763C32.1921 17.0083 32.292 16.5066 32.292 16C32.292 15.4934 32.1921 14.9917 31.9981 14.5237C31.8041 14.0557 31.5198 13.6305 31.1614 13.2725L19.0195 1.1306C18.6615 0.772177 18.2363 0.487843 17.7683 0.293847C17.3003 0.0998521 16.7986 0 16.292 0C15.7854 0 15.2837 0.0998521 14.8157 0.293847C14.3477 0.487843 13.9225 0.772177 13.5645 1.1306L1.42259 13.2725Z" fill="#6160FF"/>
</g>
<defs>
<clipPath id="clip0_260_41803">
<rect width="32" height="32" fill="white" transform="translate(0.291992)"/>
</clipPath>
</defs>
</svg>