<svg xmlns="http://www.w3.org/2000/svg" width="21" height="20" viewBox="0 0 21 20" fill="none">
<path d="M14.4587 17.5V15.8333C14.2377 15.8333 14.0257 15.7455 13.8694 15.5893C13.7132 15.433 13.6254 15.221 13.6254 15V14.1667C13.6254 13.7246 13.801 13.3007 14.1135 12.9882C14.4261 12.6756 14.85 12.5 15.292 12.5H16.9587C17.4007 12.5 17.8246 12.6756 18.1372 12.9882C18.4498 13.3007 18.6254 13.7246 18.6254 14.1667V15C18.6254 15.221 18.5376 15.433 18.3813 15.5893C18.225 15.7455 18.013 15.8333 17.792 15.8333" stroke="#8763F3" stroke-width="1.5" stroke-linecap="round" stroke-linejoin="round"/>
<path d="M16.1253 12.5V5.41667C16.1253 4.64312 15.818 3.90125 15.271 3.35427C14.724 2.80729 13.9822 2.5 13.2086 2.5C12.4351 2.5 11.6932 2.80729 11.1462 3.35427C10.5992 3.90125 10.292 4.64312 10.292 5.41667V14.5833C10.292 15.3569 9.98466 16.0987 9.43768 16.6457C8.8907 17.1927 8.14883 17.5 7.37528 17.5C6.60174 17.5 5.85987 17.1927 5.31289 16.6457C4.76591 16.0987 4.45862 15.3569 4.45862 14.5833V7.5" stroke="#8763F3" stroke-width="1.5" stroke-linecap="round" stroke-linejoin="round"/>
<path d="M17.792 17.5V15.8333H14.4586" stroke="#8763F3" stroke-width="1.5" stroke-linecap="round" stroke-linejoin="round"/>
<path d="M2.79199 4.16667H6.12533V2.5" stroke="#8763F3" stroke-width="1.5" stroke-linecap="round" stroke-linejoin="round"/>
<path d="M6.12528 4.16667C6.3463 4.16667 6.55826 4.25446 6.71454 4.41074C6.87082 4.56702 6.95862 4.77899 6.95862 5V5.83333C6.95862 6.27536 6.78302 6.69928 6.47046 7.01184C6.1579 7.3244 5.73398 7.5 5.29195 7.5H3.62528C3.18326 7.5 2.75933 7.3244 2.44677 7.01184C2.13421 6.69928 1.95862 6.27536 1.95862 5.83333V5C1.95862 4.77899 2.04642 4.56702 2.2027 4.41074C2.35898 4.25446 2.57094 4.16667 2.79195 4.16667V2.5" stroke="#8763F3" stroke-width="1.5" stroke-linecap="round" stroke-linejoin="round"/>
</svg>