<svg viewBox="0 0 16 16" fill="none" xmlns="http://www.w3.org/2000/svg">
<rect width="16" height="16" fill="#637DEB"/>
<path d="M8.20573 10.1799C8.17465 10.1904 8.15694 10.1634 8.1358 10.151C7.09976 9.5395 6.06485 8.92761 5.03108 8.3153C5.02334 8.3114 5.01537 8.30796 5.00722 8.30502C5.00295 8.30348 5 8.29948 5 8.29493V8.29493C5 8.29119 5.002 8.28774 5.00524 8.28587L5.01489 8.2803C5.01718 8.27899 5.01963 8.27798 5.02219 8.2773C5.0469 8.27066 5.07125 8.2627 5.09511 8.25345L7.53655 7.14261C7.75329 7.04384 7.97002 6.94661 8.18675 6.84878C8.18841 6.84803 8.1902 6.84764 8.19202 6.84764V6.84764C8.19908 6.84764 8.2048 6.85337 8.2048 6.86043C8.2048 6.88646 8.2048 6.9105 8.2048 6.93591C8.20563 8.01734 8.20594 9.09866 8.20573 10.1799Z" fill="#C4CEED"/>
<path d="M8.20728 6.8484V6.8484C8.19869 6.8484 8.19173 6.84144 8.19197 6.83286C8.19269 6.80692 8.19485 6.7808 8.19485 6.7536C8.19485 5.53894 8.19485 4.32418 8.19485 3.10931C8.19142 3.07939 8.19322 3.04912 8.20014 3.01984C8.20067 3.01762 8.20266 3.01607 8.20494 3.01607V3.01607C8.2066 3.01607 8.20814 3.01689 8.20907 3.01826C8.33619 3.20627 8.44706 3.4044 8.56409 3.59853C9.49488 5.14244 10.4251 6.68615 11.3549 8.22965V8.22965C11.366 8.24848 11.3481 8.27039 11.3273 8.26372C11.3187 8.26097 11.3102 8.25801 11.3017 8.25483C11.1311 8.17775 10.9598 8.09942 10.7908 8.02079C10.526 7.89957 10.261 7.77856 9.99601 7.65776L8.71919 7.07933C8.54917 7.00101 8.37823 6.92486 8.20728 6.8484Z" fill="#C3CEF5"/>
<path d="M8.20209 3.01446C8.1944 3.04491 8.1923 3.0765 8.19587 3.1077C8.19587 4.32236 8.19587 5.53713 8.19587 6.75199V6.75199C8.19587 6.81011 8.15928 6.86191 8.1063 6.8858C7.91755 6.97089 7.7288 7.05574 7.54005 7.14175L5.09861 8.2526V8.2526C5.06895 8.2641 5.04346 8.23357 5.05853 8.20555C5.12257 8.08646 5.19794 7.97445 5.26769 7.85725C6.2364 6.24702 7.20582 4.63711 8.17598 3.02751C8.17976 3.02225 8.18373 3.01714 8.18788 3.01217C8.19195 3.0073 8.19961 3.00862 8.20209 3.01446V3.01446Z" fill="#FCFFFF"/>
<path d="M8.20728 6.8484C8.37823 6.92486 8.54923 7.00103 8.71986 7.07812L9.99669 7.65654C10.2619 7.77714 10.5268 7.89815 10.7914 8.01957C10.9618 8.09758 11.1333 8.17653 11.3024 8.25361C11.304 8.25421 11.3056 8.25481 11.3072 8.25539C11.3531 8.27218 11.3928 8.29994 11.3509 8.3251V8.3251C11.0858 8.48361 10.8194 8.63995 10.5537 8.79722C9.79093 9.24853 9.0284 9.69973 8.26607 10.1508C8.2468 10.162 8.22594 10.1702 8.20573 10.1799C8.20573 9.09887 8.20578 8.01791 8.20578 6.9367C8.20609 6.90717 8.20697 6.87792 8.20728 6.8484Z" fill="#8C9FD6"/>
<path d="M8.19481 10.7939L10.1918 9.61689C10.5731 9.39186 10.9541 9.16663 11.335 8.94118V8.94118C11.3514 8.93216 11.3703 8.94385 11.3603 8.95967C11.3537 8.97003 11.345 8.97872 11.3384 8.98781C10.4681 10.2147 9.59783 11.4412 8.72755 12.6672C8.56282 12.8997 8.3984 13.1334 8.23211 13.3641C8.22995 13.3671 8.2275 13.3728 8.22463 13.3789C8.20776 13.4145 8.19513 13.35 8.19513 13.3106V13.3106C8.19533 12.4714 8.19523 11.6325 8.19481 10.7939Z" fill="#C3CEF5"/>
<path d="M8.19481 10.7939C8.19481 11.6325 8.19464 12.471 8.19464 13.3092V13.3092C8.19464 13.3493 8.15885 13.3579 8.13519 13.3255C8.11913 13.3036 8.10593 13.2791 8.08959 13.2573C7.08048 11.8358 6.07189 10.4142 5.06381 8.99231C5.0626 8.99059 5.06139 8.98886 5.06019 8.98712C5.04103 8.95932 5.05247 8.93253 5.08153 8.94973V8.94973C6.10204 9.5523 7.12233 10.1554 8.14243 10.759C8.16139 10.7708 8.17772 10.7828 8.19481 10.7939Z" fill="#FCFFFF"/>
<path d="M8.20209 3.01446L8.20071 3.01227C8.19747 3.00711 8.2004 2.99694 8.20499 3.00096C8.20638 3.00217 8.20701 3.00441 8.20747 3.00683C8.20814 3.01032 8.2056 3.01397 8.20209 3.01446V3.01446Z" fill="#8198EA"/>
</svg>
