<svg viewBox="0 0 40 40" fill="none" xmlns="http://www.w3.org/2000/svg">
<path d="M20 40C31.0457 40 40 31.0457 40 20C40 8.9543 31.0457 0 20 0C8.95431 0 0 8.9543 0 20C0 31.0457 8.95431 40 20 40Z" fill="black"/>
<path d="M8.96755 8.8734C8.12426 9.75885 7.42855 10.5038 7.42152 10.5178C7.4145 10.5389 8.17346 11.2838 9.1081 12.1693C10.0427 13.0617 10.8579 13.8418 10.9141 13.891L11.0196 13.9894L10.8298 14.3056C9.16432 17.0603 8.81998 20.3773 9.86706 23.4272C10.0638 24.0034 10.4011 24.7413 10.6893 25.2262C10.8298 25.4651 10.8931 25.6197 10.879 25.6478C10.865 25.6759 10.0146 26.5754 8.98863 27.6506C7.96263 28.7188 7.12637 29.6113 7.11232 29.6253C7.10529 29.6464 9.9795 32.4222 10.2536 32.6471L10.359 32.7385L11.9823 31.0449C12.8748 30.1102 13.7111 29.2318 13.8375 29.0983L14.0765 28.8593L14.3014 28.9999C15.4468 29.7307 16.7891 30.2367 18.2718 30.5038C19.0167 30.6373 20.4363 30.6724 21.2304 30.574C22.7624 30.3983 24.2803 29.8853 25.5241 29.1334L25.8474 28.9366L26.1917 29.274C26.9437 30.0048 29.7546 32.6752 29.7827 32.6893C29.8108 32.7033 32.8959 29.4778 32.8888 29.4356C32.8818 29.4145 30.7666 27.3836 29.4735 26.1678L29.0449 25.7603L29.2416 25.437C30.8931 22.6893 31.2374 19.3583 30.1692 16.2873C30.0146 15.8376 29.5438 14.8256 29.2697 14.3618L29.1362 14.1299L30.9423 12.2395C31.9331 11.2065 32.7413 10.3421 32.7342 10.321C32.7061 10.2508 29.5438 7.26412 29.5016 7.26412C29.4735 7.26412 28.6794 8.07228 27.7307 9.07017C26.782 10.061 25.995 10.8762 25.9739 10.8832C25.9598 10.8903 25.8685 10.8481 25.7841 10.7849C25.5452 10.6232 24.9408 10.2929 24.6035 10.1383C23.5775 9.6675 22.6218 9.37937 21.5115 9.21774C20.9352 9.13341 19.2065 9.11936 18.6724 9.19666C17.3934 9.37937 16.3463 9.69561 15.2782 10.2297C14.969 10.3773 14.6106 10.574 14.47 10.6584L14.217 10.813L13.9289 10.5319C13.7743 10.3773 13.0716 9.71669 12.3758 9.04909C11.6801 8.38851 10.9704 7.71388 10.8017 7.54522L10.4925 7.24304L8.96755 8.8734ZM20.7666 13.4553C21.8839 13.5888 22.8818 13.9683 23.8024 14.6148C24.2732 14.9451 24.976 15.6478 25.3063 16.1187C27.1826 18.775 26.8242 22.3871 24.463 24.6007C22.4461 26.4841 19.5297 26.9057 17.0772 25.6548C15.3063 24.7483 14.0554 23.0898 13.6548 21.1011C13.5283 20.4686 13.5283 19.288 13.6548 18.6626C13.7743 18.0442 13.9359 17.6014 14.2381 16.983C15.4468 14.5515 18.068 13.132 20.7666 13.4553Z" fill="white"/>
</svg>
