<svg xmlns="http://www.w3.org/2000/svg" width="17" height="17" viewBox="0 0 17 17" fill="none">
  <rect x="0.5" y="0.5" width="16" height="16" rx="8" fill="#2775CA"/>
  <path d="M3.84598 6.79661C2.88188 9.31883 4.21163 12.1686 6.8046 13.0857C6.90433 13.1512 7.00406 13.2822 7.00406 13.3805V13.8391C7.00406 13.9046 7.00406 13.9373 6.97079 13.9701C6.9376 14.1011 6.8046 14.1666 6.6716 14.1011C4.81001 13.5115 3.38053 12.103 2.78215 10.2687C1.78485 7.15697 3.51353 3.84862 6.6716 2.86595C6.70487 2.83325 6.77133 2.83325 6.8046 2.83325C6.9376 2.86595 7.00406 2.96422 7.00406 3.09527V3.55382C7.00406 3.71765 6.9376 3.81592 6.8046 3.8814C5.44166 4.37273 4.34463 5.42088 3.84598 6.79661Z" fill="white"/>
  <path d="M10.0292 2.997C10.0624 2.86595 10.1954 2.80047 10.3284 2.86595C12.1567 3.45555 13.6195 4.86406 14.2179 6.73112C15.2151 9.84287 13.4865 13.1512 10.3284 14.1339C10.2951 14.1666 10.2287 14.1666 10.1954 14.1666C10.0624 14.1339 9.99594 14.0356 9.99594 13.9046V13.446C9.99594 13.2822 10.0624 13.1839 10.1954 13.1184C11.5583 12.6271 12.6554 11.579 13.154 10.2032C14.1181 7.68101 12.7884 4.83128 10.1954 3.91418C10.0957 3.84862 9.99594 3.71765 9.99594 3.5866V3.12805C9.99594 3.06249 9.99594 3.02978 10.0292 2.997Z" fill="white"/>
  <path d="M8.5997 7.94312C9.99592 8.10687 10.694 8.49994 10.694 9.64635C10.694 10.5308 10.0292 11.2186 9.03189 11.3824V12.1686C8.99862 12.3323 8.89889 12.4306 8.76589 12.4306H8.26725C8.10106 12.3978 8.00133 12.2995 8.00133 12.1686V11.3824C6.9043 11.2186 6.37239 10.629 6.23947 9.81018V9.7774C6.23947 9.64635 6.3392 9.54809 6.47212 9.54809H7.0373C7.13703 9.54809 7.23676 9.61365 7.26995 9.74462C7.36968 10.236 7.66887 10.5963 8.53324 10.5963C9.16481 10.5963 9.63027 10.236 9.63027 9.71192C9.63027 9.1878 9.33108 8.99127 8.40025 8.82752C7.00403 8.66369 6.3392 8.23792 6.3392 7.15699C6.3392 6.33808 6.97076 5.683 7.96806 5.55195V4.7986C8.00133 4.63477 8.10106 4.5365 8.23406 4.5365H8.7327C8.89889 4.56929 8.99862 4.66755 8.99862 4.7986V5.58473C9.76319 5.65021 10.3616 6.20703 10.4946 6.92768V6.96046C10.4946 7.09143 10.3948 7.18969 10.2618 7.18969H9.73C9.63027 7.18969 9.53054 7.12421 9.49727 7.02594C9.33108 6.53461 8.99862 6.33808 8.40025 6.33808C7.73541 6.33808 7.40295 6.6328 7.40295 7.09143C7.40295 7.55006 7.60241 7.81207 8.5997 7.94312Z" fill="white"/>
</svg>