<svg xmlns="http://www.w3.org/2000/svg" width="16" height="17" viewBox="0 0 16 17" fill="none">
  <rect y="0.5" width="16" height="16" rx="8" fill="#50AF95"/>
  <path fill-rule="evenodd" clip-rule="evenodd" d="M11.8269 6.2513V4.83325H4.01753V6.2513H6.94895V7.23449C4.89012 7.33956 3.34551 7.77109 3.33407 8.28832L3.33398 9.36659C3.34545 9.88382 4.89012 10.3153 6.94895 10.4204V12.8333H8.89547V10.4204C10.9543 10.3153 12.4989 9.88382 12.5104 9.36659L12.5104 8.28832C12.499 7.77109 10.9543 7.33956 8.89547 7.23449V6.2513H11.8269ZM12.4052 8.82745C11.9558 9.31473 10.1193 9.67963 7.92221 9.67963C5.72506 9.67963 3.88863 9.31473 3.4392 8.82745C3.82031 8.41423 5.19884 8.08902 6.94895 7.99971V9.0291C7.26263 9.04511 7.58825 9.05354 7.92221 9.05354C8.25616 9.05354 8.58178 9.04511 8.89547 9.0291V7.99971C10.6456 8.08902 12.0241 8.41423 12.4052 8.82745Z" fill="white"/>
</svg>