<svg width="32" height="32" viewBox="0 0 32 32" fill="none" xmlns="http://www.w3.org/2000/svg">
<g clip-path="url(#clip0_270_24526)">
<path d="M2.97658 10.5853C2.74312 9.53321 2.77897 8.43922 3.0808 7.40473C3.38263 6.37023 3.94068 5.42873 4.7032 4.6675C5.46572 3.90628 6.40802 3.34998 7.44274 3.0502C8.47746 2.75041 9.57109 2.71684 10.6222 2.9526C11.2008 2.0474 11.9978 1.30247 12.9398 0.786469C13.8819 0.270467 14.9386 0 16.0126 0C17.0866 0 18.1433 0.270467 19.0853 0.786469C20.0273 1.30247 20.8244 2.0474 21.4029 2.9526C22.4557 2.71582 23.5512 2.74924 24.5875 3.04975C25.6239 3.35026 26.5675 3.90811 27.3304 4.67139C28.0934 5.43468 28.6511 6.37861 28.9515 7.41539C29.2518 8.45216 29.2853 9.5481 29.0486 10.6013C29.9534 11.18 30.698 11.9774 31.2138 12.9198C31.7296 13.8622 32 14.9193 32 15.9937C32 17.0681 31.7296 18.1253 31.2138 19.0677C30.698 20.0101 29.9534 20.8074 29.0486 21.3862C29.2842 22.4378 29.2507 23.5318 28.951 24.5669C28.6513 25.6021 28.0953 26.5447 27.3343 27.3076C26.5734 28.0704 25.6323 28.6286 24.5982 28.9306C23.5641 29.2325 22.4705 29.2684 21.4189 29.0349C20.8411 29.9435 20.0435 30.6916 19.0998 31.21C18.1562 31.7283 17.0971 32 16.0206 32C14.9441 32 13.8849 31.7283 12.9413 31.21C11.9977 30.6916 11.2 29.9435 10.6222 29.0349C9.57109 29.2706 8.47746 29.237 7.44274 28.9373C6.40802 28.6375 5.46572 28.0812 4.7032 27.32C3.94068 26.5587 3.38263 25.6172 3.0808 24.5827C2.77897 23.5482 2.74312 22.4542 2.97658 21.4022C2.06479 20.8249 1.31375 20.0264 0.79333 19.0807C0.272905 18.1351 0 17.0732 0 15.9937C0 14.9143 0.272905 13.8523 0.79333 12.9067C1.31375 11.9611 2.06479 11.1625 2.97658 10.5853Z" fill="#8763F3" />
<path d="M16 10.667V21.3337" stroke="#FFFFFF" stroke-width="2" stroke-linecap="round" stroke-linejoin="round"/>
<path d="M10.666 16H21.3327" stroke="#FFFFFF" stroke-width="2" stroke-linecap="round" stroke-linejoin="round"/>
</g>
<defs>
<clipPath id="clip0_270_24526">
<rect width="32" height="32" fill="white"/>
</clipPath>
</defs>
</svg>
