<svg width="40" height="41" viewBox="0 0 40 41" fill="none" xmlns="http://www.w3.org/2000/svg">
<g clip-path="url(#clip0_783_20018)">
<path d="M30.3154 10.6471C28.3919 9.74716 26.3352 9.09312 24.1851 8.7207C23.921 9.19813 23.6125 9.84027 23.3998 10.3511C21.1141 10.0074 18.8494 10.0074 16.6058 10.3511C16.3931 9.84027 16.0776 9.19813 15.8112 8.7207C13.6587 9.09312 11.5997 9.74956 9.6762 10.6519C5.79657 16.5145 4.74486 22.2315 5.27071 27.8673C7.84389 29.7889 10.3376 30.9562 12.7892 31.7201C13.3946 30.887 13.9344 30.0014 14.3995 29.0681C13.5137 28.7315 12.6654 28.3161 11.8638 27.8339C12.0764 27.6764 12.2844 27.5117 12.4854 27.3422C17.3747 29.629 22.687 29.629 27.5178 27.3422C27.7212 27.5117 27.9291 27.6764 28.1395 27.8339C27.3355 28.3185 26.4848 28.7338 25.599 29.0705C26.0641 30.0014 26.6017 30.8894 27.2093 31.7225C29.6633 30.9586 32.1593 29.7913 34.7325 27.8673C35.3495 21.334 33.6785 15.6695 30.3154 10.6471ZM15.0656 24.4014C13.5979 24.4014 12.3943 23.0312 12.3943 21.3626C12.3943 19.6941 13.5722 18.3215 15.0656 18.3215C16.5591 18.3215 17.7626 19.6917 17.7369 21.3626C17.7393 23.0312 16.5591 24.4014 15.0656 24.4014ZM24.9376 24.4014C23.4699 24.4014 22.2663 23.0312 22.2663 21.3626C22.2663 19.6941 23.4442 18.3215 24.9376 18.3215C26.431 18.3215 27.6347 19.6917 27.609 21.3626C27.609 23.0312 26.431 24.4014 24.9376 24.4014Z" fill="#AAA9C9" fill-opacity="1"/>
</g>
<defs>
<clipPath id="clip0_783_20018">
<rect width="29.7143" height="29.7143" fill="white" transform="translate(5.14453 5.41211)"/>
</clipPath>
</defs>
</svg>
