<svg xmlns="http://www.w3.org/2000/svg" width="40" height="41" viewBox="0 0 40 41" fill="none">
<path d="M20 5.26758C11.7163 5.26758 5 11.9266 5 20.1397C5 27.1086 9.84 32.9397 16.365 34.5533C16.295 34.3525 16.25 34.1195 16.25 33.8308V31.2889C15.6412 31.2889 14.6212 31.2889 14.365 31.2889C13.3387 31.2889 12.4262 30.8514 11.9837 30.0384C11.4925 29.1349 11.4075 27.753 10.19 26.9078C9.82875 26.6264 10.1037 26.3055 10.52 26.3488C11.2887 26.5645 11.9262 27.0875 12.5262 27.8633C13.1237 28.6404 13.405 28.8164 14.5212 28.8164C15.0625 28.8164 15.8725 28.7854 16.635 28.6664C17.045 27.634 17.7537 26.6835 18.62 26.2348C13.625 25.7254 11.2413 23.2616 11.2413 19.9166C11.2413 18.4765 11.86 17.0835 12.9113 15.9098C12.5663 14.7448 12.1325 12.369 13.0438 11.4643C15.2913 11.4643 16.65 12.9094 16.9763 13.2998C18.0963 12.9193 19.3263 12.7036 20.6187 12.7036C21.9137 12.7036 23.1488 12.9193 24.2712 13.3022C24.5938 12.9143 25.9538 11.4643 28.2063 11.4643C29.1213 12.3703 28.6825 14.756 28.3337 15.9185C29.3787 17.0897 29.9938 18.479 29.9938 19.9166C29.9938 23.2591 27.6138 25.7217 22.6262 26.2336C23.9988 26.9437 25 28.9391 25 30.4424V33.8308C25 33.9596 24.9713 34.0526 24.9562 34.1629C30.8013 32.1316 35 26.6289 35 20.1397C35 11.9266 28.2838 5.26758 20 5.26758Z" fill="#AAA9C9" fill-opacity="1"/>
</svg>