<svg xmlns="http://www.w3.org/2000/svg" width="16" height="16" viewBox="0 0 16 16" fill="none">
  <path d="M12.6667 2H3.33333C2.59695 2 2 2.59695 2 3.33333V12.6667C2 13.403 2.59695 14 3.33333 14H12.6667C13.403 14 14 13.403 14 12.6667V3.33333C14 2.59695 13.403 2 12.6667 2Z" stroke="#8585A9" stroke-width="1.5" stroke-linecap="round" stroke-linejoin="round"/>
  <path d="M7.99935 11.3334C9.8403 11.3334 11.3327 9.84103 11.3327 8.00008C11.3327 6.15913 9.8403 4.66675 7.99935 4.66675C6.1584 4.66675 4.66602 6.15913 4.66602 8.00008C4.66602 9.84103 6.1584 11.3334 7.99935 11.3334Z" stroke="#8585A9" stroke-width="1.5" stroke-linecap="round" stroke-linejoin="round"/>
  <path d="M8 8H8.00667" stroke="#8585A9" stroke-width="1.5" stroke-linecap="round" stroke-linejoin="round"/>
</svg>